<?xml version="1.0" standalone="no"?>
<!DOCTYPE svg PUBLIC "-//W3C//DTD SVG 1.1//EN" "http://www.w3.org/Graphics/SVG/1.1/DTD/svg11.dtd" >
<svg xmlns="http://www.w3.org/2000/svg" xmlns:xlink="http://www.w3.org/1999/xlink" version="1.1">
<metadata>
Created by FontForge 20170731 at Tue Jul  6 17:18:28 2021
 By Aleksey,,,
Copyright (c) 2021 by Fontastica. All rights reserved.
</metadata>
<defs>
<font id="Qartella-Regular" horiz-adv-x="1304" vert-adv-y="2048" >
  <font-face 
    font-family="Qartella"
    font-weight="400"
    font-stretch="normal"
    units-per-em="2048"
    panose-1="0 0 5 0 0 0 0 0 0 0"
    ascent="1638"
    descent="-410"
    x-height="1001"
    cap-height="1569"
    bbox="-158.167 -565 2431 2021"
    underline-thickness="102"
    underline-position="-307"
    unicode-range="U+000D-2212"
  />
<missing-glyph vert-adv-y="2437" 
d="M82 1556l2 5l1137 4l2 -4v-1555l-1141 -4v1554zM176 1477v-1391l952 4v1391zM367 1145h6l282 -289l291 291l80 -80l2 -4l-293 -291l289 -285v-6l-74 -73l-286 286l-291 -291l-82 80l287 297l-285 287v4z" />
    <glyph glyph-name=".notdef" vert-adv-y="2437" 
d="M82 1556l2 5l1137 4l2 -4v-1555l-1141 -4v1554zM176 1477v-1391l952 4v1391zM367 1145h6l282 -289l291 291l80 -80l2 -4l-293 -291l289 -285v-6l-74 -73l-286 286l-291 -291l-82 80l287 297l-285 287v4z" />
    <glyph glyph-name=".null" horiz-adv-x="0" vert-adv-y="0" 
 />
    <glyph glyph-name="nonmarkingreturn" horiz-adv-x="682" 
 />
    <glyph glyph-name="NULL" horiz-adv-x="0" vert-adv-y="2437" 
 />
    <glyph glyph-name="NULL" horiz-adv-x="0" vert-adv-y="2437" 
 />
    <glyph glyph-name="CR" unicode="&#xd;" horiz-adv-x="0" vert-adv-y="2437" 
 />
    <glyph glyph-name="space" unicode=" " horiz-adv-x="565" vert-adv-y="2437" 
 />
    <glyph glyph-name="exclam" unicode="!" horiz-adv-x="569" vert-adv-y="2437" 
d="M342 428h-115q-22 0 -22 21l-4 1097q0 10 6.5 16.5t15.5 6.5h123q23 0 23 -23l-4 -1097q0 -21 -23 -21zM285 -23q-51 0 -82 32t-31 83t31 81t82 30t81.5 -30t30.5 -81t-30.5 -83t-81.5 -32z" />
    <glyph glyph-name="quotedbl" unicode="&#x22;" horiz-adv-x="813" vert-adv-y="2437" 
d="M145 997q-9 0 -20 11l-37 45q-11 18 4 30q151 118 164 275q-57 0 -91 34.5t-34 90.5q0 59 34 95t91 36q42 0 72.5 -21.5t44.5 -58.5q25 -63 15.5 -143t-39.5 -155.5t-81 -139.5t-110 -95q-8 -4 -13 -4zM487 997q-5 0 -20 11l-35 45q-11 18 4 30q149 119 164 275
q-57 0 -91 34.5t-34 90.5q0 59 34 95t91 36q41 0 72 -21.5t45 -58.5q25 -63 15 -143t-40 -155.5t-81 -139.5t-109 -95q-8 -4 -15 -4z" />
    <glyph glyph-name="numbersign" unicode="#" horiz-adv-x="1472" vert-adv-y="2437" 
d="M317 0h-98q-20 0 -16 23l116 444h-215q-11 0 -15.5 6.5t-0.5 15.5l27 80q10 23 32 23h207l95 356h-248q-9 0 -13 6t0 17l27 78q6 22 33 22h235l123 475q7 23 29 23h98q9 0 14.5 -6.5t2.5 -16.5l-125 -475h356l127 475q3 23 27 23h98q10 0 15.5 -6.5t2.5 -16.5l-129 -475
h248q22 0 16 -22l-30 -78q-1 -10 -9.5 -16.5t-19.5 -6.5h-233l-97 -356h273q23 0 16 -23l-26 -80q-3 -9 -12.5 -15.5t-18.5 -6.5h-264l-119 -444q-4 -23 -29 -23h-96q-12 0 -17 7t-2 16l119 444h-358l-117 -444q-8 -23 -29 -23zM948 948h-356l-94 -356h358z" />
    <glyph glyph-name="dollar" unicode="$" horiz-adv-x="1263" vert-adv-y="2437" 
d="M670 -252h-70q-22 0 -22 23v209q-96 6 -180 29t-141.5 55t-90 55.5t-55.5 46.5q-6 6 -7.5 16.5t2.5 18.5l62 100q5 8 12 8q2 0 6.5 -1t6.5 -1l4 -4q165 -144 381 -166v559q-239 61 -348 174.5t-115 286.5q-3 172 127 292.5t336 137.5v66q0 22 22 22h70q9 0 15.5 -6.5
t6.5 -15.5v-66q81 -5 152 -22.5t119 -42t77 -44.5t47 -38q14 -14 7 -39l-52 -105q-5 -10 -14 -10q-8 0 -12 4q-135 121 -324 137v-577q246 -66 355.5 -161t115.5 -251q6 -202 -114.5 -325.5t-356.5 -132.5v-209q0 -23 -22 -23zM578 883v544q-133 -12 -218.5 -85.5
t-85.5 -176.5t63.5 -165t240.5 -117zM692 668v-533q147 9 229.5 84.5t82.5 194.5q0 92 -73.5 149.5t-238.5 104.5z" />
    <glyph glyph-name="percent" unicode="%" horiz-adv-x="1675" vert-adv-y="2437" 
d="M520 0h-123q-23 0 -6 25l897 1591q6 16 23 16h121q21 0 12 -24l-899 -1594q-14 -14 -25 -14zM434 895q-157 0 -252.5 94.5t-95.5 251.5t95.5 252.5t252.5 95.5t251.5 -95.5t94.5 -252.5t-94.5 -251.5t-251.5 -94.5zM434 1049q87 0 140.5 52.5t50.5 141.5q3 85 -50 139
t-141 54q-87 0 -139.5 -53.5t-54.5 -139.5q2 -88 54.5 -141t139.5 -53zM1356 -23q-156 0 -252 96.5t-96 252.5q0 155 96.5 251.5t251.5 96.5q156 0 252 -96t96 -252q0 -157 -95.5 -253t-252.5 -96zM1354 131q88 0 141 53t53 142q0 87 -52.5 139.5t-141.5 52.5
q-85 0 -138 -53t-53 -139q0 -89 53 -142t138 -53z" />
    <glyph glyph-name="ampersand" unicode="&#x26;" horiz-adv-x="1507" vert-adv-y="2437" 
d="M676 -35q-273 0 -440.5 143.5t-167.5 364.5q0 151 74 258t210 160q-146 157 -149 321q1 170 107 273.5t278 103.5q110 0 192.5 -44t124.5 -128q10 -21 -10 -31l-96 -67l-11 -6q-12 0 -20 12q-26 48 -75 81t-118 34q-95 0 -155 -62.5t-60 -169.5q0 -40 17 -83.5t37 -75.5
t62.5 -79t66 -69.5t75.5 -71.5q11 -11 17 -16l452 -424q98 188 101 445q0 22 22 22h113q9 0 16 -6.5t7 -15.5q-3 -327 -138 -560l269 -249q12 -11 9 -18t-18 -7h-143q-13 0 -41 14l-158 148q-181 -197 -450 -197zM674 117q201 0 334 155l-553 516q-106 -37 -167 -121
t-61 -194q0 -153 125 -254.5t322 -101.5z" />
    <glyph glyph-name="quotesingle" unicode="'" horiz-adv-x="473" vert-adv-y="2437" 
d="M145 997q-9 0 -20 11l-37 45q-11 18 4 30q151 117 166 275q-58 0 -92.5 34.5t-34.5 90.5q0 59 34 95t91 36q42 0 72.5 -21.5t44.5 -58.5q25 -63 15.5 -143t-39.5 -155.5t-81 -139.5t-110 -95q-8 -4 -13 -4z" />
    <glyph glyph-name="parenleft" unicode="(" horiz-adv-x="651" vert-adv-y="2437" 
d="M502 -362h-107q-10 0 -21 6t-14 14q-23 36 -48 82.5t-65 141.5t-70 195t-52.5 241t-22.5 282q0 136 22.5 275t52.5 241t70 199t65.5 146.5t47.5 86.5q3 9 13.5 15t21.5 6h107q10 0 13 -6t-3 -15q-24 -41 -47.5 -87t-65 -145.5t-71 -200t-51.5 -240t-21 -275.5
q-2 -141 20 -282.5t51.5 -241t70.5 -196t65 -140.5t47 -82q7 -9 5 -14.5t-13 -5.5z" />
    <glyph glyph-name="parenright" unicode=")" horiz-adv-x="651" vert-adv-y="2437" 
d="M258 -362h-108q-21 0 -11 20q23 34 49.5 81.5t66.5 141.5t70.5 195t52 242t19.5 282q1 134 -21 272t-52 239.5t-70.5 199t-66 147t-48.5 88.5l-2 4q-6 19 13 19h108q21 0 35 -21q25 -45 46.5 -87t64 -145t71.5 -201.5t52.5 -238.5t23.5 -276q0 -141 -22.5 -282
t-52.5 -241t-70 -195t-65 -141.5t-48 -82.5q-16 -20 -35 -20z" />
    <glyph glyph-name="asterisk" unicode="*" horiz-adv-x="935" vert-adv-y="2437" 
d="M262 743q-9 0 -14 5l-80 75q-18 15 -2 35l196 227l-282 160q-18 12 -8 31l59 94q5 10 19 10q2 0 6 -1t6 -1l246 -168l-17 332q0 23 23 23h110q23 0 23 -23l-15 -332l244 168q2 0 6 1t6 1q14 0 19 -10l61 -94q9 -18 -8 -31l-282 -160l194 -227q16 -20 -2 -35l-80 -75
q-5 -5 -14 -5t-17 11l-188 264l-190 -264q-8 -11 -19 -11z" />
    <glyph glyph-name="plus" unicode="+" horiz-adv-x="1241" vert-adv-y="2437" 
d="M678 166h-115q-22 0 -22 22v398h-391q-10 0 -16.5 6.5t-6.5 15.5v105q0 9 6.5 15.5t16.5 6.5h391v395q0 9 6.5 16t15.5 7h115q10 0 16 -7t6 -16v-395h394q9 0 15.5 -6.5t6.5 -15.5v-105q0 -9 -6.5 -15.5t-15.5 -6.5h-394v-398q0 -22 -22 -22z" />
    <glyph glyph-name="comma" unicode="," horiz-adv-x="518" vert-adv-y="2437" 
d="M168 -362q-12 0 -21 12l-36 45q-11 18 4 33q151 109 166 272q-58 0 -92.5 35.5t-34.5 91.5t34 90.5t91 34.5q87 0 116 -76q25 -64 15.5 -144t-39.5 -155t-81 -139t-110 -96q-8 -4 -12 -4z" />
    <glyph glyph-name="hyphen" unicode="-" horiz-adv-x="897" vert-adv-y="2437" 
d="M748 588h-598q-10 0 -16.5 6.5t-6.5 15.5v105q0 9 6.5 15.5t16.5 6.5h598q22 0 22 -22v-105q0 -22 -22 -22z" />
    <glyph glyph-name="period" unicode="." horiz-adv-x="595" vert-adv-y="2437" 
d="M297 -23q-55 0 -90 35.5t-35 91.5q0 57 34.5 91t90.5 34q57 0 91 -34t34 -91q0 -56 -34.5 -91.5t-90.5 -35.5z" />
    <glyph glyph-name="slash" unicode="/" horiz-adv-x="847" vert-adv-y="2437" 
d="M123 0h-109q-9 0 -12 6t0 14l690 1594q3 7 12.5 12.5t18.5 5.5h106q22 0 15 -18l-688 -1594q-12 -20 -33 -20z" />
    <glyph glyph-name="zero" unicode="0" horiz-adv-x="1824" vert-adv-y="2437" 
d="M911 -2q-203 0 -361.5 98t-246.5 274.5t-88 401.5q0 170 51.5 314.5t142.5 246t220.5 158.5t281.5 57q203 0 363 -98t250 -275.5t90 -402.5t-90 -401.5t-250 -274.5t-363 -98zM911 123q155 0 278 83t192 231.5t69 334.5q0 286 -151 469.5t-388 183.5q-155 0 -277 -83
t-190.5 -232t-68.5 -338q0 -187 68.5 -335.5t190.5 -231t277 -82.5z" />
    <glyph glyph-name="one" unicode="1" horiz-adv-x="872" vert-adv-y="2437" 
d="M561 27h-86q-13 0 -24 10t-11 22v1284l-278 -108q-20 -9 -36.5 3.5t-16.5 35.5v49q0 20 20 27l438 170q2 2 11 2h6q4 0 8 -10.5t4 -22.5v-1430q0 -12 -11.5 -22t-23.5 -10z" />
    <glyph glyph-name="two" unicode="2" horiz-adv-x="1456" vert-adv-y="2437" 
d="M1210 27h-981q-12 0 -22 10t-10 22v66q-5 5 28 35l637 588q101 96 145 166.5t44 168.5q0 157 -100.5 249.5t-270.5 92.5q-113 0 -210.5 -43.5t-166.5 -124.5q-9 -11 -22.5 -13t-24.5 7l-55 39q-15 10 -17 24.5t9 26.5q86 99 212.5 153t280.5 54q238 0 382 -129.5
t144 -343.5q0 -117 -50 -208.5t-179 -213.5l-549 -506h776q13 0 23 -10t10 -24v-54q0 -12 -10 -22t-23 -10z" />
    <glyph glyph-name="three" unicode="3" horiz-adv-x="1540" vert-adv-y="2437" 
d="M696 -2q-152 0 -279.5 40t-215.5 112q-13 12 -12.5 27t12.5 26l47 45q24 17 47 -2q135 -123 399 -123q216 0 342.5 82.5t126.5 224.5q0 135 -123 214t-331 79h-211q-14 0 -24.5 10.5t-10.5 24.5v55q0 15 10.5 25t24.5 10h202q194 0 306 75t112 207q0 136 -115.5 215.5
t-312.5 79.5q-248 0 -366 -118q-23 -23 -45 -4l-54 38q-14 9 -14.5 25.5t12.5 28.5q75 74 195 113.5t272 39.5q261 0 424.5 -115t163.5 -298q0 -114 -69 -201.5t-189 -128.5v-27q145 -47 225 -139t80 -213q0 -189 -175.5 -308.5t-453.5 -119.5z" />
    <glyph glyph-name="four" unicode="4" horiz-adv-x="1513" vert-adv-y="2437" 
d="M1044 27h-81q-12 0 -22.5 10t-10.5 22v314h-764q-14 0 -24.5 10.5t-10.5 24.5v65q0 8 4 12l604 1022q6 15 27 15h82q26 0 38 -22t-3 -44l-574 -962h621v479q0 13 10.5 23t22.5 10h81q14 0 23.5 -10t9.5 -23v-479h260q13 0 24 -11t11 -24v-51q0 -14 -11 -24.5t-24 -10.5
h-260v-314q0 -12 -10 -22t-23 -10z" />
    <glyph glyph-name="five" unicode="5" horiz-adv-x="1515" vert-adv-y="2437" 
d="M717 -2q-166 0 -300 53t-210 150q-11 21 6 41l47 45q23 26 53 -4q139 -160 402 -160q202 0 324 92.5t122 247.5q0 153 -122 244.5t-322 91.5q-163 0 -275 -56q-19 -10 -34 5l-91 81q-8 12 -8 23l39 639q0 12 10.5 21.5t24.5 9.5h815q13 0 24 -10.5t11 -22.5v-55
q0 -13 -10.5 -23t-24.5 -10h-704l-27 -516q96 41 250 41q268 0 436 -128.5t168 -334.5t-168 -335.5t-436 -129.5z" />
    <glyph glyph-name="six" unicode="6" horiz-adv-x="1589" vert-adv-y="2437" 
d="M807 -2q-267 0 -430.5 139.5t-163.5 368.5q0 123 78 233l520 768q3 15 25 15h82q28 0 39.5 -22.5t-3.5 -45.5l-331 -502q90 35 213 35q158 0 288 -63t203.5 -172t73.5 -240q0 -232 -163 -373t-431 -141zM807 123q200 0 317 103.5t117 281.5q0 150 -118.5 241t-311.5 91
q-194 0 -317 -92.5t-123 -241.5q0 -176 118.5 -279.5t317.5 -103.5z" />
    <glyph glyph-name="seven" unicode="7" horiz-adv-x="1302" vert-adv-y="2437" 
d="M426 27h-78q-25 0 -37 20t-2 43l727 1311h-907q-14 0 -24.5 10t-10.5 23v55q0 12 11 22.5t24 10.5h1049q13 0 23.5 -10.5t10.5 -22.5v-68q0 -12 -2 -16l-757 -1362q-8 -16 -27 -16z" />
    <glyph glyph-name="eight" unicode="8" horiz-adv-x="1683" vert-adv-y="2437" 
d="M846 -2q-184 0 -328 54t-223.5 152t-79.5 224q0 257 315 350l37 13l-37 14q-268 80 -268 330q0 184 160 298.5t418 114.5q261 0 422 -115t161 -300q0 -233 -237 -320l-60 -25l60 -20q140 -47 212 -134t72 -208q0 -189 -174.5 -308.5t-449.5 -119.5zM840 850
q201 0 312.5 73.5t111.5 206.5q0 136 -114.5 215.5t-309.5 79.5t-307.5 -78t-112.5 -214q0 -135 110.5 -209t309.5 -74zM846 123q214 0 339.5 82.5t125.5 224.5q0 137 -124 215t-341 78q-220 0 -345.5 -78.5t-125.5 -216.5q0 -141 127 -223t344 -82z" />
    <glyph glyph-name="nine" unicode="9" horiz-adv-x="1585" vert-adv-y="2437" 
d="M754 -2h-84q-28 0 -40 22.5t3 45.5l332 501q-95 -37 -211 -37q-159 0 -290 63.5t-205.5 173t-74.5 239.5q0 232 163.5 374t432.5 142q268 0 432 -139.5t164 -366.5q0 -121 -78 -236l-520 -768q-8 -14 -24 -14zM778 678q194 0 316.5 93t122.5 243q0 175 -119.5 280
t-317.5 105q-201 0 -317.5 -104t-116.5 -285q0 -148 119.5 -240t312.5 -92z" />
    <glyph glyph-name="colon" unicode=":" horiz-adv-x="538" vert-adv-y="2437" 
d="M270 852q-64 0 -102.5 38t-38.5 101q0 62 38.5 99.5t102.5 37.5q63 0 101.5 -37.5t38.5 -99.5q0 -63 -38.5 -101t-101.5 -38zM270 -20q-64 0 -102.5 38t-38.5 103q0 60 38.5 97.5t102.5 37.5q63 0 101.5 -37.5t38.5 -97.5q0 -64 -38.5 -102.5t-101.5 -38.5z" />
    <glyph glyph-name="semicolon" unicode=";" horiz-adv-x="577" vert-adv-y="2437" 
d="M295 852q-63 0 -102 38t-39 101q0 61 39 99t102 38q64 0 101.5 -37.5t37.5 -99.5q0 -63 -37.5 -101t-101.5 -38zM176 -362q-14 0 -20 12l-35 45q-16 16 4 33q142 103 166 272q-59 0 -95 35.5t-36 91.5t35 90.5t92 34.5q41 0 72.5 -20.5t43.5 -55.5q27 -92 7 -195.5
t-81.5 -200t-138.5 -138.5q-12 -4 -14 -4z" />
    <glyph glyph-name="less" unicode="&#x3c;" horiz-adv-x="1218" vert-adv-y="2437" 
d="M1120 127q-1 0 -3.5 1t-4.5 1l-1006 440q-20 13 -20 31v145q0 23 20 33l1006 441q4 2 8 2q13 0 13 -15v-123q0 -9 -6.5 -19t-14.5 -13l-887 -377l887 -379q8 -2 14.5 -11.5t6.5 -19.5v-121q0 -16 -13 -16z" />
    <glyph glyph-name="equal" unicode="=" horiz-adv-x="1185" vert-adv-y="2437" 
d="M991 788h-796q-10 0 -16.5 7t-6.5 18v100q0 23 23 23h796q9 0 16 -6.5t7 -16.5v-100q0 -10 -7 -17.5t-16 -7.5zM991 451h-796q-23 0 -23 22v102q0 9 6.5 16t16.5 7h796q9 0 16 -7t7 -16v-102q0 -10 -7 -16t-16 -6z" />
    <glyph glyph-name="greater" unicode="&#x3e;" horiz-adv-x="1218" vert-adv-y="2437" 
d="M102 127h-4q-12 0 -12 16v121q0 11 5.5 20.5t14.5 10.5l887 379l-887 377q-20 7 -20 32v123q0 15 12 15q6 0 8 -2l1006 -441q21 -13 21 -33v-145q0 -14 -21 -31l-1001 -438q-1 -1 -4.5 -2t-4.5 -2z" />
    <glyph glyph-name="question" unicode="?" horiz-adv-x="1083" vert-adv-y="2437" 
d="M541 418h-127q-10 0 -16.5 6.5t-6.5 15.5q3 75 27 139t59.5 109.5t77.5 87t83.5 81t75.5 82.5t54.5 100.5t19.5 125.5q0 124 -73.5 199.5t-192.5 75.5q-93 0 -172 -43.5t-137 -114.5q-8 -8 -16 -8q-6 0 -15 6l-73 80q-14 21 0 35q161 194 411 194q191 0 309.5 -116
t118.5 -308q0 -80 -20.5 -148.5t-53.5 -117t-72.5 -92t-80 -83t-75 -80t-57.5 -93t-26 -111.5q-4 -22 -22 -22zM485 -23q-51 0 -81.5 32t-30.5 83t30.5 81t81.5 30t83 -30t32 -81t-32 -83t-83 -32z" />
    <glyph glyph-name="at" unicode="@" horiz-adv-x="2048" vert-adv-y="2437" 
d="M1071 -188q-280 0 -494 110.5t-331 312t-117 463.5q0 198 68 364.5t190.5 282t298 180t385.5 64.5q248 0 440.5 -103.5t300 -293.5t107.5 -438q0 -196 -98 -319.5t-260 -129.5q-81 0 -145 36t-103 99q-47 -86 -129.5 -133t-196.5 -47q-181 0 -291 120.5t-112 315.5
q0 195 111 314.5t292 119.5q192 0 299 -139l25 80l4 4q9 12 16 12h78q5 0 9.5 -4t4.5 -10v-461q-6 -78 37.5 -125t120.5 -47q89 0 143 86.5t54 227.5q0 148 -54.5 276.5t-148.5 219t-225 142.5t-279 52q-235 0 -416.5 -93.5t-281 -262.5t-99.5 -388q0 -217 100 -385
t281.5 -260t415.5 -92q138 0 257.5 48.5t209.5 133.5q4 4 4 5q8 4 14 4q8 0 15 -7l80 -84q7 -6 7 -15t-7 -15q-227 -221 -580 -221zM999 410q124 0 195.5 79t71.5 205q0 134 -72.5 210.5t-194.5 76.5t-195 -78.5t-73 -208.5q0 -129 72.5 -206.5t195.5 -77.5z" />
    <glyph glyph-name="A" unicode="A" horiz-adv-x="1456" vert-adv-y="2437" 
d="M150 0h-115q-12 0 -17 7t0 18l623 1521q6 21 29 21h118q23 0 29 -21l621 -1521q6 -11 1 -18t-16 -7h-118q-14 0 -23 14l-199 492h-710l-199 -492q-6 -14 -24 -14zM1026 647l-295 733l-299 -733h594z" />
    <glyph glyph-name="B" unicode="B" horiz-adv-x="1335" vert-adv-y="2437" 
d="M735 0h-518q-10 0 -16 7t-6 16v1523q0 23 24 23h418q237 0 371 -102.5t135 -286.5q0 -100 -51 -180t-146 -130q138 -52 215 -156t78 -247q3 -211 -134 -339t-370 -128zM643 1425h-291v-514h314q161 0 239 72.5t78 194.5q0 117 -87 182t-253 65zM739 795l-387 -2v-650
l367 2q167 0 264 87t94 235q0 143 -90.5 235.5t-247.5 92.5z" />
    <glyph glyph-name="C" unicode="C" horiz-adv-x="1546" vert-adv-y="2437" 
d="M897 -23q-177 0 -326.5 59t-253 164.5t-161.5 255.5t-58 328q0 156 45 289t121.5 227t179 160t217.5 97.5t236 31.5q334 0 561 -211q8 -6 8 -14t-8 -14l-78 -72q-4 -8 -14 -8q-8 0 -16 8q-183 158 -453 158q-286 0 -463.5 -180.5t-177.5 -473.5q0 -292 176 -470.5
t465 -178.5q271 0 449 158l8 4h10q14 0 16 -4l80 -74q16 -17 0 -33q-111 -103 -256.5 -155t-306.5 -52z" />
    <glyph glyph-name="D" unicode="D" horiz-adv-x="1519" vert-adv-y="2437" 
d="M621 0h-404q-10 0 -16 7t-6 16v1523q0 23 22 23h404q364 0 583 -213t219 -572q0 -360 -219 -572t-583 -212zM621 1425h-269v-1280h269q296 0 469.5 171t173.5 468t-174.5 469t-468.5 172z" />
    <glyph glyph-name="E" unicode="E" horiz-adv-x="1163" vert-adv-y="2437" 
d="M1032 1425h-680v-553h629q10 0 16.5 -6.5t6.5 -15.5v-100q0 -9 -6.5 -16t-16.5 -7h-629v-582h701q22 0 22 -22v-103q0 -8 -5.5 -14t-14.5 -6h-838q-10 0 -16 7t-6 16v1523q0 23 22 23h815q23 0 23 -23v-98q0 -23 -23 -23z" />
    <glyph glyph-name="F" unicode="F" horiz-adv-x="1118" vert-adv-y="2437" 
d="M330 0h-113q-10 0 -16 7t-6 16v1523q0 23 24 23h813q23 0 23 -23v-98q0 -23 -25 -23h-678v-553h629q10 0 16.5 -6.5t6.5 -15.5v-100q0 -9 -6.5 -16t-16.5 -7h-629v-704q0 -9 -6.5 -16t-15.5 -7z" />
    <glyph glyph-name="G" unicode="G" horiz-adv-x="1697" vert-adv-y="2437" 
d="M870 -20q-347 -1 -559.5 220.5t-212.5 583.5q0 238 99.5 421t282.5 283.5t423 100.5q336 0 555 -209q8 -6 8 -13.5t-8 -12.5l-80 -76q-4 -8 -12 -8t-16 8q-175 158 -447 158q-290 0 -468.5 -179.5t-178.5 -472.5q0 -292 169 -471.5t445 -179.5q253 0 399 138t179 395
h-555q-9 0 -16 6t-7 16v100q0 9 7 16t16 7h688q8 0 14.5 -7t6.5 -16q-6 -384 -196.5 -596.5t-535.5 -211.5z" />
    <glyph glyph-name="H" unicode="H" horiz-adv-x="1515" vert-adv-y="2437" 
d="M332 0h-115q-10 0 -16 7t-6 16v1523q0 23 22 23h115q20 0 20 -21v-676h809v674q0 23 23 23h116q8 0 14.5 -6t6.5 -15v-1525q0 -9 -7 -16t-16 -7h-114q-23 0 -23 23v704h-809v-704q0 -9 -6 -16t-14 -7z" />
    <glyph glyph-name="I" unicode="I" horiz-adv-x="546" vert-adv-y="2437" 
d="M332 0h-115q-10 0 -16 6t-6 14v1526q0 23 20 23h115q9 0 15.5 -6.5t6.5 -16.5v-1526q0 -8 -6 -14t-14 -6z" />
    <glyph glyph-name="J" unicode="J" horiz-adv-x="901" vert-adv-y="2437" 
d="M152 -20q-49 0 -72 2q-17 3 -26 17.5t-5 31.5l29 82q6 22 33 22q14 -2 41 -2q186 0 290.5 120t104.5 359v934q0 23 22 23h117q9 0 16 -6.5t7 -16.5v-934q0 -308 -150 -470t-407 -162z" />
    <glyph glyph-name="K" unicode="K" horiz-adv-x="1263" vert-adv-y="2437" 
d="M332 0h-115q-10 0 -16 6t-6 14v1526q0 23 20 23h115q9 0 15.5 -6.5t6.5 -16.5v-739l635 749q17 13 27 13h151q14 0 16.5 -7.5t-7.5 -17.5l-646 -760l717 -757q12 -11 9.5 -19t-19.5 -8h-164q-20 0 -29 12l-690 750v-742q0 -8 -6 -14t-14 -6z" />
    <glyph glyph-name="L" unicode="L" horiz-adv-x="1001" vert-adv-y="2437" 
d="M918 0h-701q-10 0 -16 6t-6 14v1526q0 23 20 23h115q9 0 15.5 -6.5t6.5 -16.5v-1401h563q10 0 16.5 -6.5t6.5 -15.5v-103q0 -8 -5.5 -14t-14.5 -6z" />
    <glyph glyph-name="M" unicode="M" horiz-adv-x="1921" vert-adv-y="2437" 
d="M330 0h-103q-32 0 -32 35v1501q0 33 32 33h113q40 0 49 -19l572 -1347l573 1349q6 17 27 17h145q9 0 16 -6.5t7 -16.5v-1523q0 -9 -7 -16t-16 -7h-115q-9 0 -15.5 7t-6.5 16v1228l-520 -1233q-6 -15 -25 -18h-123q-15 0 -27 12q-4 4 -4 6l-518 1229v-1224q0 -9 -6.5 -16
t-15.5 -7z" />
    <glyph glyph-name="N" unicode="N" horiz-adv-x="1607" vert-adv-y="2437" 
d="M330 0h-113q-10 0 -16 7t-6 16v1523q0 23 22 23h145q15 0 25 -17l868 -1312v1306q0 23 23 23h115q8 0 14 -6.5t6 -16.5v-1523q0 -9 -6.5 -16t-15.5 -7h-144q-6 0 -24 12l-871 1315v-1304q0 -9 -6.5 -16t-15.5 -7z" />
    <glyph glyph-name="O" unicode="O" horiz-adv-x="1802" vert-adv-y="2437" 
d="M98 784q0 238 99.5 421t282.5 283.5t423 100.5q239 0 422 -100.5t283 -283.5t100 -421q0 -362 -221.5 -583t-583.5 -221q-363 0 -584 221t-221 583zM256 784q0 -293 178 -472t469 -179q289 0 466 179t177 472t-177 472.5t-466 179.5q-290 0 -468.5 -179.5t-178.5 -472.5z
" />
    <glyph glyph-name="P" unicode="P" horiz-adv-x="1234" vert-adv-y="2437" 
d="M332 0h-115q-10 0 -16 7t-6 16v1523q0 23 24 23h490q235 0 368.5 -117.5t134.5 -329.5q-1 -213 -134 -329.5t-369 -116.5h-355v-653q0 -9 -6 -16t-16 -7zM713 1425h-359v-604h359q166 0 253 78.5t87 220.5q0 144 -87 224.5t-253 80.5z" />
    <glyph glyph-name="Q" unicode="Q" horiz-adv-x="1802" vert-adv-y="2437" 
d="M1888 -115l56 -67q12 -13 10 -29t-17 -25q-11 -7 -37 -18t-32 -14q-105 -42 -198 -44t-177.5 36t-161 110.5t-153.5 183.5q-128 -38 -275 -38q-363 0 -584 221t-221 583q0 238 99.5 421t282.5 283.5t423 100.5q239 0 422 -100.5t283 -283.5t100 -421
q0 -240 -100.5 -422.5t-282.5 -281.5q114 -159 224 -206.5t261 1.5q5 2 11 4.5t13.5 6t12.5 5.5q24 10 41 -6zM256 784q0 -293 178 -472t469 -179q93 0 187 23l-275 436q-3 8 0 18t12 13l109 43q19 6 29 -13l272 -440q146 80 227.5 228.5t81.5 342.5q0 293 -177 472.5
t-466 179.5q-290 0 -468.5 -179.5t-178.5 -472.5z" />
    <glyph glyph-name="R" unicode="R" horiz-adv-x="1251" vert-adv-y="2437" 
d="M748 680l419 -653q9 -12 5.5 -19.5t-17.5 -7.5h-149q-17 0 -23 12l-403 664h-226v-653q0 -9 -6 -16t-16 -7h-115q-10 0 -16 7t-6 16v1523q0 23 22 23h447q236 0 368.5 -117.5t132.5 -329.5q0 -190 -109.5 -304.5t-307.5 -137.5zM354 1425v-604h314q166 0 253 78.5
t87 220.5q0 144 -87 224.5t-253 80.5h-314z" />
    <glyph glyph-name="S" unicode="S" horiz-adv-x="1263" vert-adv-y="2437" 
d="M641 -23q-111 1 -207.5 23t-161.5 57t-100.5 60.5t-60.5 50.5q-6 5 -7.5 15t2.5 18l60 94q6 12 14 12q11 0 17 -6h4q26 -24 62 -48.5t92.5 -54t134.5 -47.5t161 -18q165 0 259 77t94 204q0 103 -93 164t-309 112q-251 60 -366 175t-121 292q-3 185 148 309t380 123
q92 -1 172.5 -18t134.5 -44t84.5 -47.5t52.5 -41.5q16 -10 9 -35l-52 -103q-5 -12 -18 -12q-8 0 -12 4q-4 0 -6 4q-23 20 -52.5 39.5t-77.5 44t-112.5 39.5t-134.5 15q-152 0 -254.5 -77t-102.5 -192q0 -79 32.5 -130t120.5 -95.5t253 -87.5q252 -65 364.5 -161t118.5 -253
q6 -215 -127.5 -338.5t-394.5 -122.5z" />
    <glyph glyph-name="T" unicode="T" horiz-adv-x="1206" vert-adv-y="2437" 
d="M659 0h-114q-9 0 -15 6t-6 14v1405h-481q-20 0 -20 21v100q0 10 6 16.5t14 6.5h1120q9 0 16 -6.5t7 -16.5v-98q0 -10 -7 -16.5t-16 -6.5h-481v-1405q0 -8 -6.5 -14t-16.5 -6z" />
    <glyph glyph-name="U" unicode="U" horiz-adv-x="1505" vert-adv-y="2437" 
d="M756 -20q-260 0 -410.5 163t-150.5 471v932q0 24 22 21h115q8 0 14 -6t6 -15v-934q0 -237 108.5 -358t295.5 -121q186 0 290.5 120t104.5 359v934q0 10 7 16.5t16 6.5h114q23 0 23 -23v-934q0 -308 -149 -470t-406 -162z" />
    <glyph glyph-name="V" unicode="V" horiz-adv-x="1445" vert-adv-y="2437" 
d="M780 0h-116q-23 0 -31 20l-621 1520q-6 27 21 27h129q19 0 26 -17l535 -1360l532 1360q7 17 25 17h133q28 0 19 -27l-619 -1520q-10 -20 -33 -20z" />
    <glyph glyph-name="W" unicode="W" horiz-adv-x="1943" vert-adv-y="2437" 
d="M592 0h-94q-20 0 -27 18l-459 1528q-7 23 15 23h120q9 0 17.5 -6t9.5 -15l369 -1286l338 1286q2 9 8.5 15t15.5 6h125q18 0 29 -21l340 -1296l373 1300q3 17 18 17h125q23 0 16 -23l-461 -1528q-7 -18 -24 -18h-103q-20 0 -24 18l-348 1348l-353 -1348q0 -7 -9 -12.5
t-17 -5.5z" />
    <glyph glyph-name="X" unicode="X" horiz-adv-x="1290" vert-adv-y="2437" 
d="M174 0h-147q-12 0 -16 7t3 16l539 757l-520 766q-16 23 12 23h156q21 0 24 -13l422 -641l440 637q12 15 31 15h146q27 0 14 -23l-543 -760l522 -761q8 -9 4.5 -16t-16.5 -7h-151q-20 0 -29 12l-422 635l-442 -635q-9 -12 -27 -12z" />
    <glyph glyph-name="Y" unicode="Y" horiz-adv-x="1267" vert-adv-y="2437" 
d="M692 0h-114q-10 0 -16.5 7t-6.5 16l-2 602l-539 915q-7 12 -1.5 19.5t20.5 7.5h133q22 0 31 -19l438 -778l436 778q4 8 14.5 13.5t18.5 5.5h133q29 0 16 -27l-538 -915v-602q0 -9 -7 -16t-16 -7z" />
    <glyph glyph-name="Z" unicode="Z" horiz-adv-x="1257" vert-adv-y="2437" 
d="M1174 0h-1092q-41 0 -23 35l848 1390h-805q-22 0 -22 21v100q0 23 22 23h1041q19 0 24 -11t-4 -28l-848 -1385h859q22 0 22 -22v-100q0 -9 -6 -16t-16 -7z" />
    <glyph glyph-name="bracketleft" unicode="[" horiz-adv-x="749" vert-adv-y="2437" 
d="M600 -365h-405q-23 0 -23 23v1888q0 23 23 23h405q9 0 16 -6.5t7 -16.5v-88q0 -9 -7 -15.5t-16 -6.5h-281v-1665h281q9 0 16 -7t7 -16v-90q0 -23 -23 -23z" />
    <glyph glyph-name="backslash" unicode="\" horiz-adv-x="827" vert-adv-y="2437" 
d="M823 0h-104q-18 0 -27 14l-688 1592q-5 11 0.5 18.5t18.5 7.5h106q19 0 25 -16l686 -1589q6 -11 0.5 -19t-17.5 -8z" />
    <glyph glyph-name="bracketright" unicode="]" horiz-adv-x="749" vert-adv-y="2437" 
d="M555 -365h-403q-10 0 -16.5 7t-6.5 18v90q0 10 6.5 16.5t18.5 6.5h276v1663h-278q-10 0 -16.5 6.5t-6.5 15.5v88q0 23 23 23h403q23 0 23 -23v-1888q0 -23 -23 -23z" />
    <glyph glyph-name="asciicircum" unicode="^" horiz-adv-x="1308" vert-adv-y="2437" 
d="M270 586h-118q-13 0 -18.5 7.5t-0.5 18.5l420 934q3 21 31 21h141q27 0 33 -21l418 -934q6 -10 0.5 -18t-19.5 -8h-119q-17 0 -24 14l-359 827l-360 -827q-3 -14 -25 -14z" />
    <glyph glyph-name="underscore" unicode="_" horiz-adv-x="1312" vert-adv-y="2437" 
d="M1163 -303h-1011q-23 0 -23 22v84q0 23 23 23h1011q9 0 16 -6.5t7 -16.5v-84q0 -10 -7 -16t-16 -6z" />
    <glyph glyph-name="grave" unicode="`" horiz-adv-x="559" vert-adv-y="1894" 
d="M240 1417h-125l184 -192h135z" />
    <glyph glyph-name="a" unicode="a" vert-adv-y="2437" 
d="M592 -23q-226 0 -366 146t-140 379t140 377.5t366 144.5q136 0 239.5 -54t165.5 -155v154q0 12 10.5 22t22.5 10h78q13 0 24 -10t11 -22v-934q0 -15 -10.5 -25t-24.5 -10h-80q-14 0 -23.5 10t-9.5 25v153q-63 -101 -165.5 -156t-237.5 -55zM606 123q170 0 276.5 103.5
t112.5 275.5q-3 172 -110 276.5t-279 104.5q-169 0 -274 -106t-105 -275q0 -170 105 -274.5t274 -104.5z" />
    <glyph glyph-name="b" unicode="b" vert-adv-y="2437" 
d="M713 -23q-134 0 -237.5 55.5t-166.5 155.5v-153q0 -15 -10 -25t-25 -10h-77q-14 0 -24.5 10t-10.5 25v1501q0 12 11 22.5t24 10.5h75q14 0 24.5 -10.5t10.5 -22.5v-721q62 101 166.5 155t239.5 54q227 0 366.5 -144t139.5 -378t-139.5 -379.5t-366.5 -145.5zM698 123
q170 0 273.5 104.5t103.5 274.5t-104 275.5t-273 105.5q-170 0 -277.5 -104.5t-111.5 -276.5q6 -171 113 -275t276 -104z" />
    <glyph glyph-name="c" unicode="c" horiz-adv-x="1128" vert-adv-y="2437" 
d="M946 295q11 0 15 -4l75 -68q9 -4 9.5 -13.5t-5.5 -16.5q-67 -102 -179.5 -159t-254.5 -57q-233 0 -376.5 145.5t-143.5 379.5q0 128 45 230.5t120 165.5t168 96t193 32q130 0 244.5 -55.5t183.5 -159.5q6 -9 5.5 -19t-9.5 -14l-75 -65q-8 -8 -15 -8q-13 0 -20 14
q-51 75 -134 118.5t-186 43.5q-169 0 -274 -105t-105 -274q0 -170 105 -274.5t274 -104.5q104 0 187 42t133 118q5 12 20 12z" />
    <glyph glyph-name="d" unicode="d" vert-adv-y="2437" 
d="M596 -25q-227 0 -367.5 145.5t-140.5 379.5t140 378t368 144q135 0 238 -54t165 -155v721q0 12 10.5 22.5t22.5 10.5h78q13 0 23 -10.5t10 -22.5v-1501q0 -15 -9.5 -25t-23.5 -10h-80q-12 0 -22.5 10t-10.5 25v151q-63 -99 -165 -154t-236 -55zM608 121q171 0 278 104
t111 275q-3 170 -111 275.5t-278 105.5q-169 0 -274 -106t-105 -275q0 -170 105 -274.5t274 -104.5z" />
    <glyph glyph-name="e" unicode="e" horiz-adv-x="1212" vert-adv-y="2437" 
d="M928 236q10 10 18 10q9 0 17 -8l73 -68q19 -16 2 -33q-69 -77 -174 -118.5t-233 -41.5q-244 0 -394.5 145.5t-150.5 379.5q0 233 143.5 377.5t376.5 144.5q246 0 384.5 -150t137.5 -415q0 -10 -6.5 -16.5t-15.5 -6.5h-873q22 -142 129 -227.5t269 -85.5q193 0 297 113z
M606 883q-151 0 -252 -86.5t-121 -229.5h746q-20 144 -120.5 230t-252.5 86z" />
    <glyph glyph-name="f" unicode="f" horiz-adv-x="673" vert-adv-y="2437" 
d="M330 0h-101q-9 0 -15.5 7t-6.5 16l-2 849h-170q-9 0 -16 7t-7 16v84q0 10 7 16t16 6h170v287q-1 171 77.5 271t211.5 100q76 0 136 -22.5t93 -49.5q9 -3 11 -13.5t-3 -17.5l-55 -83l-4 -5q-5 -8 -15 -8q-9 0 -12 6q-79 47 -147 47q-66 0 -106 -59t-40 -176v-277h256
q23 0 23 -22v-84q0 -9 -6.5 -16t-16.5 -7h-256v-849q0 -9 -6.5 -16t-15.5 -7z" />
    <glyph glyph-name="g" unicode="g" vert-adv-y="2437" 
d="M608 -535q-220 3 -391 103q-21 10 -10 35l51 88q8 12 14 12q3 0 15 -6q65 -44 141 -64.5t180 -25.5q182 0 285 97.5t104 270.5l-2 213q-63 -101 -165.5 -156t-237.5 -55q-226 0 -366 146t-140 379t140 377.5t366 144.5q136 0 239.5 -54t165.5 -155v154q0 12 10.5 22
t22.5 10h78q13 0 24 -10t11 -22v-981q0 -237 -148.5 -380t-386.5 -143zM606 123q170 0 276.5 103.5t112.5 275.5q-3 172 -110 276.5t-279 104.5q-169 0 -274 -106t-105 -275q0 -170 105 -274.5t274 -104.5z" />
    <glyph glyph-name="h" unicode="h" horiz-adv-x="1228" vert-adv-y="2437" 
d="M287 0h-103q-9 0 -15.5 6t-6.5 14l-4 1516q0 15 10 24t25 9h75q12 0 22.5 -10.5t10.5 -22.5l4 -733q110 221 363 221q188 0 295.5 -110.5t107.5 -335.5v-558q0 -8 -6.5 -14t-15.5 -6h-103q-22 0 -22 20v558q0 305 -273 305q-144 0 -240 -117t-102 -283v-460q0 -9 -6 -16
t-16 -7z" />
    <glyph glyph-name="i" unicode="i" horiz-adv-x="405" vert-adv-y="2437" 
d="M270 0h-100q-10 0 -16.5 6t-6.5 14v961q0 20 21 20h102q9 0 16 -5.5t7 -14.5v-961q0 -8 -6.5 -14t-16.5 -6z" />
    <glyph glyph-name="j" unicode="j" horiz-adv-x="542" vert-adv-y="2437" 
d="M295 1274q-51 0 -83 30.5t-32 81.5t32 82t83 31q52 0 82.5 -31t30.5 -82t-30.5 -81.5t-82.5 -30.5zM82 -539q-116 0 -232 72q-14 11 -4 31l54 84q10 10 18 10q10 0 16 -6q82 -45 146 -45q65 0 104 59t39 176v1137q0 22 25 22h98q23 0 23 -22l2 -1149q1 -169 -77.5 -269
t-211.5 -100z" />
    <glyph glyph-name="k" unicode="k" horiz-adv-x="1024" vert-adv-y="2437" 
d="M287 0h-103q-9 0 -15.5 6t-6.5 14v1594q0 7 6.5 12.5t15.5 5.5h103q20 0 20 -18l2 -1059l432 436q10 10 29 10h154q41 0 10 -28l-447 -430l519 -512q15 -13 11.5 -22t-22.5 -9h-151q-16 0 -31 12l-504 500v-492q0 -8 -6 -14t-16 -6z" />
    <glyph glyph-name="l" unicode="l" horiz-adv-x="487" vert-adv-y="2437" 
d="M295 0h-100q-10 0 -16.5 6t-6.5 14v1528q0 19 21 19h102q22 0 22 -19v-1528q0 -8 -6 -14t-16 -6z" />
    <glyph glyph-name="m" unicode="m" horiz-adv-x="1869" vert-adv-y="2437" 
d="M281 0h-97q-7 0 -12.5 6t-5.5 14v949q0 12 10 22t25 10h63q13 0 23 -10t10 -22v-166q105 221 338 221q255 0 340 -217q58 101 149.5 159t208.5 58q174 0 273.5 -110.5t99.5 -335.5l2 -555q0 -9 -6 -16t-16 -7h-103q-10 0 -16 7t-6 16v555q0 305 -246 305q-122 0 -203 -93
t-102 -249v-521q0 -8 -6 -14t-13 -6h-98q-9 0 -16 7t-7 16v602q-16 258 -249 258q-135 0 -224 -117t-94 -283v-460q0 -9 -6 -16t-16 -7z" />
    <glyph glyph-name="n" unicode="n" horiz-adv-x="1228" vert-adv-y="2437" 
d="M287 0h-103q-9 0 -15.5 6t-6.5 14v949q0 12 11 22t24 10h73q15 0 25 -10t10 -22v-166q110 221 363 221q188 0 295.5 -110.5t107.5 -335.5v-558q0 -8 -6.5 -14t-15.5 -6h-103q-22 0 -22 20v558q0 305 -273 305q-144 0 -240 -117t-102 -283v-460q0 -9 -6 -16t-16 -7z" />
    <glyph glyph-name="o" unicode="o" horiz-adv-x="1212" vert-adv-y="2437" 
d="M86 502q0 233 143.5 377.5t376.5 144.5t377.5 -144.5t144.5 -377.5q0 -234 -144.5 -379.5t-377.5 -145.5t-376.5 145.5t-143.5 379.5zM227 502q0 -170 105 -274.5t274 -104.5q170 0 273.5 104.5t103.5 274.5t-104 275.5t-273 105.5t-274 -106t-105 -275z" />
    <glyph glyph-name="p" unicode="p" vert-adv-y="2437" 
d="M274 -565h-73q-15 0 -25 10t-10 25v1501q0 13 10 23t25 10h78q12 0 23 -10.5t11 -22.5v-156q61 101 163.5 156t238.5 55q227 0 366.5 -145t139.5 -379t-139.5 -378t-366.5 -144q-136 0 -240 54t-166 154v-718q0 -15 -10 -25t-25 -10zM700 123q170 0 273.5 104.5
t103.5 274.5t-104 275.5t-273 105.5t-276.5 -105t-110.5 -276q3 -171 109.5 -275t277.5 -104z" />
    <glyph glyph-name="q" unicode="q" vert-adv-y="2437" 
d="M1110 -565h-78q-12 0 -22.5 10.5t-10.5 24.5v718q-62 -100 -165 -154t-238 -54q-227 0 -367.5 144.5t-140.5 377.5q0 234 140.5 379t367.5 145q134 0 236 -55t165 -156v156q0 12 10.5 22.5t22.5 10.5h80q13 0 23 -10.5t10 -22.5v-1501q0 -15 -9.5 -25t-23.5 -10zM608 123
q171 0 278.5 104t110.5 275q-4 172 -111.5 276.5t-277.5 104.5q-169 0 -274 -106t-105 -275q0 -170 105 -274.5t274 -104.5z" />
    <glyph glyph-name="r" unicode="r" horiz-adv-x="745" vert-adv-y="2437" 
d="M287 0h-103q-9 0 -15.5 6t-6.5 14v949q0 12 11 22t24 10h73q15 0 25 -10t10 -22v-166q110 221 363 221h2q10 0 23.5 -15t8.5 -30l-16 -72q-10 -24 -20 -24h-15q-144 0 -240 -117t-102 -283v-460q0 -9 -6 -16t-16 -7z" />
    <glyph glyph-name="s" unicode="s" horiz-adv-x="892" vert-adv-y="2437" 
d="M436 -20q-204 0 -354 108q-5 5 -6 15t4 20l45 78l4 4q5 8 14 8q7 0 13 -6q131 -86 288 -86q104 0 167 38.5t63 102.5q-1 65 -57.5 101t-188.5 71q-176 46 -253 115t-81 188q-3 128 99 209t266 80q171 0 297 -92q14 -8 6 -31v-6l-43 -82q-5 -10 -17 -10q-4 0 -10 6
q-112 72 -241 72q-95 0 -152 -36.5t-57 -96.5q0 -66 51.5 -100.5t189.5 -71.5q175 -52 253 -117.5t81 -181.5q6 -135 -100 -218t-281 -81z" />
    <glyph glyph-name="t" unicode="t" horiz-adv-x="706" vert-adv-y="2437" 
d="M473 -23q-129 0 -194.5 94t-63.5 275v526h-170q-9 0 -15.5 6.5t-6.5 14.5v86q0 22 22 22h172v349q0 22 21 22h104q8 0 14 -5.5t6 -12.5v-353h259q22 0 22 -22v-86q0 -8 -6.5 -14.5t-15.5 -6.5h-259v-512q0 -132 29 -184.5t88 -52.5q46 0 109 49q12 6 14 6q11 0 19 -8
l59 -82q6 -7 5.5 -17t-9.5 -14q-30 -28 -83.5 -53.5t-119.5 -26.5z" />
    <glyph glyph-name="u" unicode="u" horiz-adv-x="1228" vert-adv-y="2437" 
d="M565 -23q-188 0 -295.5 111t-107.5 338v555q0 9 6 14.5t14 5.5h105q22 0 22 -20v-559q0 -301 271 -301q145 0 240.5 115.5t103.5 281.5v461q0 22 22 22h103q9 0 15.5 -5.5t6.5 -14.5v-946q0 -14 -11 -24.5t-24 -10.5h-75q-14 0 -23.5 10t-9.5 25v166q-113 -224 -363 -224
z" />
    <glyph glyph-name="v" unicode="v" horiz-adv-x="1015" vert-adv-y="2437" 
d="M563 0h-108q-23 0 -33 20l-404 953q-9 28 19 28h123q18 0 24 -18l324 -815l321 813q10 20 31 20h119q27 0 18 -28l-405 -953q-7 -20 -29 -20z" />
    <glyph glyph-name="w" unicode="w" horiz-adv-x="1425" vert-adv-y="2437" 
d="M455 0h-123q-21 0 -25 18l-289 963q-4 9 0 14.5t15 5.5h123q21 0 24 -20l213 -809l238 809q1 8 9.5 14t16.5 6h109q20 0 27 -20l237 -811l213 811q1 9 9 14.5t16 5.5h125q21 0 12 -22l-287 -961q-1 -7 -8.5 -12.5t-15.5 -5.5h-123q-21 0 -25 18l-231 807l-232 -807
q-11 -18 -28 -18z" />
    <glyph glyph-name="x" unicode="x" horiz-adv-x="1026" vert-adv-y="2437" 
d="M207 0h-135q-14 0 -18 7t5 18l357 464l-367 484q-10 13 -6 20.5t20 7.5h138q22 0 37 -18l272 -369l283 369q12 18 36 18h136q15 0 19 -7t-5 -19l-381 -473l363 -475q9 -12 5.5 -19.5t-18.5 -7.5h-137q-21 0 -39 18l-266 357l-260 -357q-18 -18 -39 -18z" />
    <glyph glyph-name="y" unicode="y" horiz-adv-x="1028" vert-adv-y="2437" 
d="M360 -516h-104q-14 0 -20 8t0 23l200 489l-411 969q-9 28 20 28h117q24 0 31 -20l315 -801l328 801q7 20 30 20h117q14 0 20 -8.5t1 -19.5l-615 -1469q-8 -20 -29 -20z" />
    <glyph glyph-name="z" unicode="z" horiz-adv-x="1007" vert-adv-y="2437" 
d="M885 0h-756q-41 0 -20 35l550 837h-509q-10 0 -16.5 6.5t-6.5 14.5v86q0 22 23 22h720q21 0 27 -10.5t-6 -27.5l-549 -834h543q22 0 22 -23v-83q0 -23 -22 -23z" />
    <glyph glyph-name="braceleft" unicode="{" horiz-adv-x="815" vert-adv-y="2437" 
d="M666 -369h-97q-57 0 -100.5 22t-66.5 54t-37.5 76t-18.5 79.5t-4 74.5v370q0 96 -47.5 156.5t-106.5 68.5q-16 0 -16 21v98q0 14 16 17q59 8 106.5 68.5t47.5 156.5v371q0 39 4 74t18.5 79t37.5 75.5t66.5 53t100.5 21.5h97q9 0 15.5 -6.5t6.5 -16.5v-94q0 -9 -6.5 -16
t-15.5 -7h-91q-86 0 -86 -163v-361q0 -106 -44.5 -183t-116.5 -120q72 -43 116.5 -119.5t44.5 -183.5v-360q0 -166 86 -166h91q9 0 15.5 -7t6.5 -16v-94q0 -10 -6.5 -16.5t-15.5 -6.5z" />
    <glyph glyph-name="bar" unicode="|" horiz-adv-x="487" vert-adv-y="1894" 
d="M295 0h-100q-10 0 -16.5 6t-6.5 14v1528q0 19 21 19h102q22 0 22 -19v-1528q0 -8 -6 -14t-16 -6z" />
    <glyph glyph-name="braceright" unicode="}" horiz-adv-x="815" vert-adv-y="2437" 
d="M248 -369h-96q-23 0 -23 23v96q0 9 6.5 16t16.5 7h90q81 0 84 164l-2 360q0 107 45 183t118 120q-72 43 -117.5 120t-45.5 183l2 361q-3 163 -84 163h-90q-10 0 -16.5 7t-6.5 16v94q0 23 23 23h96q57 0 100 -21.5t66 -53t37 -75.5t18 -79t4 -74v-371q0 -96 48 -156.5
t108 -68.5q16 -4 16 -21v-96q0 -7 -5 -13t-11 -6q-60 -8 -108 -68.5t-48 -156.5v-370q0 -39 -4 -74.5t-18 -80t-37 -76t-66 -53.5t-100 -22z" />
    <glyph glyph-name="asciitilde" unicode="~" horiz-adv-x="1269" vert-adv-y="2437" 
d="M862 358q-59 0 -110 17.5t-85 44.5t-68 57.5t-61.5 56.5t-63.5 42.5t-75 15.5q-122 -2 -198 -209q-6 -14 -17 -14l-12 4l-4 4l-68 74q-16 13 -8 28q44 125 130 200t186 75q72 0 130.5 -24.5t96.5 -59.5t72 -69.5t75 -58t88 -22.5q37 1 69 19t56.5 50.5t41.5 64t34 73.5
q5 16 16 16q8 0 13 -8l74 -71q11 -18 6 -33q-44 -122 -129.5 -197.5t-188.5 -75.5z" />
    <glyph glyph-name="exclamdown" unicode="&#xa1;" horiz-adv-x="569" vert-adv-y="2437" 
d="M285 1569q51 0 81.5 -32t30.5 -83t-30.5 -81t-81.5 -30t-82 30t-31 81t31 83t82 32zM227 1118h115q23 0 23 -20l4 -1098q0 -23 -23 -23h-123q-9 0 -15.5 6.5t-6.5 16.5l4 1098q0 20 22 20z" />
    <glyph glyph-name="cent" unicode="&#xa2;" horiz-adv-x="1370" vert-adv-y="2437" 
d="M1130 240l68 -66q10 -12 10 -26t-10 -23q-138 -135 -362 -150v-186q0 -12 -11.5 -23.5t-23.5 -11.5h-111q-13 0 -24 11.5t-11 23.5v193q-218 37 -356.5 189.5t-138.5 367.5q0 214 138.5 366t356.5 189v190q0 14 10.5 24.5t24.5 10.5h111q12 0 23.5 -11t11.5 -24v-186
q213 -12 354 -144q11 -11 10.5 -25t-10.5 -24l-68 -65q-10 -9 -23 -8.5t-24 8.5q-114 108 -297 108q-189 0 -309.5 -113.5t-120.5 -295.5q0 -183 120.5 -297.5t309.5 -114.5q185 0 305 111q9 9 23.5 10t23.5 -8z" />
    <glyph glyph-name="sterling" unicode="&#xa3;" horiz-adv-x="1476" vert-adv-y="2437" 
d="M1122 670h-600v-504h791q13 0 24 -11t11 -24v-96q0 -15 -10.5 -25t-24.5 -10h-1155q-14 0 -23.5 10t-9.5 25v96q0 14 10 24.5t23 10.5h170v504h-170q-13 0 -23 10t-10 22v99q0 13 10 24t23 11h170v184q0 227 160.5 370.5t406.5 143.5q130 0 239.5 -43t186.5 -119
q12 -14 9.5 -29t-17.5 -24l-96 -62q-19 -13 -41 5q-105 102 -281 102q-165 0 -269 -95.5t-104 -248.5v-184h600q14 0 24.5 -11t10.5 -24v-99q0 -12 -10 -22t-25 -10z" />
    <glyph glyph-name="yen" unicode="&#xa5;" horiz-adv-x="1675" vert-adv-y="2437" 
d="M1544 1432l-446 -596h280q14 0 24.5 -11t10.5 -24v-80q0 -14 -10 -23.5t-25 -9.5h-385l-57 -76v-137h442q15 0 25 -10.5t10 -24.5v-78q0 -15 -10 -24.5t-25 -9.5h-442v-293q0 -15 -10 -25t-23 -10h-125q-14 0 -24.5 10t-10.5 25v293h-442q-14 0 -23.5 9.5t-9.5 24.5v78
q0 14 10 24.5t23 10.5h442v137l-57 76h-385q-13 0 -23 10t-10 23v80q0 13 10 24t23 11h277l-445 596q-18 23 -5.5 47t42.5 24h135q18 0 25 -10l508 -711l510 711q10 10 24 10h135q31 0 43 -22.5t-6 -48.5z" />
    <glyph glyph-name="section" unicode="&#xa7;" horiz-adv-x="921" vert-adv-y="2437" 
d="M737 811q-112 72 -241 72q-95 0 -152 -36.5t-57 -96.5q0 -66 51.5 -100.5t189.5 -71.5q57 -16 95.5 -30t87 -39t78 -54.5t51 -74.5t22.5 -101q3 -84 -37 -148.5t-116 -103.5q105 -74 108 -203q6 -135 -100 -218t-281 -81q-213 0 -354 108q-5 3 -6 14.5t4 20.5l45 78l4 4
q5 8 14 8q7 0 13 -6q131 -86 288 -86q104 0 167 38.5t63 102.5q-1 42 -21 71t-53 45t-75.5 27t-89.5 20t-94.5 21t-90.5 33.5t-77 52.5t-55 83.5t-24 122.5q-1 79 39.5 142.5t114.5 100.5q-103 73 -109 211q-3 128 99 209t266 80q171 0 297 -92q14 -8 6 -31v-6l-43 -82
q-5 -10 -16 -10q-5 0 -11 6zM516 422q-30 6 -65 6q-95 0 -152 -36.5t-57 -96.5q0 -66 51.5 -100.5t189.5 -71.5q1 0 3 -1t3 -1q104 0 167 38.5t63 102.5q-1 60 -48 94.5t-155 65.5z" />
    <glyph glyph-name="dieresis" unicode="&#xa8;" horiz-adv-x="684" vert-adv-y="1894" 
d="M113 1325q0 -47 27.5 -75.5t76.5 -28.5q48 0 75 29.5t27 74.5q0 46 -27 76.5t-75 30.5t-76 -30t-28 -77zM424 1325q0 -47 27.5 -75.5t76.5 -28.5q48 0 75.5 29.5t27.5 74.5q0 46 -27.5 76.5t-75.5 30.5t-76 -30t-28 -77z" />
    <glyph glyph-name="copyright" unicode="&#xa9;" horiz-adv-x="2125" vert-adv-y="2437" 
d="M1061 -27q-246 0 -442 98.5t-307 277t-111 405.5q0 169 65 314t178.5 246.5t273 158.5t343.5 57q185 0 344.5 -57t273.5 -158.5t179 -246.5t65 -314q0 -227 -111 -405.5t-307.5 -277t-443.5 -98.5zM1061 102q204 0 366 81t253.5 230.5t91.5 340.5q0 190 -91.5 337.5
t-253.5 228.5t-366 81q-202 0 -363.5 -80.5t-253.5 -229t-92 -337.5q0 -192 90.5 -340.5t252 -230t366.5 -81.5zM1063 287q-205 0 -334 130t-129 337q0 91 26.5 167.5t71.5 130.5t105.5 92.5t128 56.5t139.5 18q112 0 214 -50t163 -143q11 -19 -2 -29l-68 -57q-3 -6 -14 -6
q-12 0 -18 12q-97 141 -283 141q-152 0 -244 -91t-92 -242t92 -244.5t244 -93.5q186 0 283 141q6 12 18 12q10 0 14 -4l68 -59q13 -10 2 -29q-59 -89 -159 -139.5t-226 -50.5z" />
    <glyph glyph-name="ordfeminine" unicode="&#xaa;" horiz-adv-x="923" vert-adv-y="1894" 
d="M422 1552q-166 0 -264.5 -105.5t-98.5 -266.5t98.5 -267t264.5 -106q175 0 274 135v-90q0 -19 21 -27q10 -4 28 -4h17q14 0 20 2q29 5 29 29v655q0 18 -23 27q-12 2 -30 2h-15q-12 0 -18 -2q-27 -4 -27 -27v-90q-99 135 -276 135zM430 1442q119 0 192.5 -73.5
t73.5 -188.5q0 -113 -74.5 -186.5t-191.5 -73.5t-187.5 72.5t-70.5 187.5q0 114 70.5 188t187.5 74z" />
    <glyph glyph-name="guillemotleft" unicode="&#xab;" horiz-adv-x="1452" vert-adv-y="2437" 
d="M918 580l12 -2v102q0 12 -12 18l-707 312l707 311q12 6 12 18v105l-12 -4q-3 0 -15 -4q-6 0 -14 -4l-766 -342q-14 -7 -14 -21v-119q0 -11 14 -18l766 -342l14 -6q7 0 15 -4zM1300 580l15 -2v102q0 10 -15 18l-706 312l706 311q15 7 15 18v105l-15 -4q-4 0 -12 -4
q-6 0 -14 -4l-768 -342q-14 -9 -14 -21v-119q0 -4 14 -18l768 -342l14 -6q4 0 12 -4z" />
    <glyph glyph-name="registered" unicode="&#xae;" horiz-adv-x="2125" vert-adv-y="2437" 
d="M1061 -27q-246 0 -442 98.5t-307 277t-111 405.5q0 169 65 314t178.5 246.5t273 158.5t343.5 57q185 0 344.5 -57t273.5 -158.5t179 -246.5t65 -314q0 -227 -111 -405.5t-307.5 -277t-443.5 -98.5zM1061 102q204 0 366 81t253.5 230.5t91.5 340.5q0 190 -91.5 337.5
t-253.5 228.5t-366 81q-202 0 -363.5 -80.5t-253.5 -229t-92 -337.5q0 -192 90.5 -340.5t252 -230t366.5 -81.5zM879 295h-66q-25 0 -25 22v889q0 9 7.5 16t17.5 7h258q141 0 222 -72.5t81 -198.5q0 -110 -62 -179.5t-173 -84.5l235 -368q7 -14 2 -22.5t-20 -8.5h-86
q-16 0 -23 14l-229 379h-117v-371q0 -9 -6.5 -15.5t-15.5 -6.5zM1073 1124h-172v-329h172q94 0 142.5 41.5t48.5 121.5t-49.5 123t-141.5 43z" />
    <glyph glyph-name="degree" unicode="&#xb0;" horiz-adv-x="532" vert-adv-y="1894" 
d="M109 1331q0 -52 31.5 -84.5t84.5 -32.5t85 32.5t32 84.5q0 51 -32 84t-85 33t-84.5 -32.5t-31.5 -84.5zM262 1331q0 -37 -37 -37t-37 37q0 20 8.5 28.5t28.5 8.5q37 0 37 -37z" />
    <glyph glyph-name="uni00B2" unicode="&#xb2;" horiz-adv-x="735" vert-adv-y="1894" 
d="M123 823h479q19 0 27 19q0 2 1 6t1 6v12q0 9 -4 21q-7 14 -25 14h-354l252 232q55 52 84.5 101t29.5 114q0 113 -76.5 177t-191.5 64q-72 0 -139 -26t-111 -78q-6 -12 -6 -19q0 -12 22.5 -29.5t32.5 -17.5q5 0 17 6l12 13l12 12l7 6q27 25 69 39t82 14q77 0 124.5 -42
t47.5 -117q0 -45 -23 -80.5t-67 -75.5q-30 -27 -102.5 -92.5t-125 -114.5t-100.5 -96l-2 -2v-6v-23q0 -14 4 -20q4 -17 23 -17z" />
    <glyph glyph-name="uni00B3" unicode="&#xb3;" horiz-adv-x="776" vert-adv-y="1894" 
d="M522 1221q54 19 89.5 66.5t35.5 103.5t-28.5 99t-74.5 66.5t-96 34.5t-100 11q-162 0 -235 -78q-11 -7 -11 -19q0 -9 9 -18q8 -8 12 -10l24 -17l3 -2h6q10 0 18 8q43 33 80 44.5t94 11.5q51 0 94 -11.5t75 -43t32 -78.5q0 -67 -58 -98t-137 -31l-25 2q-25 1 -40 0
q-25 0 -37 -5q-23 -8 -25 -22q-2 -4 -2 -8v-6q0 -9 4 -25q9 -18 25 -18h96q67 -4 105 -13q114 -27 114 -121q0 -50 -35.5 -83t-82.5 -45.5t-101 -12.5q-60 0 -99.5 12.5t-90.5 47.5q-6 6 -17 6q-12 0 -31.5 -18t-19.5 -31q0 -11 10 -21q39 -38 111.5 -57t138.5 -19
q52 0 104 11.5t102 36t81 69t31 102.5q0 120 -148 179z" />
    <glyph glyph-name="acute" unicode="&#xb4;" horiz-adv-x="559" vert-adv-y="1894" 
d="M115 1225h133l186 192h-125z" />
    <glyph glyph-name="periodcentered" unicode="&#xb7;" horiz-adv-x="557" vert-adv-y="1894" 
d="M279 535q-47 0 -77 30.5t-30 77.5q0 49 29 78t78 29q47 0 75.5 -29t28.5 -78t-28.5 -78.5t-75.5 -29.5z" />
    <glyph glyph-name="cedilla" unicode="&#xb8;" horiz-adv-x="585" vert-adv-y="1894" 
d="M164 -193l6 13l10 -10q15 -15 21 -23q4 -3 11 -10t11 -10q27 -19 51 -19q25 0 39.5 15t14.5 40t-19 52q-6 8 -20 22l-23 23q-31 29 -48.5 65.5t-16.5 95.5v11h102l2 -9q3 -22 19 -51t34 -49l37 -35q22 -22 27 -32q22 -32 22 -93q0 -74 -47 -121t-123 -47q-89 0 -159 76
l-4 4l4 6q7 18 26.5 49t22.5 37z" />
    <glyph glyph-name="uni00B9" unicode="&#xb9;" horiz-adv-x="448" vert-adv-y="1894" 
d="M156 1440l61 24v-616q0 -9 9 -17t18 -8h43q10 0 16 6q2 2 4.5 6t3.5 5l2 2v708v13q-2 2 -2 8l-2 12l-239 -92q-17 -7 -17 -27v-12q0 -10 2 -16q9 -23 29 -23q1 0 3.5 1t4.5 1q1 0 3.5 1t4.5 1q2 1 9 4t12 4z" />
    <glyph glyph-name="ordmasculine" unicode="&#xba;" horiz-adv-x="860" vert-adv-y="1894" 
d="M430 1565q-168 0 -269.5 -104.5t-101.5 -266.5q0 -164 101.5 -268.5t269.5 -104.5t269.5 104.5t101.5 268.5q0 163 -101 267t-270 104zM430 1456q118 0 188 -73.5t70 -188.5q0 -116 -70 -188t-188 -72q-117 0 -187.5 72.5t-70.5 187.5q0 114 70.5 188t187.5 74z" />
    <glyph glyph-name="guillemotright" unicode="&#xbb;" horiz-adv-x="1402" vert-adv-y="2437" 
d="M121 604l-12 -4v105q0 13 14 18l704 311l-704 309q-14 5 -14 21v102l12 -4q2 0 6.5 -1t7.5 -1l15 -6l765 -342q15 -8 15 -20v-119q0 -4 -5.5 -10.5t-9.5 -8.5l-765 -342q-8 -4 -15 -4q-12 -4 -14 -4zM504 604l-12 -4v105q0 11 14 18l704 311l-704 309q-14 7 -14 21v102
l12 -4l14 -2q6 -2 14 -6l768 -342q13 -9 13 -20v-119q0 -6 -13 -19l-768 -342q-8 -4 -14 -4q-8 -4 -14 -4z" />
    <glyph glyph-name="questiondown" unicode="&#xbf;" horiz-adv-x="1083" vert-adv-y="2437" 
d="M565 1589q51 0 82 -31.5t31 -82.5t-31 -81t-82 -30t-82.5 30t-31.5 81t31.5 82.5t82.5 31.5zM510 1149h127q10 0 16 -7t6 -16q-3 -75 -27 -139t-59.5 -109.5t-77.5 -87t-83.5 -81t-75.5 -82.5t-54.5 -100.5t-19.5 -125.5q0 -124 73.5 -199t192.5 -75q93 0 172.5 43.5
t137.5 114.5q8 8 16 8q5 0 14 -6l74 -80q14 -21 0 -35q-162 -195 -412 -195q-191 0 -309.5 116t-118.5 308q0 80 20.5 148.5t53.5 117t72.5 92t80 83t75 80t57.5 93t26 111.5q4 23 23 23z" />
    <glyph glyph-name="Agrave" unicode="&#xc0;" horiz-adv-x="1456" vert-adv-y="2437" 
d="M696 1991h-125l185 -193h135zM150 0h-115q-12 0 -17 7t0 18l623 1521q6 21 29 21h118q23 0 29 -21l621 -1521q6 -11 1 -18t-16 -7h-118q-14 0 -23 14l-199 492h-710l-199 -492q-6 -14 -24 -14zM1026 647l-295 733l-299 -733h594z" />
    <glyph glyph-name="Aacute" unicode="&#xc1;" horiz-adv-x="1456" vert-adv-y="2437" 
d="M571 1798h134l186 193h-125zM150 0h-115q-12 0 -17 7t0 18l623 1521q6 21 29 21h118q23 0 29 -21l621 -1521q6 -11 1 -18t-16 -7h-118q-14 0 -23 14l-199 492h-710l-199 -492q-6 -14 -24 -14zM1026 647l-295 733l-299 -733h594z" />
    <glyph glyph-name="Acircumflex" unicode="&#xc2;" horiz-adv-x="1456" vert-adv-y="2437" 
d="M801 1798h131l-148 193h-106l-150 -193h131l72 98zM150 0h-115q-12 0 -17 7t0 18l623 1521q6 21 29 21h118q23 0 29 -21l621 -1521q6 -11 1 -18t-16 -7h-118q-14 0 -23 14l-199 492h-710l-199 -492q-6 -14 -24 -14zM1026 647l-295 733l-299 -733h594z" />
    <glyph glyph-name="Atilde" unicode="&#xc3;" horiz-adv-x="1456" vert-adv-y="2437" 
d="M713 1864q18 -21 27 -30.5t30 -20.5t45 -11q44 0 76.5 44t42.5 89v4l-2 9q-2 2 -2 4l-10 12q-3 6 -15 18l-12 15l-4 -17l-12 -32q-10 -24 -15 -33q-21 -35 -47 -35q-16 0 -35 16q-8 8 -14 17l-18 20q-15 19 -25.5 30t-31 21.5t-44.5 10.5q-46 0 -76 -43t-43 -92l-2 -5
l2 -2q5 -8 14.5 -21t12.5 -17l12 -21l6 23q2 5 5.5 15.5t5.5 14.5q5 14 16 33q18 35 45 35q21 0 35 -14q3 -2 8.5 -8.5t7.5 -8.5q3 -4 9 -10.5t8 -9.5zM150 0h-115q-12 0 -17 7t0 18l623 1521q6 21 29 21h118q23 0 29 -21l621 -1521q6 -11 1 -18t-16 -7h-118q-14 0 -23 14
l-199 492h-710l-199 -492q-6 -14 -24 -14zM1026 647l-295 733l-299 -733h594z" />
    <glyph glyph-name="Adieresis" unicode="&#xc4;" horiz-adv-x="1456" vert-adv-y="2437" 
d="M471 1898q0 -47 27.5 -75.5t76.5 -28.5q48 0 75.5 29.5t27.5 74.5q0 46 -27.5 76.5t-75.5 30.5t-76 -30t-28 -77zM782 1898q0 -47 28 -75.5t77 -28.5q48 0 75 29.5t27 74.5q0 46 -27 76.5t-75 30.5t-76.5 -30t-28.5 -77zM150 0h-115q-12 0 -17 7t0 18l623 1521
q6 21 29 21h118q23 0 29 -21l621 -1521q6 -11 1 -18t-16 -7h-118q-14 0 -23 14l-199 492h-710l-199 -492q-6 -14 -24 -14zM1026 647l-295 733l-299 -733h594z" />
    <glyph glyph-name="Aring" unicode="&#xc5;" horiz-adv-x="1456" vert-adv-y="2437" 
d="M614 1905q0 -52 32 -84.5t85 -32.5t85 32.5t32 84.5q0 50 -32 83t-85 33t-85 -32t-32 -84zM768 1905q0 -37 -37 -37t-37 37q0 20 8.5 28.5t28.5 8.5q37 0 37 -37zM150 0h-115q-12 0 -17 7t0 18l623 1521q6 21 29 21h118q23 0 29 -21l621 -1521q6 -11 1 -18t-16 -7h-118
q-14 0 -23 14l-199 492h-710l-199 -492q-6 -14 -24 -14zM1026 647l-295 733l-299 -733h594z" />
    <glyph glyph-name="AE" unicode="&#xc6;" horiz-adv-x="1675" vert-adv-y="2437" 
d="M1563 1425h-680v-553h628q10 0 16.5 -6.5t6.5 -15.5v-100q0 -9 -6.5 -16t-16.5 -7h-628v-582h700q10 0 16.5 -6.5t6.5 -15.5v-103q0 -8 -6 -14t-15 -6h-837q-23 0 -23 18v488h-352l-199 -492q-6 -14 -24 -14h-115q-12 0 -17 7t0 18l623 1521q6 21 29 21l893 2
q22 0 22 -23v-98q0 -23 -22 -23zM725 647v717l-293 -717h293z" />
    <glyph glyph-name="Ccedilla" unicode="&#xc7;" horiz-adv-x="1546" vert-adv-y="2437" 
d="M897 1589q334 0 561 -211q8 -6 8 -14t-8 -14l-78 -72q-4 -8 -14 -8q-8 0 -16 8q-183 158 -453 158q-286 0 -463.5 -180.5t-177.5 -473.5q0 -292 176 -470.5t465 -178.5q271 0 449 158l8 4h10q14 0 16 -4l80 -74q16 -17 0 -33q-111 -103 -256.5 -155t-306.5 -52
q-30 0 -57 3q6 -9 14 -17q5 -6 11.5 -12.5t13.5 -13t10 -9.5q20 -20 26 -32q25 -36 25 -93q0 -74 -48 -121t-124 -47q-90 0 -160 76l-4 4l4 6q8 18 26.5 48.5t22.5 37.5l9 13l8 -10q5 -3 12.5 -12t9.5 -11l21 -20q30 -19 51 -19q25 0 39 15t14 40q0 27 -18 52q-3 4 -21 22
l-22 23q-46 42 -60 98q-278 59 -440 269.5t-162 516.5q0 156 45 289t121.5 227t179 160t217.5 97.5t236 31.5z" />
    <glyph glyph-name="Egrave" unicode="&#xc8;" horiz-adv-x="1163" vert-adv-y="2437" 
d="M549 1991h-125l184 -193h135zM1032 1425h-680v-553h629q10 0 16.5 -6.5t6.5 -15.5v-100q0 -9 -6.5 -16t-16.5 -7h-629v-582h701q22 0 22 -22v-103q0 -8 -5.5 -14t-14.5 -6h-838q-10 0 -16 7t-6 16v1523q0 23 22 23h815q23 0 23 -23v-98q0 -23 -23 -23z" />
    <glyph glyph-name="Eacute" unicode="&#xc9;" horiz-adv-x="1163" vert-adv-y="2437" 
d="M424 1798h133l186 193h-125zM1032 1425h-680v-553h629q10 0 16.5 -6.5t6.5 -15.5v-100q0 -9 -6.5 -16t-16.5 -7h-629v-582h701q22 0 22 -22v-103q0 -8 -5.5 -14t-14.5 -6h-838q-10 0 -16 7t-6 16v1523q0 23 22 23h815q23 0 23 -23v-98q0 -23 -23 -23z" />
    <glyph glyph-name="Ecircumflex" unicode="&#xca;" horiz-adv-x="1163" vert-adv-y="2437" 
d="M653 1798h131l-147 193h-107l-149 -193h131l72 98zM1032 1425h-680v-553h629q10 0 16.5 -6.5t6.5 -15.5v-100q0 -9 -6.5 -16t-16.5 -7h-629v-582h701q22 0 22 -22v-103q0 -8 -5.5 -14t-14.5 -6h-838q-10 0 -16 7t-6 16v1523q0 23 22 23h815q23 0 23 -23v-98
q0 -23 -23 -23z" />
    <glyph glyph-name="Edieresis" unicode="&#xcb;" horiz-adv-x="1163" vert-adv-y="2437" 
d="M324 1898q0 -47 27.5 -75.5t76.5 -28.5q48 0 75 29.5t27 74.5q0 46 -27 76.5t-75 30.5t-76 -30t-28 -77zM635 1898q0 -47 27.5 -75.5t76.5 -28.5q48 0 75.5 29.5t27.5 74.5q0 46 -27.5 76.5t-75.5 30.5t-76 -30t-28 -77zM1032 1425h-680v-553h629q10 0 16.5 -6.5
t6.5 -15.5v-100q0 -9 -6.5 -16t-16.5 -7h-629v-582h701q22 0 22 -22v-103q0 -8 -5.5 -14t-14.5 -6h-838q-10 0 -16 7t-6 16v1523q0 23 22 23h815q23 0 23 -23v-98q0 -23 -23 -23z" />
    <glyph glyph-name="Igrave" unicode="&#xcc;" horiz-adv-x="546" vert-adv-y="2437" 
d="M244 1991h-125l184 -193h135zM332 0h-115q-10 0 -16 6t-6 14v1526q0 23 20 23h115q9 0 15.5 -6.5t6.5 -16.5v-1526q0 -8 -6 -14t-14 -6z" />
    <glyph glyph-name="Iacute" unicode="&#xcd;" horiz-adv-x="546" vert-adv-y="2437" 
d="M119 1798h133l186 193h-125zM332 0h-115q-10 0 -16 6t-6 14v1526q0 23 20 23h115q9 0 15.5 -6.5t6.5 -16.5v-1526q0 -8 -6 -14t-14 -6z" />
    <glyph glyph-name="Icircumflex" unicode="&#xce;" horiz-adv-x="546" vert-adv-y="2437" 
d="M344 1798h131l-147 193h-107l-149 -193h131l71 98zM332 0h-115q-10 0 -16 6t-6 14v1526q0 23 20 23h115q9 0 15.5 -6.5t6.5 -16.5v-1526q0 -8 -6 -14t-14 -6z" />
    <glyph glyph-name="Idieresis" unicode="&#xcf;" horiz-adv-x="546" vert-adv-y="2437" 
d="M4 1898q0 -47 28 -75.5t77 -28.5q48 0 75 29.5t27 74.5q0 46 -27 76.5t-75 30.5t-76.5 -30t-28.5 -77zM315 1898q0 -47 28 -75.5t77 -28.5q48 0 75 29.5t27 74.5q0 46 -27 76.5t-75 30.5t-76.5 -30t-28.5 -77zM332 0h-115q-10 0 -16 6t-6 14v1526q0 23 20 23h115
q9 0 15.5 -6.5t6.5 -16.5v-1526q0 -8 -6 -14t-14 -6z" />
    <glyph glyph-name="Ntilde" unicode="&#xd1;" horiz-adv-x="1607" vert-adv-y="2437" 
d="M788 1864q18 -21 27.5 -30.5t30.5 -20.5t45 -11q44 0 76.5 44t42.5 89v4l-2 9q-2 2 -2 4l-11 12q-4 8 -14 18l-12 15l-4 -17l-13 -32q-12 -29 -14 -33q-21 -35 -47 -35q-16 0 -35 16q-8 8 -14 17l-19 20q-16 20 -25.5 30t-30 21t-44.5 11q-46 0 -76 -43t-43 -92l-2 -5
l2 -2q5 -8 14.5 -21t12.5 -17l12 -21l6 23q2 4 5 15t5 15q3 11 17 33q18 35 45 35q21 0 35 -14q3 -2 8.5 -8.5t7.5 -8.5q3 -4 8.5 -10.5t7.5 -9.5zM330 0h-113q-10 0 -16 7t-6 16v1523q0 23 22 23h145q15 0 25 -17l868 -1312v1306q0 23 23 23h115q8 0 14 -6.5t6 -16.5v-1523
q0 -9 -6.5 -16t-15.5 -7h-144q-6 0 -24 12l-871 1315v-1304q0 -9 -6.5 -16t-15.5 -7z" />
    <glyph glyph-name="Ograve" unicode="&#xd2;" horiz-adv-x="1802" vert-adv-y="2437" 
d="M870 1991h-125l185 -193h135zM98 784q0 238 99.5 421t282.5 283.5t423 100.5q239 0 422 -100.5t283 -283.5t100 -421q0 -362 -221.5 -583t-583.5 -221q-363 0 -584 221t-221 583zM256 784q0 -293 178 -472t469 -179q289 0 466 179t177 472t-177 472.5t-466 179.5
q-290 0 -468.5 -179.5t-178.5 -472.5z" />
    <glyph glyph-name="Oacute" unicode="&#xd3;" horiz-adv-x="1802" vert-adv-y="2437" 
d="M745 1798h134l186 193h-125zM98 784q0 238 99.5 421t282.5 283.5t423 100.5q239 0 422 -100.5t283 -283.5t100 -421q0 -362 -221.5 -583t-583.5 -221q-363 0 -584 221t-221 583zM256 784q0 -293 178 -472t469 -179q289 0 466 179t177 472t-177 472.5t-466 179.5
q-290 0 -468.5 -179.5t-178.5 -472.5z" />
    <glyph glyph-name="Ocircumflex" unicode="&#xd4;" horiz-adv-x="1802" vert-adv-y="2437" 
d="M975 1798h131l-148 193h-106l-150 -193h132l71 98zM98 784q0 238 99.5 421t282.5 283.5t423 100.5q239 0 422 -100.5t283 -283.5t100 -421q0 -362 -221.5 -583t-583.5 -221q-363 0 -584 221t-221 583zM256 784q0 -293 178 -472t469 -179q289 0 466 179t177 472
t-177 472.5t-466 179.5q-290 0 -468.5 -179.5t-178.5 -472.5z" />
    <glyph glyph-name="Otilde" unicode="&#xd5;" horiz-adv-x="1802" vert-adv-y="2437" 
d="M887 1864q18 -21 27 -30.5t30 -20.5t45 -11q44 0 76.5 44t42.5 89v4l-2 9q-2 2 -2 4l-10 12q-3 6 -15 18l-12 15l-4 -17l-12 -32q-10 -24 -15 -33q-21 -35 -47 -35q-16 0 -35 16q-8 8 -14 17l-18 20q-15 19 -25.5 30t-31 21.5t-44.5 10.5q-46 0 -76 -43t-43 -92l-2 -5
l2 -2q5 -8 14.5 -21t12.5 -17l12 -21l7 23q2 4 5 15t5 15q5 14 16 33q18 35 45 35q21 0 35 -14q3 -2 8.5 -8.5t7.5 -8.5q3 -4 9 -10.5t8 -9.5zM98 784q0 238 99.5 421t282.5 283.5t423 100.5q239 0 422 -100.5t283 -283.5t100 -421q0 -362 -221.5 -583t-583.5 -221
q-363 0 -584 221t-221 583zM256 784q0 -293 178 -472t469 -179q289 0 466 179t177 472t-177 472.5t-466 179.5q-290 0 -468.5 -179.5t-178.5 -472.5z" />
    <glyph glyph-name="Odieresis" unicode="&#xd6;" horiz-adv-x="1802" vert-adv-y="2437" 
d="M645 1898q0 -47 28 -75.5t77 -28.5q48 0 75 29.5t27 74.5q0 46 -27 76.5t-75 30.5t-76.5 -30t-28.5 -77zM956 1898q0 -47 28 -75.5t77 -28.5q48 0 75 29.5t27 74.5q0 46 -27 76.5t-75 30.5t-76.5 -30t-28.5 -77zM98 784q0 238 99.5 421t282.5 283.5t423 100.5
q239 0 422 -100.5t283 -283.5t100 -421q0 -362 -221.5 -583t-583.5 -221q-363 0 -584 221t-221 583zM256 784q0 -293 178 -472t469 -179q289 0 466 179t177 472t-177 472.5t-466 179.5q-290 0 -468.5 -179.5t-178.5 -472.5z" />
    <glyph glyph-name="multiply" unicode="&#xd7;" horiz-adv-x="1048" vert-adv-y="2437" 
d="M215 270l-82 80q-13 17 0 33l281 283l-277 274q-13 16 0 33l76 76q17 10 33 0l274 -281l281 281q17 17 33 0l79 -80q17 -17 0 -33l-280 -281l278 -274q13 -17 0 -33l-75 -76q-6 -6 -15.5 -6t-15.5 6l-275 279l-282 -281q-8 -8 -17.5 -8t-15.5 8z" />
    <glyph glyph-name="Oslash" unicode="&#xd8;" horiz-adv-x="1802" vert-adv-y="2437" 
d="M399 -20h-108q-19 0 -8 22l90 150q-132 107 -203.5 269.5t-71.5 362.5q0 238 99.5 421t282.5 283.5t423 100.5q166 0 303 -49l92 154q10 20 35 20h107q20 0 10 -20l-123 -207q180 -99 280.5 -281.5t100.5 -421.5q0 -362 -221.5 -583t-583.5 -221q-235 0 -420 98l-47 -76
q-15 -22 -37 -22zM457 291l667 1112q-98 33 -221 33q-290 0 -468.5 -179.5t-178.5 -472.5q0 -311 201 -493zM1245 1352l-680 -1137q145 -82 338 -82q289 0 466 179t177 472q0 192 -79.5 340t-221.5 228z" />
    <glyph glyph-name="Ugrave" unicode="&#xd9;" horiz-adv-x="1505" vert-adv-y="2437" 
d="M721 1991h-125l184 -193h135zM756 -20q-260 0 -410.5 163t-150.5 471v932q0 24 22 21h115q8 0 14 -6t6 -15v-934q0 -237 108.5 -358t295.5 -121q186 0 290.5 120t104.5 359v934q0 10 7 16.5t16 6.5h114q23 0 23 -23v-934q0 -308 -149 -470t-406 -162z" />
    <glyph glyph-name="Uacute" unicode="&#xda;" horiz-adv-x="1505" vert-adv-y="2437" 
d="M596 1798h133l186 193h-124zM756 -20q-260 0 -410.5 163t-150.5 471v932q0 24 22 21h115q8 0 14 -6t6 -15v-934q0 -237 108.5 -358t295.5 -121q186 0 290.5 120t104.5 359v934q0 10 7 16.5t16 6.5h114q23 0 23 -23v-934q0 -308 -149 -470t-406 -162z" />
    <glyph glyph-name="Ucircumflex" unicode="&#xdb;" horiz-adv-x="1505" vert-adv-y="2437" 
d="M825 1798h131l-147 193h-107l-149 -193h131l72 98zM756 -20q-260 0 -410.5 163t-150.5 471v932q0 24 22 21h115q8 0 14 -6t6 -15v-934q0 -237 108.5 -358t295.5 -121q186 0 290.5 120t104.5 359v934q0 10 7 16.5t16 6.5h114q23 0 23 -23v-934q0 -308 -149 -470t-406 -162
z" />
    <glyph glyph-name="Udieresis" unicode="&#xdc;" horiz-adv-x="1505" vert-adv-y="2437" 
d="M496 1898q0 -47 27.5 -75.5t76.5 -28.5q48 0 75 29.5t27 74.5q0 46 -27 76.5t-75 30.5t-76 -30t-28 -77zM807 1898q0 -47 27.5 -75.5t76.5 -28.5q48 0 75.5 29.5t27.5 74.5q0 46 -27.5 76.5t-75.5 30.5t-76 -30t-28 -77zM756 -20q-260 0 -410.5 163t-150.5 471v932
q0 24 22 21h115q8 0 14 -6t6 -15v-934q0 -237 108.5 -358t295.5 -121q186 0 290.5 120t104.5 359v934q0 10 7 16.5t16 6.5h114q23 0 23 -23v-934q0 -308 -149 -470t-406 -162z" />
    <glyph glyph-name="Yacute" unicode="&#xdd;" horiz-adv-x="1267" vert-adv-y="2437" 
d="M477 1798h133l187 193h-125zM692 0h-114q-10 0 -16.5 7t-6.5 16l-2 602l-539 915q-7 12 -1.5 19.5t20.5 7.5h133q22 0 31 -19l438 -778l436 778q4 8 14.5 13.5t18.5 5.5h133q29 0 16 -27l-538 -915v-602q0 -9 -7 -16t-16 -7z" />
    <glyph glyph-name="germandbls" unicode="&#xdf;" horiz-adv-x="1525" vert-adv-y="2437" 
d="M694 836q-18 -4 -18 -23v-43q0 -9 4 -25q9 -14 22 -14q83 0 161 -16t149 -49.5t114 -96t43 -145.5q0 -70 -29.5 -126.5t-77.5 -92.5t-112 -59.5t-129 -33.5t-133 -10h-10l2 -104h10q81 0 163.5 13.5t166 46t147.5 79.5t104 120.5t40 162.5q0 68 -23 124t-66.5 97t-94 70
t-115.5 53q-1 1 -4 2t-4 2v43l8 2q114 42 183 126t69 198q0 86 -36.5 156.5t-95.5 116t-136 77t-155 44.5t-157 13q-304 0 -465 -151l-4 -4l6 -1883l123 2v1840q127 94 340 94q82 0 157 -16.5t140 -51.5t104 -97t39 -144q0 -64 -25.5 -116t-67.5 -85t-99 -55.5t-116 -31.5
t-122 -9z" />
    <glyph glyph-name="agrave" unicode="&#xe0;" vert-adv-y="2437" 
d="M621 1417h-125l184 -192h135zM592 -23q-226 0 -366 146t-140 379t140 377.5t366 144.5q136 0 239.5 -54t165.5 -155v154q0 12 10.5 22t22.5 10h78q13 0 24 -10t11 -22v-934q0 -15 -10.5 -25t-24.5 -10h-80q-14 0 -23.5 10t-9.5 25v153q-63 -101 -165.5 -156t-237.5 -55z
M606 123q170 0 276.5 103.5t112.5 275.5q-3 172 -110 276.5t-279 104.5q-169 0 -274 -106t-105 -275q0 -170 105 -274.5t274 -104.5z" />
    <glyph glyph-name="aacute" unicode="&#xe1;" vert-adv-y="2437" 
d="M496 1225h133l186 192h-125zM592 -23q-226 0 -366 146t-140 379t140 377.5t366 144.5q136 0 239.5 -54t165.5 -155v154q0 12 10.5 22t22.5 10h78q13 0 24 -10t11 -22v-934q0 -15 -10.5 -25t-24.5 -10h-80q-14 0 -23.5 10t-9.5 25v153q-63 -101 -165.5 -156t-237.5 -55z
M606 123q170 0 276.5 103.5t112.5 275.5q-3 172 -110 276.5t-279 104.5q-169 0 -274 -106t-105 -275q0 -170 105 -274.5t274 -104.5z" />
    <glyph glyph-name="acircumflex" unicode="&#xe2;" vert-adv-y="2437" 
d="M725 1225h131l-147 192h-107l-149 -192h131l71 98zM592 -23q-226 0 -366 146t-140 379t140 377.5t366 144.5q136 0 239.5 -54t165.5 -155v154q0 12 10.5 22t22.5 10h78q13 0 24 -10t11 -22v-934q0 -15 -10.5 -25t-24.5 -10h-80q-14 0 -23.5 10t-9.5 25v153
q-63 -101 -165.5 -156t-237.5 -55zM606 123q170 0 276.5 103.5t112.5 275.5q-3 172 -110 276.5t-279 104.5q-169 0 -274 -106t-105 -275q0 -170 105 -274.5t274 -104.5z" />
    <glyph glyph-name="atilde" unicode="&#xe3;" vert-adv-y="2437" 
d="M637 1290q18 -21 27.5 -30.5t30 -20t44.5 -10.5q44 0 76.5 44t42.5 89v4l-2 8q-2 2 -2 4l-10 13q-3 6 -15 18l-12 14l-4 -16l-12 -33q-10 -24 -15 -33q-20 -34 -47 -34q-15 0 -34 16q-13 13 -15 16l-18 21q-15 19 -25.5 29.5t-31 21t-44.5 10.5q-46 0 -75.5 -43
t-42.5 -92l-2 -4l2 -2q4 -6 8.5 -13t9.5 -14.5t8 -11.5l13 -20l6 22q2 4 5 15.5t5 15.5q5 14 16 33q18 34 45 34q21 0 35 -14q3 -2 17 -16q2 -2 8 -10t8 -11zM592 -23q-226 0 -366 146t-140 379t140 377.5t366 144.5q136 0 239.5 -54t165.5 -155v154q0 12 10.5 22t22.5 10
h78q13 0 24 -10t11 -22v-934q0 -15 -10.5 -25t-24.5 -10h-80q-14 0 -23.5 10t-9.5 25v153q-63 -101 -165.5 -156t-237.5 -55zM606 123q170 0 276.5 103.5t112.5 275.5q-3 172 -110 276.5t-279 104.5q-169 0 -274 -106t-105 -275q0 -170 105 -274.5t274 -104.5z" />
    <glyph glyph-name="adieresis" unicode="&#xe4;" vert-adv-y="2437" 
d="M395 1325q0 -47 28 -75.5t77 -28.5q48 0 75 29.5t27 74.5q0 46 -27 76.5t-75 30.5t-76.5 -30t-28.5 -77zM707 1325q0 -47 27.5 -75.5t76.5 -28.5q48 0 75 29.5t27 74.5q0 46 -27 76.5t-75 30.5t-76 -30t-28 -77zM592 -23q-226 0 -366 146t-140 379t140 377.5t366 144.5
q136 0 239.5 -54t165.5 -155v154q0 12 10.5 22t22.5 10h78q13 0 24 -10t11 -22v-934q0 -15 -10.5 -25t-24.5 -10h-80q-14 0 -23.5 10t-9.5 25v153q-63 -101 -165.5 -156t-237.5 -55zM606 123q170 0 276.5 103.5t112.5 275.5q-3 172 -110 276.5t-279 104.5q-169 0 -274 -106
t-105 -275q0 -170 105 -274.5t274 -104.5z" />
    <glyph glyph-name="aring" unicode="&#xe5;" vert-adv-y="2437" 
d="M539 1331q0 -52 31.5 -84.5t84.5 -32.5t85 32.5t32 84.5q0 51 -32 84t-85 33t-84.5 -32.5t-31.5 -84.5zM692 1331q0 -37 -37 -37t-37 37q0 20 8.5 28.5t28.5 8.5q37 0 37 -37zM592 -23q-226 0 -366 146t-140 379t140 377.5t366 144.5q136 0 239.5 -54t165.5 -155v154
q0 12 10.5 22t22.5 10h78q13 0 24 -10t11 -22v-934q0 -15 -10.5 -25t-24.5 -10h-80q-14 0 -23.5 10t-9.5 25v153q-63 -101 -165.5 -156t-237.5 -55zM606 123q170 0 276.5 103.5t112.5 275.5q-3 172 -110 276.5t-279 104.5q-169 0 -274 -106t-105 -275q0 -170 105 -274.5
t274 -104.5z" />
    <glyph glyph-name="ae" unicode="&#xe6;" horiz-adv-x="2068" vert-adv-y="2437" 
d="M997 815v154q0 12 10.5 22t22.5 10h78q13 0 24 -10t11 -22v-86q141 141 373 141q246 0 384.5 -150t137.5 -415q0 -10 -7 -16.5t-16 -6.5h-872q22 -142 129 -227.5t268 -85.5q193 0 297 113q10 10 18 10q9 0 17 -8l74 -68q19 -16 2 -33q-69 -77 -174.5 -118.5
t-233.5 -41.5q-243 0 -397 148v-90q0 -15 -10.5 -25t-24.5 -10h-80q-14 0 -23.5 10t-9.5 25v153q-63 -101 -165.5 -156t-237.5 -55q-226 0 -366 146t-140 379t140 377.5t366 144.5q136 0 239.5 -54t165.5 -155zM227 502q0 -170 105 -274.5t274 -104.5q170 0 276.5 103.5
t112.5 275.5q-3 172 -110 276.5t-279 104.5q-169 0 -274 -106t-105 -275zM1143 567h745q-20 144 -120 230t-252 86q-151 0 -252 -86.5t-121 -229.5z" />
    <glyph glyph-name="ccedilla" unicode="&#xe7;" horiz-adv-x="1128" vert-adv-y="2437" 
d="M496 -12q-188 34 -299 172.5t-111 341.5q0 128 45 230.5t120 165.5t168 96t193 32q130 0 244.5 -55.5t183.5 -159.5q6 -9 5.5 -19t-9.5 -14l-75 -65q-8 -8 -15 -8q-13 0 -20 14q-51 75 -134 118.5t-186 43.5q-169 0 -274 -105t-105 -274q0 -170 105 -274.5t274 -104.5
q104 0 187 42t133 118q5 12 20 12q11 0 15 -4l75 -68q9 -4 9.5 -13.5t-5.5 -16.5q-64 -97 -169 -153.5t-238 -62.5l12 -14q5 -6 11.5 -12.5t13.5 -13t10 -9.5q22 -22 27 -32q24 -34 24 -93q0 -74 -48 -121t-124 -47q-90 0 -160 76l-4 4l4 6q8 18 26.5 47.5t23.5 38.5l8 13
l8 -10q5 -3 12.5 -12t9.5 -11l21 -20q30 -19 51 -19q25 0 39 15t14 40q0 27 -18 52q-3 4 -21 22l-22 23q-39 34 -55 88z" />
    <glyph glyph-name="egrave" unicode="&#xe8;" horiz-adv-x="1212" vert-adv-y="2437" 
d="M573 1417h-124l184 -192h135zM928 236q10 10 18 10q9 0 17 -8l73 -68q19 -16 2 -33q-69 -77 -174 -118.5t-233 -41.5q-244 0 -394.5 145.5t-150.5 379.5q0 233 143.5 377.5t376.5 144.5q246 0 384.5 -150t137.5 -415q0 -10 -6.5 -16.5t-15.5 -6.5h-873
q22 -142 129 -227.5t269 -85.5q193 0 297 113zM606 883q-151 0 -252 -86.5t-121 -229.5h746q-20 144 -120.5 230t-252.5 86z" />
    <glyph glyph-name="eacute" unicode="&#xe9;" horiz-adv-x="1212" vert-adv-y="2437" 
d="M449 1225h133l186 192h-125zM928 236q10 10 18 10q9 0 17 -8l73 -68q19 -16 2 -33q-69 -77 -174 -118.5t-233 -41.5q-244 0 -394.5 145.5t-150.5 379.5q0 233 143.5 377.5t376.5 144.5q246 0 384.5 -150t137.5 -415q0 -10 -6.5 -16.5t-15.5 -6.5h-873q22 -142 129 -227.5
t269 -85.5q193 0 297 113zM606 883q-151 0 -252 -86.5t-121 -229.5h746q-20 144 -120.5 230t-252.5 86z" />
    <glyph glyph-name="ecircumflex" unicode="&#xea;" horiz-adv-x="1212" vert-adv-y="2437" 
d="M678 1225h131l-147 192h-107l-149 -192h131l71 98zM928 236q10 10 18 10q9 0 17 -8l73 -68q19 -16 2 -33q-69 -77 -174 -118.5t-233 -41.5q-244 0 -394.5 145.5t-150.5 379.5q0 233 143.5 377.5t376.5 144.5q246 0 384.5 -150t137.5 -415q0 -10 -6.5 -16.5t-15.5 -6.5
h-873q22 -142 129 -227.5t269 -85.5q193 0 297 113zM606 883q-151 0 -252 -86.5t-121 -229.5h746q-20 144 -120.5 230t-252.5 86z" />
    <glyph glyph-name="edieresis" unicode="&#xeb;" horiz-adv-x="1212" vert-adv-y="2437" 
d="M348 1325q0 -47 28 -75.5t77 -28.5q48 0 75 29.5t27 74.5q0 46 -27 76.5t-75 30.5t-76.5 -30t-28.5 -77zM659 1325q0 -47 28 -75.5t77 -28.5q48 0 75 29.5t27 74.5q0 46 -27 76.5t-75 30.5t-76.5 -30t-28.5 -77zM928 236q10 10 18 10q9 0 17 -8l73 -68q19 -16 2 -33
q-69 -77 -174 -118.5t-233 -41.5q-244 0 -394.5 145.5t-150.5 379.5q0 233 143.5 377.5t376.5 144.5q246 0 384.5 -150t137.5 -415q0 -10 -6.5 -16.5t-15.5 -6.5h-873q22 -142 129 -227.5t269 -85.5q193 0 297 113zM606 883q-151 0 -252 -86.5t-121 -229.5h746
q-20 144 -120.5 230t-252.5 86z" />
    <glyph glyph-name="igrave" unicode="&#xec;" horiz-adv-x="487" vert-adv-y="2437" 
d="M213 1417h-125l184 -192h136zM295 0h-100q-10 0 -16.5 6t-6.5 14v961q0 20 21 20h102q9 0 15.5 -5.5t6.5 -14.5v-961q0 -8 -6 -14t-16 -6z" />
    <glyph glyph-name="iacute" unicode="&#xed;" horiz-adv-x="487" vert-adv-y="2437" 
d="M88 1225h133l187 192h-125zM295 0h-100q-10 0 -16.5 6t-6.5 14v961q0 20 21 20h102q9 0 15.5 -5.5t6.5 -14.5v-961q0 -8 -6 -14t-16 -6z" />
    <glyph glyph-name="icircumflex" unicode="&#xee;" horiz-adv-x="487" vert-adv-y="2437" 
d="M313 1225h131l-147 192h-107l-149 -192h131l72 98zM295 0h-100q-10 0 -16.5 6t-6.5 14v961q0 20 21 20h102q9 0 15.5 -5.5t6.5 -14.5v-961q0 -8 -6 -14t-16 -6z" />
    <glyph glyph-name="idieresis" unicode="&#xef;" horiz-adv-x="487" vert-adv-y="2437" 
d="M-25 1325q0 -47 28 -75.5t77 -28.5q48 0 75 29.5t27 74.5q0 46 -27 76.5t-75 30.5t-76.5 -30t-28.5 -77zM287 1325q0 -47 27.5 -75.5t76.5 -28.5q48 0 75.5 29.5t27.5 74.5q0 46 -27.5 76.5t-75.5 30.5t-76 -30t-28 -77zM295 0h-100q-10 0 -16.5 6t-6.5 14v961
q0 20 21 20h102q9 0 15.5 -5.5t6.5 -14.5v-961q0 -8 -6 -14t-16 -6z" />
    <glyph glyph-name="ntilde" unicode="&#xf1;" horiz-adv-x="1228" vert-adv-y="2437" 
d="M598 1290q18 -21 27.5 -30.5t30 -20t44.5 -10.5q44 0 76.5 44t42.5 89v4l-2 8q-2 2 -2 4l-10 13q-4 8 -14 18l-13 14l-4 -16l-12 -33q-12 -29 -14 -33q-20 -34 -48 -34q-15 0 -34 16q-13 13 -15 16l-18 21q-15 19 -25.5 29.5t-31 21t-44.5 10.5q-46 0 -75.5 -43
t-42.5 -92l-2 -4l2 -2q4 -6 8.5 -13t9.5 -14.5t8 -11.5l13 -20l6 22q2 4 5 15.5t5 15.5q5 14 16 33q18 34 45 34q21 0 35 -14q3 -2 17 -16q2 -2 8 -10t8 -11zM287 0h-103q-9 0 -15.5 6t-6.5 14v949q0 12 11 22t24 10h73q15 0 25 -10t10 -22v-166q110 221 363 221
q188 0 295.5 -110.5t107.5 -335.5v-558q0 -8 -6.5 -14t-15.5 -6h-103q-22 0 -22 20v558q0 305 -273 305q-144 0 -240 -117t-102 -283v-460q0 -9 -6 -16t-16 -7z" />
    <glyph glyph-name="ograve" unicode="&#xf2;" horiz-adv-x="1212" vert-adv-y="2437" 
d="M573 1417h-124l184 -192h135zM86 502q0 233 143.5 377.5t376.5 144.5t377.5 -144.5t144.5 -377.5q0 -234 -144.5 -379.5t-377.5 -145.5t-376.5 145.5t-143.5 379.5zM227 502q0 -170 105 -274.5t274 -104.5q170 0 273.5 104.5t103.5 274.5t-104 275.5t-273 105.5
t-274 -106t-105 -275z" />
    <glyph glyph-name="oacute" unicode="&#xf3;" horiz-adv-x="1212" vert-adv-y="2437" 
d="M449 1225h133l186 192h-125zM86 502q0 233 143.5 377.5t376.5 144.5t377.5 -144.5t144.5 -377.5q0 -234 -144.5 -379.5t-377.5 -145.5t-376.5 145.5t-143.5 379.5zM227 502q0 -170 105 -274.5t274 -104.5q170 0 273.5 104.5t103.5 274.5t-104 275.5t-273 105.5t-274 -106
t-105 -275z" />
    <glyph glyph-name="ocircumflex" unicode="&#xf4;" horiz-adv-x="1212" vert-adv-y="2437" 
d="M678 1225h131l-147 192h-107l-149 -192h131l71 98zM86 502q0 233 143.5 377.5t376.5 144.5t377.5 -144.5t144.5 -377.5q0 -234 -144.5 -379.5t-377.5 -145.5t-376.5 145.5t-143.5 379.5zM227 502q0 -170 105 -274.5t274 -104.5q170 0 273.5 104.5t103.5 274.5t-104 275.5
t-273 105.5t-274 -106t-105 -275z" />
    <glyph glyph-name="otilde" unicode="&#xf5;" horiz-adv-x="1212" vert-adv-y="2437" 
d="M590 1290q18 -21 27.5 -30.5t30 -20t44.5 -10.5q44 0 76.5 44t42.5 89v4l-2 8q-2 2 -2 4l-10 13q-3 6 -15 18l-12 14l-4 -16l-12 -33q-10 -24 -15 -33q-20 -34 -47 -34q-16 0 -35 16q-10 10 -14 16l-18 21q-15 19 -25.5 29.5t-31 21t-44.5 10.5q-46 0 -75.5 -43
t-42.5 -92l-3 -4l3 -2q4 -6 8.5 -13t9.5 -14.5t8 -11.5l12 -20l7 22q2 4 5 15.5t5 15.5q5 14 16 33q18 34 45 34q21 0 35 -14l16 -16q3 -4 9 -11t8 -10zM86 502q0 233 143.5 377.5t376.5 144.5t377.5 -144.5t144.5 -377.5q0 -234 -144.5 -379.5t-377.5 -145.5t-376.5 145.5
t-143.5 379.5zM227 502q0 -170 105 -274.5t274 -104.5q170 0 273.5 104.5t103.5 274.5t-104 275.5t-273 105.5t-274 -106t-105 -275z" />
    <glyph glyph-name="odieresis" unicode="&#xf6;" horiz-adv-x="1212" vert-adv-y="2437" 
d="M348 1325q0 -47 28 -75.5t77 -28.5q48 0 75 29.5t27 74.5q0 46 -27 76.5t-75 30.5t-76.5 -30t-28.5 -77zM659 1325q0 -47 28 -75.5t77 -28.5q48 0 75 29.5t27 74.5q0 46 -27 76.5t-75 30.5t-76.5 -30t-28.5 -77zM86 502q0 233 143.5 377.5t376.5 144.5t377.5 -144.5
t144.5 -377.5q0 -234 -144.5 -379.5t-377.5 -145.5t-376.5 145.5t-143.5 379.5zM227 502q0 -170 105 -274.5t274 -104.5q170 0 273.5 104.5t103.5 274.5t-104 275.5t-273 105.5t-274 -106t-105 -275z" />
    <glyph glyph-name="divide" unicode="&#xf7;" horiz-adv-x="1241" vert-adv-y="2437" 
d="M625 836q-52 0 -84.5 31.5t-32.5 82.5t32 82t85 31q51 0 80.5 -31t29.5 -82t-29.5 -82.5t-80.5 -31.5zM150 735h944q9 0 15.5 -6.5t6.5 -15.5v-105q0 -9 -6.5 -15.5t-15.5 -6.5h-944q-10 0 -16.5 6.5t-6.5 15.5v105q0 9 6.5 15.5t16.5 6.5zM625 262q-53 0 -85 31t-32 82
t32 81.5t85 30.5q51 0 80.5 -30.5t29.5 -81.5t-29.5 -82t-80.5 -31z" />
    <glyph glyph-name="oslash" unicode="&#xf8;" horiz-adv-x="1212" vert-adv-y="2437" 
d="M195 -70l88 148q-94 68 -145.5 177.5t-51.5 246.5q0 233 143.5 377.5t376.5 144.5q117 0 215 -39l64 107q7 14 30 14h107q21 0 14 -14l-100 -170q92 -68 142 -176.5t50 -243.5q0 -234 -144.5 -379.5t-377.5 -145.5q-116 0 -209 37l-49 -84q-10 -14 -33 -14h-108
q-19 0 -12 14zM606 883q-169 0 -274 -106t-105 -275q0 -94 34.5 -170.5t96.5 -126.5l390 655q-71 23 -142 23zM860 795l-387 -652q59 -20 133 -20q170 0 273.5 104.5t103.5 274.5q0 186 -123 293z" />
    <glyph glyph-name="ugrave" unicode="&#xf9;" horiz-adv-x="1228" vert-adv-y="2437" 
d="M582 1417h-125l184 -192h135zM565 -23q-188 0 -295.5 111t-107.5 338v555q0 9 6 14.5t14 5.5h105q22 0 22 -20v-559q0 -301 271 -301q145 0 240.5 115.5t103.5 281.5v461q0 22 22 22h103q9 0 15.5 -5.5t6.5 -14.5v-946q0 -14 -11 -24.5t-24 -10.5h-75q-14 0 -23.5 10
t-9.5 25v166q-113 -224 -363 -224z" />
    <glyph glyph-name="uacute" unicode="&#xfa;" horiz-adv-x="1228" vert-adv-y="2437" 
d="M457 1225h133l186 192h-125zM565 -23q-188 0 -295.5 111t-107.5 338v555q0 9 6 14.5t14 5.5h105q22 0 22 -20v-559q0 -301 271 -301q145 0 240.5 115.5t103.5 281.5v461q0 22 22 22h103q9 0 15.5 -5.5t6.5 -14.5v-946q0 -14 -11 -24.5t-24 -10.5h-75q-14 0 -23.5 10
t-9.5 25v166q-113 -224 -363 -224z" />
    <glyph glyph-name="ucircumflex" unicode="&#xfb;" horiz-adv-x="1228" vert-adv-y="2437" 
d="M686 1225h131l-147 192h-107l-149 -192h131l71 98zM565 -23q-188 0 -295.5 111t-107.5 338v555q0 9 6 14.5t14 5.5h105q22 0 22 -20v-559q0 -301 271 -301q145 0 240.5 115.5t103.5 281.5v461q0 22 22 22h103q9 0 15.5 -5.5t6.5 -14.5v-946q0 -14 -11 -24.5t-24 -10.5
h-75q-14 0 -23.5 10t-9.5 25v166q-113 -224 -363 -224z" />
    <glyph glyph-name="udieresis" unicode="&#xfc;" horiz-adv-x="1228" vert-adv-y="2437" 
d="M356 1325q0 -47 28 -75.5t77 -28.5q48 0 75 29.5t27 74.5q0 46 -27 76.5t-75 30.5t-76.5 -30t-28.5 -77zM668 1325q0 -47 27.5 -75.5t76.5 -28.5q48 0 75 29.5t27 74.5q0 46 -27 76.5t-75 30.5t-76 -30t-28 -77zM565 -23q-188 0 -295.5 111t-107.5 338v555q0 9 6 14.5
t14 5.5h105q22 0 22 -20v-559q0 -301 271 -301q145 0 240.5 115.5t103.5 281.5v461q0 22 22 22h103q9 0 15.5 -5.5t6.5 -14.5v-946q0 -14 -11 -24.5t-24 -10.5h-75q-14 0 -23.5 10t-9.5 25v166q-113 -224 -363 -224z" />
    <glyph glyph-name="yacute" unicode="&#xfd;" horiz-adv-x="1028" vert-adv-y="2437" 
d="M356 1225h133l187 192h-125zM360 -516h-104q-14 0 -20 8t0 23l200 489l-411 969q-9 28 20 28h117q24 0 31 -20l315 -801l328 801q7 20 30 20h117q14 0 20 -8.5t1 -19.5l-615 -1469q-8 -20 -29 -20z" />
    <glyph glyph-name="ydieresis" unicode="&#xff;" horiz-adv-x="1028" vert-adv-y="2437" 
d="M256 1325q0 -47 27.5 -75.5t76.5 -28.5q48 0 75.5 29.5t27.5 74.5q0 46 -27.5 76.5t-75.5 30.5t-76 -30t-28 -77zM567 1325q0 -47 28 -75.5t77 -28.5q48 0 75 29.5t27 74.5q0 46 -27 76.5t-75 30.5t-76.5 -30t-28.5 -77zM360 -516h-104q-14 0 -20 8t0 23l200 489
l-411 969q-9 28 20 28h117q24 0 31 -20l315 -801l328 801q7 20 30 20h117q14 0 20 -8.5t1 -19.5l-615 -1469q-8 -20 -29 -20z" />
    <glyph glyph-name="Cacute" unicode="&#x106;" horiz-adv-x="1544" vert-adv-y="2437" 
d="M616 1798h134l186 193h-125zM897 -23q-177 0 -326.5 59t-253 164.5t-161.5 255.5t-58 328q0 156 45 289t121.5 227t179 160t217.5 97.5t236 31.5q334 0 561 -211q8 -6 8 -14t-8 -14l-78 -72q-4 -8 -14 -8q-8 0 -16 8q-183 158 -453 158q-286 0 -463.5 -180.5
t-177.5 -473.5q0 -292 176 -470.5t465 -178.5q271 0 449 158l8 4h10q14 0 16 -4l80 -74q16 -17 0 -33q-111 -103 -256.5 -155t-306.5 -52z" />
    <glyph glyph-name="cacute" unicode="&#x107;" horiz-adv-x="1126" vert-adv-y="2437" 
d="M406 1225h133l186 192h-125zM946 295q11 0 15 -4l75 -68q9 -4 9.5 -13.5t-5.5 -16.5q-67 -102 -179.5 -159t-254.5 -57q-233 0 -376.5 145.5t-143.5 379.5q0 128 45 230.5t120 165.5t168 96t193 32q130 0 244.5 -55.5t183.5 -159.5q6 -9 5.5 -19t-9.5 -14l-75 -65
q-8 -8 -15 -8q-13 0 -20 14q-51 75 -134 118.5t-186 43.5q-169 0 -274 -105t-105 -274q0 -170 105 -274.5t274 -104.5q104 0 187 42t133 118q5 12 20 12z" />
    <glyph glyph-name="Ccircumflex" unicode="&#x108;" horiz-adv-x="1544" vert-adv-y="2437" 
d="M846 1798h131l-148 193h-106l-150 -193h132l71 98zM897 -23q-177 0 -326.5 59t-253 164.5t-161.5 255.5t-58 328q0 156 45 289t121.5 227t179 160t217.5 97.5t236 31.5q334 0 561 -211q8 -6 8 -14t-8 -14l-78 -72q-4 -8 -14 -8q-8 0 -16 8q-183 158 -453 158
q-286 0 -463.5 -180.5t-177.5 -473.5q0 -292 176 -470.5t465 -178.5q271 0 449 158l8 4h10q14 0 16 -4l80 -74q16 -17 0 -33q-111 -103 -256.5 -155t-306.5 -52z" />
    <glyph glyph-name="ccircumflex" unicode="&#x109;" horiz-adv-x="1126" vert-adv-y="2437" 
d="M635 1225h131l-148 192h-106l-150 -192h132l71 98zM946 295q11 0 15 -4l75 -68q9 -4 9.5 -13.5t-5.5 -16.5q-67 -102 -179.5 -159t-254.5 -57q-233 0 -376.5 145.5t-143.5 379.5q0 128 45 230.5t120 165.5t168 96t193 32q130 0 244.5 -55.5t183.5 -159.5q6 -9 5.5 -19
t-9.5 -14l-75 -65q-8 -8 -15 -8q-13 0 -20 14q-51 75 -134 118.5t-186 43.5q-169 0 -274 -105t-105 -274q0 -170 105 -274.5t274 -104.5q104 0 187 42t133 118q5 12 20 12z" />
    <glyph glyph-name="Ccaron" unicode="&#x10c;" horiz-adv-x="1544" vert-adv-y="2437" 
d="M723 1798h106l148 193h-131l-70 -99l-71 99h-132zM897 -23q-177 0 -326.5 59t-253 164.5t-161.5 255.5t-58 328q0 156 45 289t121.5 227t179 160t217.5 97.5t236 31.5q334 0 561 -211q8 -6 8 -14t-8 -14l-78 -72q-4 -8 -14 -8q-8 0 -16 8q-183 158 -453 158
q-286 0 -463.5 -180.5t-177.5 -473.5q0 -292 176 -470.5t465 -178.5q271 0 449 158l8 4h10q14 0 16 -4l80 -74q16 -17 0 -33q-111 -103 -256.5 -155t-306.5 -52z" />
    <glyph glyph-name="ccaron" unicode="&#x10d;" horiz-adv-x="1126" vert-adv-y="2437" 
d="M512 1225h106l148 192h-131l-70 -98l-71 98h-132zM946 295q11 0 15 -4l75 -68q9 -4 9.5 -13.5t-5.5 -16.5q-67 -102 -179.5 -159t-254.5 -57q-233 0 -376.5 145.5t-143.5 379.5q0 128 45 230.5t120 165.5t168 96t193 32q130 0 244.5 -55.5t183.5 -159.5q6 -9 5.5 -19
t-9.5 -14l-75 -65q-8 -8 -15 -8q-13 0 -20 14q-51 75 -134 118.5t-186 43.5q-169 0 -274 -105t-105 -274q0 -170 105 -274.5t274 -104.5q104 0 187 42t133 118q5 12 20 12z" />
    <glyph glyph-name="Itilde" unicode="&#x128;" horiz-adv-x="546" vert-adv-y="2437" 
d="M246 1864q18 -21 27 -30.5t30 -20.5t45 -11q44 0 76.5 44t42.5 89v4l-2 9q-2 2 -2 4l-10 12q-3 6 -15 18l-12 15l-4 -17l-12 -32q-10 -24 -15 -33q-21 -35 -47 -35q-16 0 -35 16q-8 8 -14 17l-18 20q-15 19 -25.5 30t-31 21.5t-44.5 10.5q-46 0 -76 -43t-43 -92l-2 -5
l2 -2q5 -8 14.5 -21t12.5 -17l12 -21l6 23q2 5 6 15.5t5 14.5q5 14 16 33q18 35 45 35q21 0 35 -14q3 -2 8.5 -8.5t7.5 -8.5q3 -4 9 -10.5t8 -9.5zM332 0h-115q-10 0 -16 6t-6 14v1526q0 23 20 23h115q9 0 15.5 -6.5t6.5 -16.5v-1526q0 -8 -6 -14t-14 -6z" />
    <glyph glyph-name="itilde" unicode="&#x129;" horiz-adv-x="487" vert-adv-y="2437" 
d="M217 1290q18 -21 27.5 -30.5t30 -20t44.5 -10.5q44 0 76.5 44t42.5 89v4l-2 8q-2 2 -2 4l-10 13q-4 8 -14 18l-13 14l-4 -16l-12 -33q-12 -29 -14 -33q-20 -34 -48 -34q-15 0 -34 16q-13 13 -15 16l-18 21q-15 19 -25.5 29.5t-30.5 21t-44 10.5q-46 0 -76 -43t-43 -92
l-2 -4l2 -2q4 -6 8.5 -13t9.5 -14.5t8 -11.5l13 -20l6 22q2 4 5 15.5t5 15.5q5 14 16 33q18 34 46 34q20 0 34 -14q3 -2 17 -16q2 -2 8 -10t8 -11zM295 0h-100q-10 0 -16.5 6t-6.5 14v961q0 20 21 20h102q9 0 15.5 -5.5t6.5 -14.5v-961q0 -8 -6 -14t-16 -6z" />
    <glyph glyph-name="dotlessi" unicode="&#x131;" horiz-adv-x="487" vert-adv-y="2437" 
d="M295 0h-100q-10 0 -16.5 6t-6.5 14v961q0 20 21 20h102q9 0 15.5 -5.5t6.5 -14.5v-961q0 -8 -6 -14t-16 -6z" />
    <glyph glyph-name="Nacute" unicode="&#x143;" horiz-adv-x="1607" vert-adv-y="2437" 
d="M647 1798h133l187 193h-125zM330 0h-113q-10 0 -16 7t-6 16v1523q0 23 22 23h145q15 0 25 -17l868 -1312v1306q0 23 23 23h115q8 0 14 -6.5t6 -16.5v-1523q0 -9 -6.5 -16t-15.5 -7h-144q-6 0 -24 12l-871 1315v-1304q0 -9 -6.5 -16t-15.5 -7z" />
    <glyph glyph-name="nacute" unicode="&#x144;" horiz-adv-x="1228" vert-adv-y="2437" 
d="M457 1225h133l186 192h-125zM287 0h-103q-9 0 -15.5 6t-6.5 14v949q0 12 11 22t24 10h73q15 0 25 -10t10 -22v-166q110 221 363 221q188 0 295.5 -110.5t107.5 -335.5v-558q0 -8 -6.5 -14t-15.5 -6h-103q-22 0 -22 20v558q0 305 -273 305q-144 0 -240 -117t-102 -283
v-460q0 -9 -6 -16t-16 -7z" />
    <glyph glyph-name="Ncaron" unicode="&#x147;" horiz-adv-x="1607" vert-adv-y="2437" 
d="M754 1798h106l148 193h-131l-70 -99l-72 99h-131zM330 0h-113q-10 0 -16 7t-6 16v1523q0 23 22 23h145q15 0 25 -17l868 -1312v1306q0 23 23 23h115q8 0 14 -6.5t6 -16.5v-1523q0 -9 -6.5 -16t-15.5 -7h-144q-6 0 -24 12l-871 1315v-1304q0 -9 -6.5 -16t-15.5 -7z" />
    <glyph glyph-name="ncaron" unicode="&#x148;" horiz-adv-x="1228" vert-adv-y="2437" 
d="M563 1225h107l147 192h-131l-70 -98l-71 98h-131zM287 0h-103q-9 0 -15.5 6t-6.5 14v949q0 12 11 22t24 10h73q15 0 25 -10t10 -22v-166q110 221 363 221q188 0 295.5 -110.5t107.5 -335.5v-558q0 -8 -6.5 -14t-15.5 -6h-103q-22 0 -22 20v558q0 305 -273 305
q-144 0 -240 -117t-102 -283v-460q0 -9 -6 -16t-16 -7z" />
    <glyph glyph-name="OE" unicode="&#x152;" horiz-adv-x="2465" vert-adv-y="2437" 
d="M2388 1425h-680v-553h629q22 0 22 -22v-100q0 -9 -6 -16t-16 -7h-629v-582h700q10 0 16.5 -6.5t6.5 -15.5v-103q0 -8 -6 -14t-15 -6h-837q-10 0 -16.5 7t-6.5 16v251q-105 -141 -271.5 -217.5t-375.5 -76.5q-363 0 -584 221t-221 583q0 238 99.5 421t282.5 283.5
t423 100.5q209 0 375.5 -77t271.5 -218v252q0 23 23 23h815q22 0 22 -23v-98q0 -23 -22 -23zM1546 784q0 293 -177 472.5t-466 179.5q-290 0 -468.5 -179.5t-178.5 -472.5t178 -472t469 -179q289 0 466 179t177 472z" />
    <glyph glyph-name="oe" unicode="&#x153;" horiz-adv-x="2070" vert-adv-y="2437" 
d="M1825 236q10 10 18 10q9 0 17 -8l73 -68q19 -16 2 -33q-69 -77 -174 -118.5t-233 -41.5q-158 0 -280.5 63.5t-190.5 178.5q-65 -115 -182.5 -178.5t-268.5 -63.5q-233 0 -376.5 145.5t-143.5 379.5q0 233 143.5 377.5t376.5 144.5q151 0 267.5 -62.5t181.5 -175.5
q67 114 182 176t266 62q246 0 384.5 -150t137.5 -415q0 -10 -6.5 -16.5t-15.5 -6.5h-873q22 -142 129 -227.5t269 -85.5q193 0 297 113zM606 123q170 0 273.5 104.5t103.5 274.5t-104 275.5t-273 105.5t-274 -106t-105 -275q0 -170 105 -274.5t274 -104.5zM1130 567h746
q-20 144 -120.5 230t-252.5 86q-151 0 -252 -86.5t-121 -229.5z" />
    <glyph glyph-name="Racute" unicode="&#x154;" horiz-adv-x="1251" vert-adv-y="2437" 
d="M664 1991h124l-186 -193h-133zM748 680l419 -653q9 -12 5.5 -19.5t-17.5 -7.5h-149q-17 0 -23 12l-403 664h-226v-653q0 -9 -6 -16t-16 -7h-115q-10 0 -16 7t-6 16v1523q0 23 22 23h447q236 0 368.5 -117.5t132.5 -329.5q0 -190 -109.5 -304.5t-307.5 -137.5zM354 1425
v-604h314q166 0 253 78.5t87 220.5q0 144 -87 224.5t-253 80.5h-314z" />
    <glyph glyph-name="racute" unicode="&#x155;" horiz-adv-x="745" vert-adv-y="2437" 
d="M215 1225h133l187 192h-125zM287 0h-103q-9 0 -15.5 6t-6.5 14v949q0 12 11 22t24 10h73q15 0 25 -10t10 -22v-166q110 221 363 221h2q10 0 23.5 -15t8.5 -30l-16 -72q-10 -24 -20 -24h-15q-144 0 -240 -117t-102 -283v-460q0 -9 -6 -16t-16 -7z" />
    <glyph glyph-name="Rcaron" unicode="&#x158;" horiz-adv-x="1251" vert-adv-y="2437" 
d="M829 1991l-147 -193h-107l-149 193h131l72 -99l69 99h131zM748 680l419 -653q9 -12 5.5 -19.5t-17.5 -7.5h-149q-17 0 -23 12l-403 664h-226v-653q0 -9 -6 -16t-16 -7h-115q-10 0 -16 7t-6 16v1523q0 23 22 23h447q236 0 368.5 -117.5t132.5 -329.5q0 -190 -109.5 -304.5
t-307.5 -137.5zM354 1425v-604h314q166 0 253 78.5t87 220.5q0 144 -87 224.5t-253 80.5h-314z" />
    <glyph glyph-name="rcaron" unicode="&#x159;" horiz-adv-x="745" vert-adv-y="2437" 
d="M322 1225h106l147 192h-131l-69 -98l-72 98h-131zM287 0h-103q-9 0 -15.5 6t-6.5 14v949q0 12 11 22t24 10h73q15 0 25 -10t10 -22v-166q110 221 363 221h2q10 0 23.5 -15t8.5 -30l-16 -72q-10 -24 -20 -24h-15q-144 0 -240 -117t-102 -283v-460q0 -9 -6 -16t-16 -7z" />
    <glyph glyph-name="Sacute" unicode="&#x15a;" horiz-adv-x="1263" vert-adv-y="2437" 
d="M475 1798h133l187 193h-125zM641 -23q-111 1 -207.5 23t-161.5 57t-100.5 60.5t-60.5 50.5q-6 5 -7.5 15t2.5 18l60 94q6 12 14 12q11 0 17 -6h4q26 -24 62 -48.5t92.5 -54t134.5 -47.5t161 -18q165 0 259 77t94 204q0 103 -93 164t-309 112q-251 60 -366 175t-121 292
q-3 185 148 309t380 123q92 -1 172.5 -18t134.5 -44t84.5 -47.5t52.5 -41.5q16 -10 9 -35l-52 -103q-5 -12 -18 -12q-8 0 -12 4q-4 0 -6 4q-23 20 -52.5 39.5t-77.5 44t-112.5 39.5t-134.5 15q-152 0 -254.5 -77t-102.5 -192q0 -79 32.5 -130t120.5 -95.5t253 -87.5
q252 -65 364.5 -161t118.5 -253q6 -215 -127.5 -338.5t-394.5 -122.5z" />
    <glyph glyph-name="sacute" unicode="&#x15b;" horiz-adv-x="892" vert-adv-y="2437" 
d="M289 1225h133l186 192h-125zM436 -20q-204 0 -354 108q-5 5 -6 15t4 20l45 78l4 4q5 8 14 8q7 0 13 -6q131 -86 288 -86q104 0 167 38.5t63 102.5q-1 65 -57.5 101t-188.5 71q-176 46 -253 115t-81 188q-3 128 99 209t266 80q171 0 297 -92q14 -8 6 -31v-6l-43 -82
q-5 -10 -17 -10q-4 0 -10 6q-112 72 -241 72q-95 0 -152 -36.5t-57 -96.5q0 -66 51.5 -100.5t189.5 -71.5q175 -52 253 -117.5t81 -181.5q6 -135 -100 -218t-281 -81z" />
    <glyph glyph-name="Scircumflex" unicode="&#x15c;" horiz-adv-x="1263" vert-adv-y="2437" 
d="M705 1798h131l-148 193h-106l-150 -193h131l72 98zM641 -23q-111 1 -207.5 23t-161.5 57t-100.5 60.5t-60.5 50.5q-6 5 -7.5 15t2.5 18l60 94q6 12 14 12q11 0 17 -6h4q26 -24 62 -48.5t92.5 -54t134.5 -47.5t161 -18q165 0 259 77t94 204q0 103 -93 164t-309 112
q-251 60 -366 175t-121 292q-3 185 148 309t380 123q92 -1 172.5 -18t134.5 -44t84.5 -47.5t52.5 -41.5q16 -10 9 -35l-52 -103q-5 -12 -18 -12q-8 0 -12 4q-4 0 -6 4q-23 20 -52.5 39.5t-77.5 44t-112.5 39.5t-134.5 15q-152 0 -254.5 -77t-102.5 -192q0 -79 32.5 -130
t120.5 -95.5t253 -87.5q252 -65 364.5 -161t118.5 -253q6 -215 -127.5 -338.5t-394.5 -122.5z" />
    <glyph glyph-name="scircumflex" unicode="&#x15d;" horiz-adv-x="892" vert-adv-y="2437" 
d="M518 1225h131l-147 192h-107l-149 -192h131l72 98zM436 -20q-204 0 -354 108q-5 5 -6 15t4 20l45 78l4 4q5 8 14 8q7 0 13 -6q131 -86 288 -86q104 0 167 38.5t63 102.5q-1 65 -57.5 101t-188.5 71q-176 46 -253 115t-81 188q-3 128 99 209t266 80q171 0 297 -92
q14 -8 6 -31v-6l-43 -82q-5 -10 -17 -10q-4 0 -10 6q-112 72 -241 72q-95 0 -152 -36.5t-57 -96.5q0 -66 51.5 -100.5t189.5 -71.5q175 -52 253 -117.5t81 -181.5q6 -135 -100 -218t-281 -81z" />
    <glyph glyph-name="Scedilla" unicode="&#x15e;" horiz-adv-x="1263" vert-adv-y="2437" 
d="M643 -123q-11 8 -22 23q-41 32 -56 82q-94 7 -176 30.5t-137.5 55t-86.5 54.5t-54 46q-6 5 -7.5 15t2.5 18l60 94q6 12 14 12q11 0 17 -6h4q26 -24 62 -48.5t92.5 -54t134.5 -47.5t161 -18q165 0 259 77t94 204q0 103 -93 164t-309 112q-251 60 -366 175t-121 292
q-3 185 148 309t380 123q92 -1 172.5 -18t134.5 -44t84.5 -47.5t52.5 -41.5q16 -10 9 -35l-52 -103q-5 -12 -18 -12q-8 0 -12 4q-4 0 -6 4q-23 20 -52.5 39.5t-77.5 44t-112.5 39.5t-134.5 15q-152 0 -254.5 -77t-102.5 -192q0 -79 32.5 -130t120.5 -95.5t253 -87.5
q252 -65 364.5 -161t118.5 -253q6 -201 -113 -323.5t-350 -134.5q8 -12 13 -17l37 -35q14 -14 26 -32q23 -38 23 -93q0 -74 -47.5 -121t-122.5 -47q-94 0 -160 76l-4 4l2 6q6 14 51 86l6 13l11 -10l20 -23q4 -3 11.5 -10t11.5 -10q27 -19 51 -19t37.5 15t13.5 40
q0 31 -18 52q-3 6 -19 22z" />
    <glyph glyph-name="scedilla" unicode="&#x15f;" horiz-adv-x="892" vert-adv-y="2437" 
d="M457 -123l-23 23q-39 39 -55 82q-161 12 -297 106q-5 5 -6 15t4 20l45 78l4 4q5 8 14 8q7 0 13 -6q131 -86 288 -86q104 0 167 38.5t63 102.5q-1 65 -57.5 101t-188.5 71q-176 46 -253 115t-81 188q-3 128 99 209t266 80q171 0 297 -92q14 -8 6 -31v-6l-43 -82
q-5 -10 -17 -10q-4 0 -10 6q-112 72 -241 72q-95 0 -152 -36.5t-57 -96.5q0 -66 51.5 -100.5t189.5 -71.5q175 -52 253 -117.5t81 -181.5q6 -119 -78 -199.5t-227 -95.5q5 -10 16 -21q5 -6 11.5 -12.5t13.5 -13t10 -9.5q22 -22 27 -32q24 -34 24 -93q0 -74 -48 -121
t-124 -47q-89 0 -159 76l-4 4l4 6q8 18 26.5 48.5t22.5 37.5l8 13l8 -10q4 -3 7.5 -6.5t8 -8.5t7.5 -8l20 -20q30 -19 51 -19q25 0 39.5 15t14.5 40t-19 52q-6 8 -20 22z" />
    <glyph glyph-name="Scaron" unicode="&#x160;" horiz-adv-x="1263" vert-adv-y="2437" 
d="M582 1798h106l148 193h-131l-70 -99l-72 99h-131zM641 -23q-111 1 -207.5 23t-161.5 57t-100.5 60.5t-60.5 50.5q-6 5 -7.5 15t2.5 18l60 94q6 12 14 12q11 0 17 -6h4q26 -24 62 -48.5t92.5 -54t134.5 -47.5t161 -18q165 0 259 77t94 204q0 103 -93 164t-309 112
q-251 60 -366 175t-121 292q-3 185 148 309t380 123q92 -1 172.5 -18t134.5 -44t84.5 -47.5t52.5 -41.5q16 -10 9 -35l-52 -103q-5 -12 -18 -12q-8 0 -12 4q-4 0 -6 4q-23 20 -52.5 39.5t-77.5 44t-112.5 39.5t-134.5 15q-152 0 -254.5 -77t-102.5 -192q0 -79 32.5 -130
t120.5 -95.5t253 -87.5q252 -65 364.5 -161t118.5 -253q6 -215 -127.5 -338.5t-394.5 -122.5z" />
    <glyph glyph-name="scaron" unicode="&#x161;" horiz-adv-x="892" vert-adv-y="2437" 
d="M395 1225h107l147 192h-131l-69 -98l-72 98h-131zM436 -20q-204 0 -354 108q-5 5 -6 15t4 20l45 78l4 4q5 8 14 8q7 0 13 -6q131 -86 288 -86q104 0 167 38.5t63 102.5q-1 65 -57.5 101t-188.5 71q-176 46 -253 115t-81 188q-3 128 99 209t266 80q171 0 297 -92
q14 -8 6 -31v-6l-43 -82q-5 -10 -17 -10q-4 0 -10 6q-112 72 -241 72q-95 0 -152 -36.5t-57 -96.5q0 -66 51.5 -100.5t189.5 -71.5q175 -52 253 -117.5t81 -181.5q6 -135 -100 -218t-281 -81z" />
    <glyph glyph-name="Utilde" unicode="&#x168;" horiz-adv-x="1505" vert-adv-y="2437" 
d="M737 1864q18 -21 27.5 -30.5t30.5 -20.5t45 -11q44 0 76 44t42 89v4l-2 9q-2 2 -2 4l-10 12q-4 8 -14 18l-12 15l-5 -17l-12 -32q-12 -29 -14 -33q-21 -35 -47 -35q-16 0 -35 16q-8 8 -14 17l-19 20q-16 20 -25.5 30t-30 21t-44.5 11q-46 0 -76 -43t-43 -92l-2 -5l2 -2
q5 -8 14.5 -21t12.5 -17l12 -21l6 23q2 4 5 15t5 15q4 11 17 33q18 35 45 35q21 0 35 -14q3 -2 8.5 -8.5t7.5 -8.5q3 -4 8.5 -10.5t7.5 -9.5zM756 -20q-260 0 -410.5 163t-150.5 471v932q0 24 22 21h115q8 0 14 -6t6 -15v-934q0 -237 108.5 -358t295.5 -121q186 0 290.5 120
t104.5 359v934q0 10 7 16.5t16 6.5h114q23 0 23 -23v-934q0 -308 -149 -470t-406 -162z" />
    <glyph glyph-name="utilde" unicode="&#x169;" horiz-adv-x="1228" vert-adv-y="2437" 
d="M598 1290q18 -21 27.5 -30.5t30 -20t44.5 -10.5q44 0 76.5 44t42.5 89v4l-2 8q-2 2 -2 4l-10 13q-4 8 -14 18l-13 14l-4 -16l-12 -33q-12 -29 -14 -33q-20 -34 -48 -34q-15 0 -34 16q-13 13 -15 16l-18 21q-15 19 -25.5 29.5t-31 21t-44.5 10.5q-46 0 -75.5 -43
t-42.5 -92l-2 -4l2 -2q4 -6 8.5 -13t9.5 -14.5t8 -11.5l13 -20l6 22q2 4 5 15.5t5 15.5q5 14 16 33q18 34 45 34q21 0 35 -14q3 -2 17 -16q2 -2 8 -10t8 -11zM565 -23q-188 0 -295.5 111t-107.5 338v555q0 9 6 14.5t14 5.5h105q22 0 22 -20v-559q0 -301 271 -301
q145 0 240.5 115.5t103.5 281.5v461q0 22 22 22h103q9 0 15.5 -5.5t6.5 -14.5v-946q0 -14 -11 -24.5t-24 -10.5h-75q-14 0 -23.5 10t-9.5 25v166q-113 -224 -363 -224z" />
    <glyph glyph-name="Uring" unicode="&#x16e;" horiz-adv-x="1505" vert-adv-y="2437" 
d="M639 1905q0 -52 32 -84.5t85 -32.5t84.5 32.5t31.5 84.5q0 51 -31.5 83.5t-84.5 32.5t-85 -32t-32 -84zM793 1905q0 -37 -37 -37t-37 37q0 20 8.5 28.5t28.5 8.5q37 0 37 -37zM756 -20q-260 0 -410.5 163t-150.5 471v932q0 24 22 21h115q8 0 14 -6t6 -15v-934
q0 -237 108.5 -358t295.5 -121q186 0 290.5 120t104.5 359v934q0 10 7 16.5t16 6.5h114q23 0 23 -23v-934q0 -308 -149 -470t-406 -162z" />
    <glyph glyph-name="uring" unicode="&#x16f;" horiz-adv-x="1228" vert-adv-y="2437" 
d="M500 1331q0 -52 31.5 -84.5t84.5 -32.5t85 32.5t32 84.5q0 51 -32 84t-85 33t-84.5 -32.5t-31.5 -84.5zM653 1331q0 -37 -37 -37q-36 0 -36 37q0 20 8 28.5t28 8.5q37 0 37 -37zM565 -23q-188 0 -295.5 111t-107.5 338v555q0 9 6 14.5t14 5.5h105q22 0 22 -20v-559
q0 -301 271 -301q145 0 240.5 115.5t103.5 281.5v461q0 22 22 22h103q9 0 15.5 -5.5t6.5 -14.5v-946q0 -14 -11 -24.5t-24 -10.5h-75q-14 0 -23.5 10t-9.5 25v166q-113 -224 -363 -224z" />
    <glyph glyph-name="Wcircumflex" unicode="&#x174;" horiz-adv-x="1943" vert-adv-y="2437" 
d="M1047 1798h131l-148 193h-106l-150 -193h131l72 98zM592 0h-94q-20 0 -27 18l-459 1528q-7 23 15 23h120q9 0 17.5 -6t9.5 -15l369 -1286l338 1286q2 9 8.5 15t15.5 6h125q18 0 29 -21l340 -1296l373 1300q3 17 18 17h125q23 0 16 -23l-461 -1528q-7 -18 -24 -18h-103
q-20 0 -24 18l-348 1348l-353 -1348q0 -7 -9 -12.5t-17 -5.5z" />
    <glyph glyph-name="wcircumflex" unicode="&#x175;" horiz-adv-x="1425" vert-adv-y="2437" 
d="M786 1225h132l-148 192h-106l-150 -192h131l72 98zM455 0h-123q-21 0 -25 18l-289 963q-4 9 0 14.5t15 5.5h123q21 0 24 -20l213 -809l238 809q1 8 9.5 14t16.5 6h109q20 0 27 -20l237 -811l213 811q1 9 9 14.5t16 5.5h125q21 0 12 -22l-287 -961q-1 -7 -8.5 -12.5
t-15.5 -5.5h-123q-21 0 -25 18l-231 807l-232 -807q-11 -18 -28 -18z" />
    <glyph glyph-name="Ycircumflex" unicode="&#x176;" horiz-adv-x="1267" vert-adv-y="2437" 
d="M707 1798h131l-148 193h-106l-150 -193h131l72 98zM692 0h-114q-10 0 -16.5 7t-6.5 16l-2 602l-539 915q-7 12 -1.5 19.5t20.5 7.5h133q22 0 31 -19l438 -778l436 778q4 8 14.5 13.5t18.5 5.5h133q29 0 16 -27l-538 -915v-602q0 -9 -7 -16t-16 -7z" />
    <glyph glyph-name="ycircumflex" unicode="&#x177;" horiz-adv-x="1028" vert-adv-y="2437" 
d="M586 1225h131l-148 192h-106l-150 -192h131l72 98zM360 -516h-104q-14 0 -20 8t0 23l200 489l-411 969q-9 28 20 28h117q24 0 31 -20l315 -801l328 801q7 20 30 20h117q14 0 20 -8.5t1 -19.5l-615 -1469q-8 -20 -29 -20z" />
    <glyph glyph-name="Ydieresis" unicode="&#x178;" horiz-adv-x="1267" vert-adv-y="2437" 
d="M377 1898q0 -47 27.5 -75.5t76.5 -28.5q48 0 75.5 29.5t27.5 74.5q0 46 -27.5 76.5t-75.5 30.5t-76 -30t-28 -77zM688 1898q0 -47 28 -75.5t77 -28.5q48 0 75 29.5t27 74.5q0 46 -27 76.5t-75 30.5t-76.5 -30t-28.5 -77zM692 0h-114q-10 0 -16.5 7t-6.5 16l-2 602
l-539 915q-7 12 -1.5 19.5t20.5 7.5h133q22 0 31 -19l438 -778l436 778q4 8 14.5 13.5t18.5 5.5h133q29 0 16 -27l-538 -915v-602q0 -9 -7 -16t-16 -7z" />
    <glyph glyph-name="Zacute" unicode="&#x179;" horiz-adv-x="1257" vert-adv-y="2437" 
d="M471 1798h133l187 193h-125zM1174 0h-1092q-41 0 -23 35l848 1390h-805q-22 0 -22 21v100q0 23 22 23h1041q19 0 24 -11t-4 -28l-848 -1385h859q22 0 22 -22v-100q0 -9 -6 -16t-16 -7z" />
    <glyph glyph-name="zacute" unicode="&#x17a;" horiz-adv-x="1007" vert-adv-y="2437" 
d="M346 1225h133l187 192h-125zM885 0h-756q-41 0 -20 35l550 837h-509q-10 0 -16.5 6.5t-6.5 14.5v86q0 22 23 22h720q21 0 27 -10.5t-6 -27.5l-549 -834h543q22 0 22 -23v-83q0 -23 -22 -23z" />
    <glyph glyph-name="Zcaron" unicode="&#x17d;" horiz-adv-x="1257" vert-adv-y="2437" 
d="M578 1798h106l147 193h-131l-69 -99l-72 99h-131zM1174 0h-1092q-41 0 -23 35l848 1390h-805q-22 0 -22 21v100q0 23 22 23h1041q19 0 24 -11t-4 -28l-848 -1385h859q22 0 22 -22v-100q0 -9 -6 -16t-16 -7z" />
    <glyph glyph-name="zcaron" unicode="&#x17e;" horiz-adv-x="1007" vert-adv-y="2437" 
d="M453 1225h106l148 192h-132l-69 -98l-72 98h-131zM885 0h-756q-41 0 -20 35l550 837h-509q-10 0 -16.5 6.5t-6.5 14.5v86q0 22 23 22h720q21 0 27 -10.5t-6 -27.5l-549 -834h543q22 0 22 -23v-83q0 -23 -22 -23z" />
    <glyph glyph-name="circumflex" unicode="&#x2c6;" horiz-adv-x="493" vert-adv-y="1894" 
d="M307 1225h131l-147 192h-107l-149 -192h131l72 98z" />
    <glyph glyph-name="caron" unicode="&#x2c7;" horiz-adv-x="550" vert-adv-y="1894" 
d="M184 1225h107l147 192h-131l-69 -98l-72 98h-131z" />
    <glyph glyph-name="ring" unicode="&#x2da;" horiz-adv-x="532" vert-adv-y="1894" 
d="M109 1331q0 -52 31.5 -84.5t84.5 -32.5t85 32.5t32 84.5q0 51 -32 84t-85 33t-84.5 -32.5t-31.5 -84.5zM262 1331q0 -37 -37 -37t-37 37q0 20 8.5 28.5t28.5 8.5q37 0 37 -37z" />
    <glyph glyph-name="tilde" unicode="&#x2dc;" horiz-adv-x="530" vert-adv-y="1894" 
d="M246 1290q18 -21 27.5 -30.5t30 -20t44.5 -10.5q44 0 76.5 44t42.5 89v4l-2 8q-2 2 -2 4l-10 13q-3 6 -15 18l-12 14l-4 -16l-12 -33q-10 -24 -15 -33q-20 -34 -47 -34q-16 0 -35 16q-10 10 -14 16l-18 21q-15 19 -25.5 29.5t-31 21t-44.5 10.5q-46 0 -76 -43t-43 -92
l-2 -4l2 -2q5 -8 15 -22t12 -17l12 -20l6 22q2 4 5.5 15.5t5.5 15.5q5 14 16 33q18 34 45 34q21 0 35 -14q3 -2 5.5 -4.5t5.5 -6t5 -5.5q3 -4 9 -11t8 -10z" />
    <glyph glyph-name="Wgrave" unicode="&#x1e80;" horiz-adv-x="1943" vert-adv-y="2437" 
d="M942 1991h-125l184 -193h136zM592 0h-94q-20 0 -27 18l-459 1528q-7 23 15 23h120q9 0 17.5 -6t9.5 -15l369 -1286l338 1286q2 9 8.5 15t15.5 6h125q18 0 29 -21l340 -1296l373 1300q3 17 18 17h125q23 0 16 -23l-461 -1528q-7 -18 -24 -18h-103q-20 0 -24 18l-348 1348
l-353 -1348q0 -7 -9 -12.5t-17 -5.5z" />
    <glyph glyph-name="wgrave" unicode="&#x1e81;" horiz-adv-x="1425" vert-adv-y="2437" 
d="M680 1417h-125l184 -192h135zM455 0h-123q-21 0 -25 18l-289 963q-4 9 0 14.5t15 5.5h123q21 0 24 -20l213 -809l238 809q1 8 9.5 14t16.5 6h109q20 0 27 -20l237 -811l213 811q1 9 9 14.5t16 5.5h125q21 0 12 -22l-287 -961q-1 -7 -8.5 -12.5t-15.5 -5.5h-123
q-21 0 -25 18l-231 807l-232 -807q-11 -18 -28 -18z" />
    <glyph glyph-name="Wacute" unicode="&#x1e82;" horiz-adv-x="1943" vert-adv-y="2437" 
d="M817 1798h133l187 193h-125zM592 0h-94q-20 0 -27 18l-459 1528q-7 23 15 23h120q9 0 17.5 -6t9.5 -15l369 -1286l338 1286q2 9 8.5 15t15.5 6h125q18 0 29 -21l340 -1296l373 1300q3 17 18 17h125q23 0 16 -23l-461 -1528q-7 -18 -24 -18h-103q-20 0 -24 18l-348 1348
l-353 -1348q0 -7 -9 -12.5t-17 -5.5z" />
    <glyph glyph-name="wacute" unicode="&#x1e83;" horiz-adv-x="1425" vert-adv-y="2437" 
d="M555 1225h133l186 192h-124zM455 0h-123q-21 0 -25 18l-289 963q-4 9 0 14.5t15 5.5h123q21 0 24 -20l213 -809l238 809q1 8 9.5 14t16.5 6h109q20 0 27 -20l237 -811l213 811q1 9 9 14.5t16 5.5h125q21 0 12 -22l-287 -961q-1 -7 -8.5 -12.5t-15.5 -5.5h-123
q-21 0 -25 18l-231 807l-232 -807q-11 -18 -28 -18z" />
    <glyph glyph-name="Wdieresis" unicode="&#x1e84;" horiz-adv-x="1943" vert-adv-y="2437" 
d="M717 1898q0 -47 27.5 -75.5t76.5 -28.5q48 0 75.5 29.5t27.5 74.5q0 46 -27.5 76.5t-75.5 30.5t-76 -30t-28 -77zM1028 1898q0 -47 28 -75.5t77 -28.5q48 0 75 29.5t27 74.5q0 46 -27 76.5t-75 30.5t-76.5 -30t-28.5 -77zM592 0h-94q-20 0 -27 18l-459 1528q-7 23 15 23
h120q9 0 17.5 -6t9.5 -15l369 -1286l338 1286q2 9 8.5 15t15.5 6h125q18 0 29 -21l340 -1296l373 1300q3 17 18 17h125q23 0 16 -23l-461 -1528q-7 -18 -24 -18h-103q-20 0 -24 18l-348 1348l-353 -1348q0 -7 -9 -12.5t-17 -5.5z" />
    <glyph glyph-name="wdieresis" unicode="&#x1e85;" horiz-adv-x="1425" vert-adv-y="2437" 
d="M457 1325q0 -47 27.5 -75.5t76.5 -28.5q48 0 75.5 29.5t27.5 74.5q0 46 -27.5 76.5t-75.5 30.5t-76 -30t-28 -77zM768 1325q0 -47 27.5 -75.5t76.5 -28.5q48 0 75.5 29.5t27.5 74.5q0 46 -27.5 76.5t-75.5 30.5t-76 -30t-28 -77zM455 0h-123q-21 0 -25 18l-289 963
q-4 9 0 14.5t15 5.5h123q21 0 24 -20l213 -809l238 809q1 8 9.5 14t16.5 6h109q20 0 27 -20l237 -811l213 811q1 9 9 14.5t16 5.5h125q21 0 12 -22l-287 -961q-1 -7 -8.5 -12.5t-15.5 -5.5h-123q-21 0 -25 18l-231 807l-232 -807q-11 -18 -28 -18z" />
    <glyph glyph-name="endash" unicode="&#x2013;" horiz-adv-x="1308" vert-adv-y="2437" 
d="M1116 586h-921q-10 0 -16.5 6.5t-6.5 15.5v105q0 9 6.5 15.5t16.5 6.5h921q9 0 16 -6.5t7 -15.5v-105q0 -9 -7 -15.5t-16 -6.5z" />
    <glyph glyph-name="emdash" unicode="&#x2014;" horiz-adv-x="1910" vert-adv-y="2437" 
d="M1716 584h-1521q-23 0 -23 22v105q0 9 6.5 15.5t16.5 6.5h1521q10 0 16.5 -6.5t6.5 -15.5v-105q0 -22 -23 -22z" />
    <glyph glyph-name="quoteleft" unicode="&#x2018;" horiz-adv-x="471" vert-adv-y="2437" 
d="M328 997q-9 0 -13 4q-59 31 -110.5 95t-81.5 139.5t-39.5 155.5t16.5 143q12 37 43 58.5t74 21.5q57 0 91 -36t34 -95q0 -56 -34 -90.5t-91 -34.5q13 -157 164 -275q15 -12 4 -30l-37 -45q-11 -11 -20 -11z" />
    <glyph glyph-name="quoteright" unicode="&#x2019;" horiz-adv-x="473" vert-adv-y="2437" 
d="M145 997q-9 0 -20 11l-37 45q-11 18 4 30q151 117 166 275q-58 0 -92.5 34.5t-34.5 90.5q0 59 34 95t91 36q42 0 72.5 -21.5t44.5 -58.5q25 -63 15.5 -143t-39.5 -155.5t-81 -139.5t-110 -95q-8 -4 -13 -4z" />
    <glyph glyph-name="quotesinglbase" unicode="&#x201a;" horiz-adv-x="473" vert-adv-y="1894" 
d="M145 -358q-10 0 -20 10l-37 45q-11 19 4 31q151 117 166 274q-58 0 -92.5 34.5t-34.5 90.5q0 59 34 95t91 36q42 0 72.5 -21.5t44.5 -58.5q25 -63 15.5 -143t-39.5 -155t-81 -139t-110 -95q-8 -4 -13 -4z" />
    <glyph glyph-name="quotedblleft" unicode="&#x201c;" horiz-adv-x="815" vert-adv-y="2437" 
d="M330 997q-9 0 -13 4q-59 31 -110.5 95t-81.5 139.5t-39.5 155.5t16.5 143q14 37 44.5 58.5t72.5 21.5q57 0 90 -36t33 -95q0 -56 -33.5 -90.5t-91.5 -34.5q15 -158 166 -275q15 -12 4 -30l-37 -45q-15 -11 -20 -11zM674 997q-3 0 -15 4q-58 31 -109 95t-80.5 139.5
t-39.5 155.5t14 143q14 37 45.5 58.5t73.5 21.5q56 0 90.5 -36.5t34.5 -94.5q0 -55 -35 -90t-90 -35q15 -158 162 -275q17 -11 6 -30l-37 -45q-11 -11 -20 -11z" />
    <glyph glyph-name="quotedblright" unicode="&#x201d;" horiz-adv-x="813" vert-adv-y="2437" 
d="M145 997q-9 0 -20 11l-37 45q-11 18 4 30q151 118 164 275q-57 0 -91 34.5t-34 90.5q0 59 34 95t91 36q42 0 72.5 -21.5t44.5 -58.5q25 -63 15.5 -143t-39.5 -155.5t-81 -139.5t-110 -95q-8 -4 -13 -4zM487 997q-5 0 -20 11l-35 45q-11 18 4 30q149 119 164 275
q-57 0 -91 34.5t-34 90.5q0 59 34 95t91 36q41 0 72 -21.5t45 -58.5q25 -63 15 -143t-40 -155.5t-81 -139.5t-109 -95q-8 -4 -15 -4z" />
    <glyph glyph-name="quotedblbase" unicode="&#x201e;" horiz-adv-x="813" vert-adv-y="1894" 
d="M145 -352q-10 0 -20 10l-37 45q-11 19 4 31q151 118 164 274q-57 0 -91 34.5t-34 90.5q0 59 34 95t91 36q42 0 72.5 -21.5t44.5 -58.5q25 -63 15.5 -143t-39.5 -155t-81 -139t-110 -95q-8 -4 -13 -4zM487 -352q-7 0 -20 10l-35 45q-11 19 4 31q149 119 164 274
q-57 0 -91 34.5t-34 90.5q0 59 34 95t91 36q41 0 72 -21.5t45 -58.5q25 -63 15 -143t-40 -155t-81 -139t-109 -95q-8 -4 -15 -4z" />
    <glyph glyph-name="dagger" unicode="&#x2020;" horiz-adv-x="802" vert-adv-y="2437" 
d="M90 588h227v960q0 19 21 19h102q23 0 23 -19v-960h225q10 0 16.5 -7t6.5 -16v-104q0 -9 -6.5 -16t-16.5 -7h-225v-418q0 -8 -6.5 -14t-16.5 -6h-100q-10 0 -16.5 6t-6.5 14v418h-227q-10 0 -16 7t-6 16v104q0 9 6 16t16 7z" />
    <glyph glyph-name="bullet" unicode="&#x2022;" horiz-adv-x="530" vert-adv-y="1894" 
d="M109 723q0 -52 31.5 -84.5t84.5 -32.5t84 32.5t31 84.5q0 51 -31 84t-84 33t-84.5 -32.5t-31.5 -84.5z" />
    <glyph glyph-name="ellipsis" unicode="&#x2026;" horiz-adv-x="2902" vert-adv-y="2437" 
d="M297 -23q-55 0 -90 35.5t-35 91.5q0 57 34.5 91t90.5 34q57 0 91 -34t34 -91q0 -56 -34.5 -91.5t-90.5 -35.5zM893 -23q-55 0 -90 35.5t-35 91.5q0 57 34.5 91t90.5 34q57 0 91 -34t34 -91q0 -56 -34.5 -91.5t-90.5 -35.5zM1489 -23q-55 0 -90 35.5t-35 91.5
q0 57 34.5 91t90.5 34q57 0 91 -34t34 -91q0 -56 -34.5 -91.5t-90.5 -35.5z" />
    <glyph glyph-name="perthousand" unicode="&#x2030;" horiz-adv-x="1443" vert-adv-y="1894" 
d="M911 596l15 -4v102q0 12 -15 19l-702 309l702 307q15 7 15 19v102l-13 -4l-14 -2q-6 -2 -14 -6l-764 -338q-12 -8 -12 -21v-116q0 -5 5 -12t7 -7l764 -340q8 -4 14 -4q2 -1 6 -2t6 -2zM1294 596l13 -4v102q0 14 -15 19l-700 309l700 307q15 5 15 19v102l-13 -4
q-2 0 -6.5 -1t-7.5 -1l-14 -6l-762 -338q-15 -8 -15 -21v-116q0 -6 6 -12.5t9 -6.5l762 -340q8 -4 14 -4q2 -1 7 -2t7 -2z" />
    <glyph glyph-name="guilsinglleft" unicode="&#x2039;" horiz-adv-x="1107" vert-adv-y="1894" 
d="M983 590l12 -4v102q0 14 -14 19l-700 309l700 307q14 7 14 18v103l-12 -4q-2 0 -6.5 -1t-7.5 -1l-15 -6l-761 -338q-15 -8 -15 -21v-117q0 -6 6 -12t9 -6l761 -340q8 -4 15 -4q3 -1 7.5 -2t6.5 -2z" />
    <glyph glyph-name="guilsinglright" unicode="&#x203a;" horiz-adv-x="1028" vert-adv-y="1894" 
d="M190 582l-12 -4v102q0 13 15 18l700 308l-700 309q-4 0 -9.5 5t-5.5 13v103l12 -4l15 -5q2 -1 7 -2t7 -2l762 -340q14 -3 14 -20v-117q0 -4 -5 -10t-9 -8l-762 -338l-14 -6q-3 0 -8 -1t-7 -1z" />
    <glyph glyph-name="Euro" unicode="&#x20ac;" horiz-adv-x="1775" vert-adv-y="2437" 
d="M1507 309l84 -71q12 -11 13 -25t-9 -25q-98 -102 -235.5 -158.5t-304.5 -56.5q-266 0 -465 143.5t-273 383.5h-184q-13 0 -23 10t-10 22v80q0 14 10 24.5t23 10.5h158q-8 44 -8 107q0 59 8 106h-158q-13 0 -23 10t-10 23v80q0 13 10 23t23 10h184q75 241 275.5 382.5
t466.5 141.5q325 0 526 -211q20 -23 -2 -49l-84 -80q-22 -19 -51 0q-161 174 -393 174q-186 0 -324.5 -96t-200.5 -262h682q15 0 25 -9.5t10 -23.5v-80q0 -14 -10 -23.5t-25 -9.5h-723q-6 -52 -6 -106q0 -58 6 -107h723q15 0 25 -10.5t10 -24.5v-80q0 -12 -10 -22t-25 -10
h-684q62 -166 201 -261.5t326 -95.5q246 0 405 162q9 11 23.5 12.5t23.5 -8.5z" />
    <glyph glyph-name="trademark" unicode="&#x2122;" horiz-adv-x="1167" vert-adv-y="2437" 
d="M924 1577h49q16 0 16 -18v-519q0 -18 -16 -18h-39q-16 0 -16 18v367l-160 -375q-3 -10 -17 -10h-43q-11 0 -14 6h-2l-160 375v-363q0 -8 -5 -13t-13 -5h-33q-9 0 -15.5 6.5t-6.5 15.5v512q0 9 6.5 15t15.5 6h35q18 0 26 -8l187 -443l186 441q10 10 19 10zM25 1573h378
q8 0 13.5 -5t5.5 -12v-34q0 -7 -5.5 -12t-13.5 -5h-151v-469q0 -7 -5.5 -12.5t-13.5 -5.5h-38q-7 0 -13 6t-6 12v469h-151q-8 0 -13.5 5t-5.5 12v34q0 7 5.5 12t13.5 5z" />
    <glyph glyph-name="minus" unicode="&#x2212;" horiz-adv-x="1241" vert-adv-y="2437" 
d="M150 735h944q9 0 15.5 -6.5t6.5 -15.5v-105q0 -9 -6.5 -15.5t-15.5 -6.5h-944q-10 0 -16.5 6.5t-6.5 15.5v105q0 9 6.5 15.5t16.5 6.5z" />
    <glyph glyph-name="_FSHallmark" horiz-adv-x="2007" vert-adv-y="2437" 
d="M1866 1409h-1678v197h1678v-197zM1851 1034h-202q0 19 -15 45q-18 21 -37 35q-35 18 -47 21q-5 1 -23 3.5t-26 2.5q-48 0 -96 -25q-41 -25 -41 -59q0 -61 37 -82q57 -28 90 -35l133 -31q33 -11 59 -14q13 -1 50 -12q5 -3 20.5 -11t22.5 -12q42 -25 63 -55q22 -40 25 -88
q3 -52 -21 -101q-51 -83 -147 -118q-102 -31 -191 -31q-79 0 -137 18q-53 14 -117 56q-51 36 -86 96q-30 56 -30 131l194 -4q0 -10 8 -29q3 -30 29 -53q22 -22 51 -35q35 -18 94 -18q67 0 107 24q41 18 41 52q0 59 -160 94q-154 39 -246 88q-100 53 -100 168q0 97 66 151
q66 53 147 80q73 17 139 17q101 0 191 -37q89 -38 133 -133q22 -55 22 -99zM813 737h-403v-270h-222v833h707v-190h-485v-186h403v-187zM877 567q0 44 28 72q27 27 72 27q40 0 80 -29q33 -26 33 -70q0 -40 -33 -69q-37 -27 -80 -27q-39 0 -70 31q-30 27 -30 65zM1864 164
h-1680v198h1680v-198z" />
    <glyph glyph-name="_Fontastica" horiz-adv-x="2007" vert-adv-y="2437" 
d="M1366 692h-786v-391h-232q-2 4 -2 10v1360h1018v-209h-784v-559h786v-211zM1516 1071h-789v211h789v389h231v-1366h-1020v207h789v559zM1516 168q-15 -8 -15 -21q0 -18 10 -28q10 -13 25 -13q17 0 37 13l12 -13q-19 -22 -49 -22q-22 0 -43 12q-12 15 -18 43q-3 26 16 45
q21 21 45 21q28 0 49 -21l-12 -16q-1 2 -5.5 5t-6.5 5q-2 4 -19 4h-6q-18 -7 -20 -14zM379 86h-31v117h86v-21h-55v-32h53v-19h-53v-45zM541 203q37 0 59 -31q16 -23 4 -53q-13 -32 -51 -35l-14 -6q-17 0 -25 8q-37 15 -37 51q0 31 19 47q14 19 45 19zM743 203h23v-117h-6
q-4 -2 -8 -2q-10 0 -19 12l-12 17q-1 3 -5 8t-5 8l-25 29v-72h-27v117h23q8 -2 12 -17q23 -23 27 -28q3 -4 10 -16.5t12 -18.5v80zM854 182h-37v21h98v-21h-36v-96h-25v96zM1182 147q24 -3 24 -26q3 -25 -20 -35q-4 -2 -23 -2q-40 0 -55 18q2 2 2 4l2 5q0 4 4 8l37 -13h16
q7 9 9 7q0 18 -27 24q-4 0 -6 2t-10 2q-19 5 -19 27q-5 18 17 31q12 4 26 4q29 0 47 -10l-10 -21q-4 2 -8 2q-2 0 -6 2q-2 2 -8 2q-3 0 -5 4h-16q-8 0 -8 -8q-4 -4 8 -16q11 -2 29 -11zM1284 182h-39v21h103v-21h-37v-96h-27v96zM1425 86h-30v117h30v-117zM1671 203h33
l25 -56q1 -4 12 -32q9 -22 14 -29h-26l-11 25h-57l-10 -25h-27q33 64 47 117zM942 86l49 113h27q4 -14 12 -27q3 -4 7.5 -14.5t6.5 -12.5q1 -3 5.5 -14t5.5 -16t5 -15.5t5 -13.5h-27q-2 2 -2 10q0 1 -1 3t-2.5 5.5t-2.5 6.5h-53q-2 -4 -2 -15q-2 -2 -2 -4l-6 -6h-25z
M575 141v4q0 16 -8 27q-13 10 -28 10q-4 -4 -9 -4q-12 -3 -22 -18q-12 -15 -2 -29q9 -27 35 -27q8 0 10 2q24 6 24 35zM1004 174l-21 -43h39q-1 1 -2 5t-2 5q-2 2 -3.5 6t-2.5 5q-2 4 -2 12q-2 1 -3.5 5t-2.5 5zM1688 174l-19 -43h37q-2 2 -2 10q-5 11 -6 11q-1 2 -2 6t-2 6
q-1 1 -2.5 5t-3.5 5z" />
    </font>
</defs>
</svg>
