<?xml version="1.0" standalone="no"?>
<!DOCTYPE svg PUBLIC "-//W3C//DTD SVG 1.1//EN" "http://www.w3.org/Graphics/SVG/1.1/DTD/svg11.dtd" >
<svg xmlns="http://www.w3.org/2000/svg" xmlns:xlink="http://www.w3.org/1999/xlink" version="1.1">
<metadata>
Created by FontForge 20170731 at Tue Jul  6 17:18:29 2021
 By Aleksey,,,
Copyright (c) 2021 by Fontastica. All rights reserved.
</metadata>
<defs>
<font id="Qartella-ExtraBold" horiz-adv-x="1304" vert-adv-y="2048" >
  <font-face 
    font-family="Qartella ExtraBold"
    font-weight="800"
    font-stretch="normal"
    units-per-em="2048"
    panose-1="0 0 9 0 0 0 0 0 0 0"
    ascent="1638"
    descent="-410"
    x-height="1051"
    cap-height="1587"
    bbox="-158 -537 2486 2114"
    underline-thickness="102"
    underline-position="-307"
    unicode-range="U+000D-2212"
  />
<missing-glyph vert-adv-y="2437" 
d="M82 1556l2 5l1137 4l2 -4v-1555l-1141 -4v1554zM176 1477v-1391l952 4v1391zM367 1145h6l282 -289l291 291l80 -80l2 -4l-293 -291l289 -285v-6l-74 -73l-286 286l-291 -291l-82 80l287 297l-285 287v4z" />
    <glyph glyph-name=".notdef" vert-adv-y="2437" 
d="M82 1556l2 5l1137 4l2 -4v-1555l-1141 -4v1554zM176 1477v-1391l952 4v1391zM367 1145h6l282 -289l291 291l80 -80l2 -4l-293 -291l289 -285v-6l-74 -73l-286 286l-291 -291l-82 80l287 297l-285 287v4z" />
    <glyph glyph-name=".null" horiz-adv-x="0" vert-adv-y="0" 
 />
    <glyph glyph-name="nonmarkingreturn" horiz-adv-x="682" 
 />
    <glyph glyph-name="NULL" horiz-adv-x="0" vert-adv-y="2437" 
 />
    <glyph glyph-name="NULL" horiz-adv-x="0" vert-adv-y="2437" 
 />
    <glyph glyph-name="CR" unicode="&#xd;" horiz-adv-x="0" vert-adv-y="2437" 
 />
    <glyph glyph-name="space" unicode=" " horiz-adv-x="565" vert-adv-y="2437" 
 />
    <glyph glyph-name="exclam" unicode="!" horiz-adv-x="684" vert-adv-y="2437" 
d="M287 406h110q37 0 59.5 20.5t22.5 48.5l4 1038q0 29 -21.5 51.5t-60.5 22.5h-118q-37 0 -59.5 -22.5t-22.5 -51.5l4 -1038q0 -28 22 -48.5t60 -20.5zM342 295q-81 0 -125.5 -46t-44.5 -110q0 -63 44.5 -111t125.5 -48t125.5 48t44.5 111t-45 109.5t-125 46.5z" />
    <glyph glyph-name="quotedbl" unicode="&#x22;" horiz-adv-x="915" vert-adv-y="2437" 
d="M109 1112q-25 -25 -25 -51q0 -30 39.5 -74.5t81.5 -44.5q23 0 43 12q103 54 170 168t80 228q27 -38 80 -56q-8 -36 -43 -88q-24 -28 -41 -45q-25 -25 -52 -49q-24 -24 -24 -51q0 -31 38.5 -75t80.5 -44q21 0 45 12q78 41 137.5 121.5t88 166.5t28.5 161q0 28 -4 55
t-16.5 59t-33 55.5t-56 39.5t-81.5 16q-62 0 -104.5 -28.5t-61.5 -73.5q-46 102 -168 102q-89 0 -135.5 -52.5t-46.5 -121.5q0 -51 29 -96t86 -64q-21 -77 -88 -141q-7 -7 -23.5 -20.5t-23.5 -20.5z" />
    <glyph glyph-name="numbersign" unicode="#" horiz-adv-x="1556" vert-adv-y="2437" 
d="M205 109q-6 -36 -6 -41q0 -27 20.5 -47.5t56.5 -20.5h95q34 0 58 18t30 43l102 381h223l-45 -159l-37 -142q-7 -18 -10 -35q-8 -24 -8 -40q0 -27 23 -46.5t57 -19.5h94q35 0 57 18t29 43l105 381h208q51 0 80 41q5 9 15 33q2 4 3.5 8.5t2.5 9.5t2 7q2 5 5.5 14t4.5 12
q4 16 4 31q0 27 -22 46.5t-56 19.5h-188l66 233h180q49 0 78 41q5 8 14 31q2 4 5 12t5 12q7 21 8 25q9 22 9 33q0 26 -22 45.5t-56 19.5h-164l49 174q30 105 41 150l12 37q8 24 8 43q0 27 -22.5 47t-56.5 20h-97q-35 0 -56 -18t-28 -43l-112 -410h-224l50 174q11 45 41 150
q2 14 10 37q6 21 6 43q0 27 -21 47t-55 20h-96q-33 0 -56 -18.5t-30 -42.5l-109 -410h-182q-55 0 -80 -41q-7 -9 -16 -31l-8 -26q-9 -17 -11 -27l-6 -30q0 -26 21.5 -45t54.5 -19h164l-64 -233h-151q-56 0 -82 -43q-5 -8 -14 -31l-11 -29q-1 -2 -3.5 -10.5t-4.5 -13.5
q-1 -2 -2 -7.5t-2 -7.5l-2 -14q0 -28 22 -47t56 -19h133l-43 -159q-6 -24 -19.5 -70t-19.5 -70q-2 -10 -10 -34zM848 664h-225l63 233h223z" />
    <glyph glyph-name="dollar" unicode="$" horiz-adv-x="1355" vert-adv-y="2437" 
d="M186 125q159 -114 379 -139v-152q0 -29 21 -50.5t61 -21.5q6 0 19 -1t20 -1q31 0 45 4q29 5 47.5 23t18.5 47v152q222 23 340 147.5t118 315.5q0 77 -23.5 140t-63 108.5t-100 83.5t-124.5 63.5t-147 48.5v446q55 -11 98 -32q33 -18 55 -33q10 -6 30 -20t32 -21
q22 -16 51 -16q31 0 51 20q20 17 47 73t27 81q0 34 -27 61q-12 12 -24 21l-25 18q-134 86 -313 108q-5 30 -8 39q-20 50 -76 50h-47q-105 0 -105 -86v-5q-199 -31 -323.5 -153t-124.5 -291q0 -354 450 -481v-428q-81 18 -155.5 54.5t-120.5 84.5l-10 10h-13q-6 0 -10 2h-18
q-42 0 -89 -69.5t-47 -98.5q0 -30 33 -63q11 -11 27 -23t24 -16zM565 1337v-376q-90 33 -133 75.5t-43 116.5q0 66 48.5 114.5t127.5 69.5zM797 240v370q87 -30 134.5 -68.5t47.5 -99.5q0 -78 -47 -130.5t-135 -71.5z" />
    <glyph glyph-name="percent" unicode="%" horiz-adv-x="1751" vert-adv-y="2437" 
d="M449 0h120q24 0 45.5 12.5t32.5 30.5l873 1505q10 15 10 37q0 26 -22 44t-54 18h-117q-52 0 -75 -45l-873 -1504q-12 -20 -12 -39q0 -25 20.5 -42t51.5 -17zM485 1606q-98 0 -176 -32t-125.5 -86t-72.5 -121t-25 -142t25 -142t73 -120.5t126 -85t175 -31.5t174.5 32
t124.5 85.5t72 120.5t25 141t-25 141t-72 121.5t-124.5 86.5t-174.5 32zM485 1358q61 0 93 -36t32 -95q0 -61 -31.5 -96t-93.5 -35q-61 0 -95 36.5t-34 94.5q0 57 34.5 94t94.5 37zM1380 741q-96 0 -173.5 -32.5t-125.5 -87t-73 -121.5t-25 -140q0 -74 25 -141t73 -121
t125.5 -86t173.5 -32q98 0 176 31.5t126 85.5t73 121t25 142q0 74 -25.5 141.5t-73.5 121.5t-126 86t-175 32zM1378 489q62 0 95.5 -35.5t33.5 -93.5q0 -60 -33 -96.5t-96 -36.5q-60 0 -92.5 37t-32.5 96q0 56 33.5 92.5t91.5 36.5z" />
    <glyph glyph-name="ampersand" unicode="&#x26;" horiz-adv-x="1589" vert-adv-y="2437" 
d="M313 911q-125 -66 -185 -173.5t-60 -237.5q0 -155 84 -277t232 -189t335 -67q254 0 440 162l109 -98q12 -12 37.5 -21.5t44.5 -9.5h141q30 0 54 15.5t24 45.5q0 10 -6 19l-7 12q-20 29 -124 121q-60 55 -123 109q123 229 123 518q0 27 -23 50t-59 23h-111
q-37 0 -57.5 -20.5t-24.5 -46.5q-2 -19 -3 -56.5t-3 -56.5q-13 -123 -53 -219l-375 342l-82 76q-49 45 -82 84q-86 99 -86 178q0 73 38 120.5t112 47.5q65 0 108 -51q6 -6 18 -21t19 -20q25 -29 61 -29q30 0 103.5 51.5t73.5 87.5q0 10 -9 33q-49 94 -144.5 143.5
t-219.5 49.5q-104 0 -188 -34t-137 -91t-81 -130t-28 -153q0 -146 114 -287zM489 735l472 -428q-104 -94 -244 -94q-159 0 -266 79.5t-107 207.5q0 75 37 137t108 98z" />
    <glyph glyph-name="quotesingle" unicode="'" horiz-adv-x="583" vert-adv-y="2437" 
d="M109 1112q-25 -25 -25 -51q0 -30 39.5 -74.5t81.5 -44.5q23 0 43 12q78 41 137.5 121.5t88 166t28.5 161.5q0 28 -4 55t-16.5 59t-33 55.5t-56 39.5t-81.5 16q-89 0 -135.5 -52.5t-46.5 -121.5q0 -51 29 -96t86 -64q-21 -77 -88 -141q-7 -7 -23.5 -20.5t-23.5 -20.5z" />
    <glyph glyph-name="parenleft" unicode="(" horiz-adv-x="759" vert-adv-y="2437" 
d="M446 -342h105q31 0 52.5 16t21.5 43q0 9 -4 21q-1 3 -2.5 5.5t-4.5 5.5t-4 5q-115 179 -176 403.5t-61 440.5q0 467 241 895q11 22 11 33q0 26 -21.5 43.5t-52.5 17.5h-105q-53 0 -84 -45q-27 -39 -43 -72q-29 -60 -34 -73q-183 -388 -183 -779q0 -403 183 -778
q10 -23 34 -69q19 -41 43 -70q34 -43 84 -43z" />
    <glyph glyph-name="parenright" unicode=")" horiz-adv-x="759" vert-adv-y="2437" 
d="M209 -342h106q35 0 64 25q24 18 41 45q6 9 47 92q192 381 192 798q0 398 -192 801q-3 5 -11.5 23.5t-17.5 36.5t-18 34q-22 35 -39 48q-30 26 -66 26h-106q-31 0 -52.5 -17t-21.5 -44q0 -20 10 -37q246 -409 246 -891q0 -395 -182 -739q-10 -18 -41 -66q-4 -7 -11 -20.5
t-10 -18.5q-6 -12 -8 -18q-4 -8 -4 -19q0 -26 21.5 -42.5t52.5 -16.5z" />
    <glyph glyph-name="asterisk" unicode="*" horiz-adv-x="1034" vert-adv-y="2437" 
d="M106 1186l222 -121l-152 -170q-20 -23 -20 -49q0 -29 26 -51l76 -72q24 -21 59 -21q45 0 68 35l135 181l133 -181q22 -35 66 -35q35 0 59 21l76 72q27 23 27 51q0 24 -21 49l-149 170l221 121q37 21 37 61q0 17 -11 35q-5 12 -20 35q-7 12 -21 31t-18 26q-27 35 -70 35
q-3 0 -8 -1t-8 -1h-6h-10l-152 -102q8 140 8 206q0 28 -23 50t-59 22h-106q-38 0 -60 -22t-22 -50q0 -66 8 -206l-151 102h-11h-6q-3 0 -8 1t-8 1q-44 0 -70 -37q0 -1 -15.5 -22t-23.5 -35q-1 -1 -20 -33q-10 -30 -10 -37q0 -41 38 -59z" />
    <glyph glyph-name="plus" unicode="+" horiz-adv-x="1333" vert-adv-y="2437" 
d="M612 158h111q39 0 60.5 21t21.5 50v324h321q37 0 59.5 23.5t22.5 50.5v98q0 29 -22.5 51.5t-59.5 22.5h-321v321q0 29 -22.5 51.5t-59.5 22.5h-111q-37 0 -60.5 -23.5t-23.5 -50.5v-321h-319q-37 0 -59.5 -22.5t-22.5 -51.5v-98q0 -29 22.5 -51.5t59.5 -22.5h319v-324
q0 -27 22.5 -49t61.5 -22z" />
    <glyph glyph-name="comma" unicode="," horiz-adv-x="628" vert-adv-y="2437" 
d="M137 -164q-31 -31 -31 -59q0 -29 39.5 -74t81.5 -45q18 0 43 10q115 61 184.5 195.5t69.5 255.5q0 29 -4 56t-16 58.5t-32 54.5t-55.5 38.5t-82.5 15.5q-87 0 -134.5 -50.5t-47.5 -119.5q0 -52 29 -97.5t87 -64.5q-26 -81 -88 -141q-12 -8 -18 -14z" />
    <glyph glyph-name="hyphen" unicode="-" horiz-adv-x="999" vert-adv-y="2437" 
d="M209 555h582q37 0 59 22.5t22 51.5v98q0 29 -22 51.5t-59 22.5h-582q-37 0 -59.5 -22.5t-22.5 -51.5v-98q0 -29 22.5 -51.5t59.5 -22.5z" />
    <glyph glyph-name="period" unicode="." horiz-adv-x="708" vert-adv-y="2437" 
d="M354 319q-87 0 -134.5 -50t-47.5 -117q0 -68 48 -120t134 -52q87 0 134 51.5t47 120.5t-47 118t-134 49z" />
    <glyph glyph-name="slash" unicode="/" horiz-adv-x="944" vert-adv-y="2437" 
d="M74 0h106q52 0 86 49q12 21 21 45q9 18 16 39l84 184l234 529l172 383q149 334 149 354q0 28 -22 46t-54 18h-102q-57 0 -86 -48q-12 -21 -21 -45q-3 -7 -8.5 -21t-7.5 -20l-82 -184l-235 -526q-5 -13 -31.5 -71t-67 -148t-73.5 -164q-152 -341 -152 -357q0 -25 20.5 -44
t53.5 -19z" />
    <glyph glyph-name="zero" unicode="0" horiz-adv-x="1906" vert-adv-y="2437" 
d="M952 1567q-151 0 -276.5 -47.5t-209 -126t-141.5 -181.5t-84 -211.5t-26 -218.5t26 -218.5t84.5 -211.5t142 -181t209 -125.5t275.5 -47.5t276 47.5t211 125.5t144 180.5t86 211t27 219.5t-27 219.5t-86 211.5t-144 181t-211 125.5t-276 47.5zM952 1348q96 0 175.5 -35
t131.5 -92.5t88 -132.5t52 -152t16 -154q0 -76 -16 -153t-52.5 -151.5t-89 -131.5t-131.5 -92t-174 -35t-174 35t-131 92t-88 131.5t-51.5 151t-15.5 153.5t15.5 153.5t51 151.5t87.5 132.5t131 93t175 35.5z" />
    <glyph glyph-name="one" unicode="1" horiz-adv-x="980" vert-adv-y="2437" 
d="M526 25h84q39 0 67 26.5t28 57.5v1351q0 22 -13 45q-18 37 -61 37q-25 0 -39 -6l-426 -162q-40 -13 -51 -49q-2 -5 -4 -15.5t-2 -11.5v-24q0 -42 16 -68q22 -43 82 -43q2 0 6.5 1t5.5 1q2 0 14 4q16 4 31 9l80 28q15 6 88 35v-1132q0 -31 26.5 -57.5t67.5 -26.5z" />
    <glyph glyph-name="two" unicode="2" horiz-adv-x="1548" vert-adv-y="2437" 
d="M289 25h954q61 0 80 47q12 23 12 67q0 37 -14 64q-25 41 -78 41h-614l436 389q79 72 127 130t80.5 137.5t32.5 168.5q0 217 -154.5 357.5t-417.5 140.5q-158 0 -299.5 -56t-230.5 -161q-21 -29 -21 -52q0 -35 55 -78.5t97 -43.5q38 0 72 30l26 27q4 4 12.5 12t12.5 12
q115 91 270 91q143 0 221 -74.5t78 -198.5q0 -81 -40.5 -142.5t-125.5 -137.5l-618 -555q-34 -30 -41 -52q-2 -5 -4 -15t-2 -11v-29q0 -38 14 -65q22 -43 80 -43z" />
    <glyph glyph-name="three" unicode="3" horiz-adv-x="1628" vert-adv-y="2437" 
d="M1413 455q0 113 -65.5 202t-182.5 146q98 54 150.5 138t52.5 183q0 108 -54 194.5t-144.5 139.5t-201.5 81t-231 28q-145 0 -281.5 -39.5t-217.5 -124.5q-29 -25 -29 -57q0 -33 35 -64q33 -26 45 -33q11 -9 30 -16q20 -10 37 -10q30 0 66 26q68 57 139 78t176 21
q98 0 176 -23t128.5 -75.5t50.5 -129.5q0 -75 -49.5 -124.5t-125 -70t-172.5 -20.5h-196q-61 0 -84 -47q-10 -23 -10 -70q0 -40 14 -63q25 -41 80 -41h205q101 0 184.5 -21.5t141 -74t57.5 -129.5q0 -63 -33.5 -110.5t-90.5 -75t-125.5 -41t-146.5 -13.5q-184 0 -297 66
q-8 4 -18 14q-12 9 -27 18q-36 27 -71 27q-44 0 -92 -45.5t-48 -79.5q0 -32 29 -61q81 -78 232.5 -119t293.5 -41q99 0 193.5 17t181.5 54t152 89.5t104 129t39 167.5z" />
    <glyph glyph-name="four" unicode="4" horiz-adv-x="1603" vert-adv-y="2437" 
d="M227 352h682v-243q0 -30 26 -57t66 -27h48q35 0 53 4q72 15 72 80v243h192q61 0 84 47q12 28 12 68q0 36 -16 63q-24 39 -80 39h-192v402q0 32 -25.5 58t-67.5 26h-47q-35 0 -53 -4q-72 -15 -72 -80v-402h-442l510 836q14 21 14 47q0 35 -27.5 62.5t-72.5 27.5h-80
q-57 0 -80 -41l-588 -966q-10 -15 -10 -41q-2 -12 -2 -35q0 -39 16 -66q25 -41 80 -41z" />
    <glyph glyph-name="five" unicode="5" horiz-adv-x="1605" vert-adv-y="2437" 
d="M340 385q-43 0 -90 -48t-47 -81q0 -27 28 -63q17 -17 25 -23l23 -20q183 -152 483 -152q132 0 249 33.5t206.5 95t141.5 155t52 207.5q0 151 -90 264t-236 169.5t-323 56.5q-99 0 -178 -16l20 362h627q62 0 84 45q10 23 10 68q0 40 -14 63q-25 41 -80 41h-793
q-40 0 -66 -23.5t-28 -54.5l-37 -604q-3 -31 23 -57q23 -28 61 -60q17 -15 41 -28q34 -17 49 -17q13 0 41 11q117 47 240 47q164 0 268.5 -70t104.5 -197q0 -129 -104.5 -199.5t-268.5 -70.5q-185 0 -295 86q-8 6 -25 23q-5 4 -14 13t-14 13q-31 31 -74 31z" />
    <glyph glyph-name="six" unicode="6" horiz-adv-x="1677" vert-adv-y="2437" 
d="M803 1503l-506 -725q-84 -125 -84 -248q0 -237 176 -384.5t461 -147.5q289 0 464 149.5t175 389.5q0 104 -47.5 197t-129 159t-194.5 104.5t-239 38.5q-55 0 -82 -4l250 369q16 22 16 49q0 36 -30 64t-75 28h-79q-49 0 -76 -39zM854 795q157 0 257.5 -69.5t100.5 -193.5
q0 -145 -95 -229t-267 -84q-170 0 -266.5 84.5t-96.5 226.5q0 123 105 194t262 71z" />
    <glyph glyph-name="seven" unicode="7" horiz-adv-x="1394" vert-adv-y="2437" 
d="M190 1325h785l-664 -1165q-10 -18 -10 -41q0 -36 28 -65t74 -29h35q20 -3 41 0q56 4 80 45l735 1288q9 9 9 20v17q0 5 1 17t1 20q0 5 -5 45q-17 65 -90 65h-1020q-61 0 -84 -47q-12 -25 -12 -70q0 -23 5.5 -42.5t28.5 -38.5t62 -19z" />
    <glyph glyph-name="eight" unicode="8" horiz-adv-x="1769" vert-adv-y="2437" 
d="M1556 455q0 122 -63.5 205t-189.5 141q208 106 208 321q0 87 -35 160.5t-95 125.5t-140 88t-171 53.5t-187 17.5q-121 0 -231 -28t-198.5 -81.5t-141 -140t-52.5 -193.5q0 -102 52 -188t153 -135q-250 -114 -250 -344q0 -91 39 -168t105 -130t153 -90t182.5 -54
t194.5 -17q98 0 193 17.5t181 54.5t151 89.5t103.5 129t38.5 166.5zM883 1348q152 0 252 -57.5t100 -170.5q0 -58 -28.5 -100.5t-78.5 -66.5t-111 -35t-134 -11q-99 0 -174 19.5t-124.5 69.5t-49.5 126q0 77 49 129t125 74.5t174 22.5zM889 684q77 0 144 -12t124 -37
t90 -70.5t33 -105.5q0 -82 -57.5 -138t-142.5 -79t-191 -23t-192 22.5t-145.5 78t-59.5 137.5q0 61 33.5 106.5t91.5 71t126 37.5t146 12z" />
    <glyph glyph-name="nine" unicode="9" horiz-adv-x="1673" vert-adv-y="2437" 
d="M879 506l-250 -367q-17 -24 -17 -49q0 -36 29 -64t76 -28h76q57 4 81 39l506 725q84 125 84 250q0 237 -177 383.5t-464 146.5q-288 0 -463.5 -150.5t-175.5 -390.5q0 -139 82.5 -254t223.5 -180t309 -65q26 0 80 4zM823 1323q170 0 267.5 -85t97.5 -228
q0 -123 -104.5 -194t-262.5 -71q-155 0 -256.5 69.5t-101.5 191.5q0 147 94 232t266 85z" />
    <glyph glyph-name="colon" unicode=":" horiz-adv-x="651" vert-adv-y="2437" 
d="M326 1169q-92 0 -144.5 -53t-52.5 -127q0 -75 52 -129.5t145 -54.5q94 0 145 55t51 129q0 73 -51.5 126.5t-144.5 53.5zM326 346q-91 0 -144 -53.5t-53 -126.5q0 -75 51.5 -129.5t145.5 -54.5q95 0 145.5 54.5t50.5 129.5q0 73 -52 126.5t-144 53.5z" />
    <glyph glyph-name="semicolon" unicode=";" horiz-adv-x="688" vert-adv-y="2437" 
d="M350 1169q-92 0 -145 -53t-53 -127q0 -75 52.5 -129.5t145.5 -54.5q94 0 144.5 54.5t50.5 129.5q0 74 -51 127t-144 53zM143 -168q-28 -24 -28 -55q0 -19 26.5 -57.5t44.5 -49.5q21 -12 50 -12q26 0 43 10q58 29 107.5 84.5t80.5 119.5t48 129.5t17 119.5q0 29 -4 55.5
t-16 58t-32 54t-55.5 38t-82.5 15.5q-86 0 -135 -51t-49 -119q0 -53 30 -98t88 -64q-29 -86 -94 -145q-5 -8 -16 -15z" />
    <glyph glyph-name="less" unicode="&#x3c;" horiz-adv-x="1310" vert-adv-y="2437" 
d="M86 756v-138q0 -50 51 -73q67 -33 506 -217q489 -207 508 -207q37 0 55.5 21t18.5 44v115q0 24 -14.5 45t-41.5 31l-749 311l749 309q26 11 41 33.5t15 44.5v117q0 25 -18.5 45t-55.5 20q-22 0 -508 -206q-488 -208 -506 -217q-51 -25 -51 -78z" />
    <glyph glyph-name="equal" unicode="=" horiz-adv-x="1282" vert-adv-y="2437" 
d="M254 745h774q39 0 60.5 23.5t21.5 52.5v94q0 28 -22 51t-60 23h-774q-39 0 -60.5 -22.5t-21.5 -51.5v-94q0 -29 21.5 -52.5t60.5 -23.5zM254 426h774q39 0 60.5 22.5t21.5 51.5v96q0 27 -22.5 50.5t-59.5 23.5h-774q-37 0 -59.5 -23.5t-22.5 -50.5v-96q0 -29 21.5 -51.5
t60.5 -22.5z" />
    <glyph glyph-name="greater" unicode="&#x3e;" horiz-adv-x="1310" vert-adv-y="2437" 
d="M158 121h26l17 10q2 1 6 2t6 2l16 8q70 31 212.5 92t213.5 91l342 145q144 57 177 74q22 11 36.5 31.5t14.5 41.5v138q0 23 -14 44.5t-37 33.5q-18 9 -506 217q-486 206 -510 206q-35 0 -53.5 -20t-18.5 -45v-117q0 -55 53 -78l750 -309l-750 -311q-53 -20 -53 -76v-115
q0 -23 18 -44t54 -21z" />
    <glyph glyph-name="question" unicode="?" horiz-adv-x="1179" vert-adv-y="2437" 
d="M465 395h123q36 0 56 20t26 44l12 57q3 23 16 49q23 49 107 133q66 65 102 105.5t72 96.5t50.5 116.5t14.5 136.5q0 71 -18.5 136.5t-57.5 123.5t-94.5 101t-134 67.5t-170.5 24.5q-137 0 -254.5 -54.5t-195.5 -150.5q-17 -24 -17 -45q0 -31 55.5 -91.5t96.5 -60.5
q34 0 61 27q38 36 59 53.5t53.5 39t67 30t76.5 8.5q95 0 147 -59.5t52 -149.5q0 -59 -23 -112t-51.5 -86.5t-77.5 -80.5l-65 -61q-5 -6 -28 -29.5t-33 -38.5q-69 -79 -93 -172q-16 -56 -16 -104q0 -29 22.5 -51.5t59.5 -22.5zM535 295q-80 0 -125 -46.5t-45 -109.5
t44.5 -111t125.5 -48t126.5 47.5t45.5 111.5t-45.5 110t-126.5 46z" />
    <glyph glyph-name="at" unicode="@" horiz-adv-x="2119" vert-adv-y="2437" 
d="M1106 1606q-231 0 -418.5 -71t-308.5 -194t-185.5 -284t-64.5 -344t65 -344t186 -283t308.5 -193t417.5 -71q368 0 608 225q23 27 23 51q0 29 -60.5 90.5t-99.5 61.5q-30 0 -59 -25q-95 -79 -192 -117t-220 -38q-166 0 -302 49.5t-226 136t-138.5 204.5t-48.5 255
q0 136 48 254t137.5 206t226 138.5t303.5 50.5q144 0 264 -50t198.5 -133.5t121.5 -191.5t43 -225q0 -91 -29 -158q-36 -86 -102 -86q-46 0 -70.5 25t-24.5 69v453q0 45 -49 59q-5 2 -37 7h-28q-82 0 -105 -41q-110 79 -264 79q-92 0 -169 -27t-128.5 -72t-87.5 -105
t-52 -124.5t-16 -131.5t16.5 -132t52.5 -125.5t87.5 -106.5t128 -73.5t168.5 -27.5q202 0 322 129q96 -86 235 -86q75 0 150 30q72 29 125 80.5t81 114.5t41 125t13 125q0 132 -35 255t-108 230t-176.5 186.5t-249 125t-316.5 45.5zM1036 928q100 0 149.5 -61.5t49.5 -157.5
q0 -93 -51 -155t-148 -62q-99 0 -149.5 61.5t-50.5 155.5t50.5 156.5t149.5 62.5z" />
    <glyph glyph-name="A" unicode="A" horiz-adv-x="1536" vert-adv-y="2437" 
d="M313 793q-297 -707 -297 -727q0 -28 22 -47t56 -19h113q27 0 49 13t31 34l178 430h606l180 -430q8 -18 30.5 -32.5t47.5 -14.5h115q34 0 56 19t22 47q0 14 -136 340q-145 344 -155 366l-211 504l-76 176q-18 49 -33 80q-24 53 -84 53h-114q-60 0 -84 -53
q-61 -138 -316 -739zM973 715h-406l205 487z" />
    <glyph glyph-name="B" unicode="B" horiz-adv-x="1427" vert-adv-y="2437" 
d="M276 0h504q128 0 233 37t174 102.5t106.5 154t37.5 191.5q0 124 -58 228.5t-175 169.5q139 112 139 284q0 102 -42 183t-117 132t-175 78t-219 27h-405q-38 0 -61 -22t-23 -52v-1439q0 -29 22 -51.5t59 -22.5zM713 965h-244v383h221q127 0 199 -44.5t72 -138.5
q0 -200 -248 -200zM469 240v510q52 0 157.5 1t157.5 1q131 0 200 -75t69 -192q0 -114 -76.5 -178.5t-212.5 -64.5q-49 0 -147.5 -1t-147.5 -1z" />
    <glyph glyph-name="C" unicode="C" horiz-adv-x="1628" vert-adv-y="2437" 
d="M580 1536q-125 -53 -219.5 -134t-151 -179.5t-84 -206t-27.5 -223.5q0 -126 32.5 -243.5t100.5 -221.5t165.5 -181t236 -122t303.5 -45q167 0 328.5 54.5t263.5 155.5q22 26 22 52q0 31 -54 81.5t-85 57.5q-8 2 -22 2q-35 0 -56 -16q-11 -7 -37 -29q-20 -16 -34 -23
q-137 -86 -326 -86q-138 0 -248 46t-177.5 125t-102.5 178.5t-35 212.5q0 90 21.5 173t67 155t111 125t159 83.5t204.5 30.5q120 0 214 -32.5t185 -102.5q23 -23 56 -23q36 0 96.5 56t60.5 85t-24 50q-112 103 -265.5 159t-322.5 56q-194 0 -356 -70z" />
    <glyph glyph-name="D" unicode="D" horiz-adv-x="1605" vert-adv-y="2437" 
d="M276 0h394q205 0 368 64t264.5 174t154 251.5t52.5 303.5t-53 303.5t-154.5 252t-264 174.5t-367.5 64h-394q-39 0 -60 -22.5t-21 -51.5v-1439q0 -29 22 -51.5t59 -22.5zM670 242h-201v1106h201q141 0 251 -43.5t177.5 -120t102 -175.5t34.5 -216t-34 -215.5t-101.5 -174
t-177.5 -118.5t-252 -43z" />
    <glyph glyph-name="E" unicode="E" horiz-adv-x="1259" vert-adv-y="2437" 
d="M276 0h816q36 0 57.5 22.5t21.5 49.5v96q0 29 -22 51.5t-59 22.5h-621v446h551q37 0 59.5 22.5t22.5 49.5v96q0 27 -22.5 49.5t-59.5 22.5h-551v420h600q40 0 61 21.5t21 51.5v92q0 29 -21 51.5t-61 22.5h-793q-39 0 -60 -22.5t-21 -51.5v-1439q0 -29 22 -51.5t59 -22.5z
" />
    <glyph glyph-name="F" unicode="F" horiz-adv-x="1214" vert-adv-y="2437" 
d="M276 0h111q36 0 59 23t23 51v614h551q37 0 59.5 22.5t22.5 49.5v96q0 27 -22.5 49.5t-59.5 22.5h-551v420h598q40 0 62 21t22 52v92q0 29 -21 51.5t-61 22.5h-790q-38 0 -61 -22t-23 -52v-1439q0 -29 22 -51.5t59 -22.5z" />
    <glyph glyph-name="G" unicode="G" horiz-adv-x="1777" vert-adv-y="2437" 
d="M942 1606q-166 0 -305.5 -44.5t-238 -121t-167 -180t-101 -221.5t-32.5 -246q0 -124 29.5 -239.5t94.5 -220t158 -182t229 -123.5t300 -46q167 0 300.5 47t220 125.5t144.5 185.5t82.5 220t24.5 237q0 27 -22 50t-60 23h-667q-37 0 -59.5 -23t-22.5 -50v-95
q0 -28 22 -50.5t60 -22.5h469q-36 -185 -156 -292.5t-336 -107.5q-108 0 -198 31.5t-151.5 85t-104.5 126t-62.5 153.5t-19.5 168q0 114 36 214.5t104.5 179.5t179 125t249.5 46q120 0 211 -32t180 -103q2 -1 5 -4.5t5 -4.5l13 -6q13 -8 35 -8q34 0 95.5 58.5t61.5 84.5
q0 29 -24 50q-236 213 -582 213z" />
    <glyph glyph-name="H" unicode="H" horiz-adv-x="1605" vert-adv-y="2437" 
d="M195 1513v-1439q0 -29 22 -51.5t59 -22.5h113q37 0 58.5 23.5t21.5 50.5v614h666v-614q0 -29 21.5 -51.5t60.5 -22.5h112q36 0 59 23t23 51v1442q0 27 -22 49t-58 22h-114q-39 0 -60.5 -22.5t-21.5 -51.5v-585h-666v588q0 27 -21.5 49t-58.5 22h-113q-39 0 -60 -22.5
t-21 -51.5z" />
    <glyph glyph-name="I" unicode="I" horiz-adv-x="663" vert-adv-y="2437" 
d="M276 0h113q35 0 57.5 22.5t22.5 49.5v1441q0 29 -22.5 51.5t-59.5 22.5h-113q-38 0 -58.5 -23t-20.5 -51v-1441q0 -28 22.5 -50t58.5 -22z" />
    <glyph glyph-name="J" unicode="J" horiz-adv-x="991" vert-adv-y="2437" 
d="M35 72q0 -51 38.5 -71.5t92.5 -20.5q5 0 15.5 1t15.5 1q133 0 238.5 38.5t172.5 101t111 148.5t62 175t18 186v882q0 29 -22.5 51.5t-61.5 22.5h-113q-39 0 -60.5 -22.5t-21.5 -51.5v-882q0 -64 -8.5 -119t-31 -108.5t-58 -91t-93 -60.5t-132.5 -23q-7 0 -20.5 1t-20.5 1
q-66 0 -88 -57q0 -1 -21 -47q-12 -36 -12 -55z" />
    <glyph glyph-name="K" unicode="K" horiz-adv-x="1353" vert-adv-y="2437" 
d="M276 0h113q35 0 57.5 22.5t22.5 49.5v555l563 -596q31 -31 76 -31h158q32 0 56 16t24 45q0 22 -23 50l-668 684l600 686q21 26 21 45q0 28 -23.5 44.5t-54.5 16.5h-147q-45 0 -74 -33l-508 -583v542q0 29 -22.5 51.5t-59.5 22.5h-113q-38 0 -58.5 -23t-20.5 -51v-1441
q0 -28 22.5 -50t58.5 -22z" />
    <glyph glyph-name="L" unicode="L" horiz-adv-x="1101" vert-adv-y="2437" 
d="M276 0h682q36 0 58 22.5t22 49.5v96q0 29 -22.5 51.5t-59.5 22.5h-487v1271q0 29 -22.5 51.5t-59.5 22.5h-113q-38 0 -58.5 -23t-20.5 -51v-1441q0 -28 22.5 -50t58.5 -22z" />
    <glyph glyph-name="M" unicode="M" horiz-adv-x="1998" vert-adv-y="2437" 
d="M195 1503v-1419q0 -32 23.5 -58t68.5 -26h100q36 0 59 23t23 51v870l387 -893q9 -22 33 -36.5t53 -14.5h115q63 0 84 51l391 897v-874q0 -29 22.5 -51.5t59.5 -22.5h110q37 0 59.5 22.5t22.5 51.5v1439q0 29 -22.5 51.5t-59.5 22.5h-141q-62 0 -82 -49l-502 -1147
l-499 1145q-21 51 -105 51h-108q-43 0 -67.5 -25.5t-24.5 -58.5z" />
    <glyph glyph-name="N" unicode="N" horiz-adv-x="1693" vert-adv-y="2437" 
d="M195 1513v-1439q0 -29 22 -51.5t59 -22.5h111q36 0 59 23t23 51v1042l733 -1079q9 -14 32.5 -25.5t43.5 -11.5h139q37 0 59.5 22.5t22.5 51.5v1439q0 27 -21 50.5t-59 23.5h-110q-39 0 -60.5 -22.5t-21.5 -51.5v-1044l-733 1077q-27 41 -76 41h-142q-39 0 -60 -22.5
t-21 -51.5z" />
    <glyph glyph-name="O" unicode="O" horiz-adv-x="1878" vert-adv-y="2437" 
d="M942 1606q-166 0 -305.5 -44.5t-238 -121t-167 -180t-101 -221.5t-32.5 -246t32.5 -246t101 -221t166.5 -179.5t237.5 -120.5t306.5 -44q165 0 304.5 44t237.5 121t166.5 180t101 221t32.5 245q0 128 -32.5 246t-101 221.5t-166.5 180t-237.5 121t-304.5 44.5zM942 1358
q138 0 248 -46t178 -125t103.5 -179.5t35.5 -214.5t-35.5 -214t-103.5 -179t-178 -125t-248 -46q-139 0 -249.5 45.5t-179 124.5t-104.5 179.5t-36 214.5t36 214.5t104.5 179.5t179 125t249.5 46z" />
    <glyph glyph-name="P" unicode="P" horiz-adv-x="1327" vert-adv-y="2437" 
d="M276 0h113q37 0 59.5 22.5t22.5 51.5v565h283q261 0 406 129t145 344q0 216 -145.5 345.5t-405.5 129.5h-475q-38 0 -61 -22t-23 -52v-1439q0 -29 22 -51.5t59 -22.5zM758 881h-287v467h287q270 0 270 -238q0 -229 -270 -229z" />
    <glyph glyph-name="Q" unicode="Q" horiz-adv-x="1855" vert-adv-y="2437" 
d="M942 -18q127 0 240 26q227 -303 497 -303q109 0 226 45q2 1 14.5 6.5t19.5 7.5t21 10t16 9q47 30 47 72q0 26 -30 69q-28 35 -47 51q-29 29 -70 29q-19 0 -49 -10l-15 -6q-2 -2 -10 -6q-68 -21 -114 -21q-125 0 -254 152q93 59 162 138.5t109.5 169.5t59.5 182.5
t19 189.5q0 128 -32.5 246t-101 221.5t-166.5 180t-237.5 121t-304.5 44.5q-166 0 -305.5 -44.5t-238 -121t-167 -180t-101 -221.5t-32.5 -246t32.5 -246t101 -221t166.5 -179.5t237.5 -120.5t306.5 -44zM911 414l119 -178q-51 -7 -88 -7q-139 0 -249.5 45.5t-179 124.5
t-104.5 179.5t-36 214.5t36 214.5t104.5 179.5t179 125t249.5 46q138 0 248 -46t178 -125t103.5 -179.5t35.5 -214.5q0 -139 -53.5 -261.5t-167.5 -201.5l-233 364q-23 41 -72 41q-18 0 -71 -20.5t-70 -28.5q-45 -25 -45 -68q0 -8 4 -16l8 -16q3 -5 11 -20.5t13 -24.5
q27 -41 80 -127z" />
    <glyph glyph-name="R" unicode="R" horiz-adv-x="1345" vert-adv-y="2437" 
d="M276 0h113q37 0 59.5 22.5t22.5 51.5v565h123l375 -600q24 -39 73 -39h146q32 0 56 17.5t24 45.5q0 21 -187 302q-109 167 -194 292q186 43 279.5 165t93.5 290q0 217 -144 346t-405 129h-435q-39 0 -60 -22.5t-21 -51.5v-1439q0 -29 22 -51.5t59 -22.5zM715 881h-244
v467h244q135 0 202.5 -61t67.5 -177q0 -229 -270 -229z" />
    <glyph glyph-name="S" unicode="S" horiz-adv-x="1355" vert-adv-y="2437" 
d="M293 381l-8 8h-13q-24 4 -34 4q-42 0 -89 -69t-47 -97q0 -25 21 -49q87 -95 247.5 -146.5t315.5 -51.5q269 0 419 123.5t150 345.5q0 74 -22 136t-57 104.5t-88.5 78.5t-105 58.5t-116.5 43.5q-46 15 -142 41t-140 41q-133 46 -172 109q-23 39 -23 92q0 91 85 147t202 56
q166 0 307 -101l6 -6l8 -8q21 -16 37 -18l10 -4h17q47 0 72 41q17 21 32 59q25 48 25 72q0 30 -25 55q-83 79 -213 119.5t-264 40.5q-157 0 -287.5 -56.5t-208 -161t-77.5 -237.5q0 -105 38 -188t110 -141.5t162 -99t208 -69.5q97 -22 117 -28q52 -13 114 -41
q115 -54 115 -142q0 -102 -77 -157.5t-206 -55.5q-114 0 -220 40.5t-183 111.5z" />
    <glyph glyph-name="T" unicode="T" horiz-adv-x="1294" vert-adv-y="2437" 
d="M102 1348h408v-1276q0 -27 22 -49.5t58 -22.5h112q35 0 58.5 22t23.5 50v1276h408q38 0 60 22t22 51v92q0 29 -22.5 51.5t-59.5 22.5h-1090q-38 0 -58.5 -23.5t-20.5 -50.5v-94q0 -27 21.5 -49t57.5 -22z" />
    <glyph glyph-name="U" unicode="U" horiz-adv-x="1595" vert-adv-y="2437" 
d="M195 1513v-880q0 -98 18 -187t62.5 -175t111.5 -149t173.5 -101.5t240.5 -38.5q133 0 238 38.5t172 101t110.5 148.5t61.5 175t18 186v882q0 29 -21.5 51.5t-60.5 22.5h-113q-37 0 -59.5 -23.5t-22.5 -50.5v-882q0 -64 -8.5 -119t-31 -108.5t-58 -91t-93 -60.5
t-132.5 -23q-93 0 -160.5 34t-103.5 93.5t-52 127t-16 147.5v882q0 27 -22 49.5t-58 22.5h-117q-38 0 -57.5 -22.5t-19.5 -49.5z" />
    <glyph glyph-name="V" unicode="V" horiz-adv-x="1527" vert-adv-y="2437" 
d="M217 1585h-125q-35 0 -58.5 -18t-23.5 -49q0 -17 135 -344q145 -339 154 -363l223 -526l64 -152l14 -39q10 -26 21 -43q31 -51 86 -51h112q52 0 86 49q2 3 19 37q2 5 5 15.5t5 15.5l72 166l221 528l153 365q136 326 136 344q0 30 -23 47.5t-57 17.5h-131
q-29 0 -50.5 -14.5t-29.5 -36.5l-461 -1145l-463 1145q-9 22 -32 36.5t-52 14.5z" />
    <glyph glyph-name="W" unicode="W" horiz-adv-x="2011" vert-adv-y="2437" 
d="M205 1587h-119q-33 0 -54.5 -19t-21.5 -46q0 -7 4 -23l447 -1444q6 -23 29.5 -39t54.5 -16h92q30 0 54 16.5t30 40.5l283 1055l280 -1055q6 -23 28.5 -40t53.5 -17h100q31 0 52 16t30 37q4 9 25 82l213 680q138 445 164 533q15 44 26 86l17 51q4 16 4 20q4 16 4 17
q0 27 -22 46t-56 19h-123q-58 0 -76 -55l-301 -1022l-274 1018q-6 24 -30.5 41.5t-55.5 17.5h-123q-33 0 -54 -17.5t-28 -41.5l-272 -1010l-297 1010q-8 25 -30 42t-54 17z" />
    <glyph glyph-name="X" unicode="X" horiz-adv-x="1376" vert-adv-y="2437" 
d="M86 0h143q52 0 78 37l377 526l360 -526q24 -37 80 -37h148q31 0 54.5 16.5t23.5 44.5t-246 371q-218 308 -258 361l508 692q14 17 14 39q0 28 -23.5 44.5t-54.5 16.5h-143q-55 0 -80 -39l-377 -528l-358 530q-25 39 -76 39h-152q-32 0 -54.5 -16t-22.5 -45
q0 -24 243 -373q115 -165 256 -362q-108 -150 -260 -355q-7 -10 -72.5 -99t-99.5 -136q-53 -70 -71 -105l-9 -12q-4 -8 -4 -23q0 -27 22 -44t54 -17z" />
    <glyph glyph-name="Y" unicode="Y" horiz-adv-x="1353" vert-adv-y="2437" 
d="M221 1585h-129q-33 0 -57.5 -18t-24.5 -47q0 -20 10 -37l351 -576q5 -8 96 -141q63 -91 72 -135q2 -6 2 -33q-2 -14 -2 -39v-188q0 -49 1 -148.5t1 -148.5q0 -29 22.5 -51.5t59.5 -22.5h110q37 0 59.5 22.5t22.5 51.5v544q0 9 -2 13q6 29 72 133q92 131 98 143l350 576
q10 20 10 37q0 29 -22.5 47t-56.5 18h-129q-29 0 -52 -13t-34 -34l-371 -641l-373 641q-26 47 -84 47z" />
    <glyph glyph-name="Z" unicode="Z" horiz-adv-x="1345" vert-adv-y="2437" 
d="M141 0h1061q37 0 59.5 22.5t22.5 51.5v94q0 29 -22.5 51.5t-59.5 22.5h-733l776 1231q15 26 15 43q0 31 -24.5 51t-61.5 20h-1012q-39 0 -60.5 -22.5t-21.5 -51.5v-94q0 -29 22.5 -50t59.5 -21h682l-778 -1239q-13 -26 -13 -41q0 -32 26.5 -50t61.5 -18z" />
    <glyph glyph-name="bracketleft" unicode="[" horiz-adv-x="858" vert-adv-y="2437" 
d="M254 -344h395q37 0 59.5 22.5t22.5 49.5v86q0 27 -23 50t-59 23h-213v1471h213q36 0 59 22.5t23 49.5v83q0 29 -22.5 51.5t-59.5 22.5h-395q-39 0 -60.5 -22.5t-21.5 -51.5v-1785q0 -29 21.5 -50.5t60.5 -21.5z" />
    <glyph glyph-name="backslash" unicode="\" horiz-adv-x="923" vert-adv-y="2437" 
d="M760 0h100q35 0 57.5 20t22.5 48q0 20 -149 354q-131 295 -173 383l-315 711q-31 69 -39 83q-29 48 -78 48h-104q-35 0 -57.5 -20t-22.5 -48q0 -20 150 -356q89 -202 172 -383l245 -553l72 -158q6 -16 16 -41q14 -32 23 -45q26 -43 80 -43z" />
    <glyph glyph-name="bracketright" unicode="]" horiz-adv-x="858" vert-adv-y="2437" 
d="M211 -344h393q39 0 60.5 21.5t21.5 50.5v1785q0 29 -22.5 51.5t-59.5 22.5h-393q-39 0 -60.5 -22.5t-21.5 -51.5v-83q0 -27 22.5 -49.5t59.5 -22.5h211v-1469h-209q-38 0 -61 -22t-23 -51v-86q0 -28 21.5 -51t60.5 -23z" />
    <glyph glyph-name="asciicircum" unicode="^" horiz-adv-x="1398" vert-adv-y="2437" 
d="M211 553h117q27 0 49 13t31 34l292 657l293 -657q9 -21 31 -34t49 -13h117q34 0 57 19.5t23 48.5q0 13 -201 454q-194 425 -213 459q-25 51 -88 51h-137q-58 0 -84 -51q-19 -31 -215 -461q-201 -433 -201 -452q0 -28 22.5 -48t57.5 -20z" />
    <glyph glyph-name="underscore" unicode="_" horiz-adv-x="1404" vert-adv-y="2437" 
d="M211 -287h983q39 0 61.5 22.5t22.5 51.5v80q0 27 -22.5 49.5t-61.5 22.5h-983q-38 0 -60 -22t-22 -50v-80q0 -29 21.5 -51.5t60.5 -22.5z" />
    <glyph glyph-name="grave" unicode="`" horiz-adv-x="702" vert-adv-y="1894" 
d="M326 2040h-211l237 -244h226z" />
    <glyph glyph-name="a" unicode="a" horiz-adv-x="1396" vert-adv-y="2437" 
d="M971 82q0 -2 1 -7.5t1 -8.5q17 -66 90 -66q8 0 24.5 -1t24.5 -1q49 0 86 20t37 66v883q0 53 -55 73q-35 13 -86 13q-89 0 -113 -52q-5 -11 -8 -32q-134 102 -334 102q-110 0 -202.5 -31t-156.5 -83.5t-108.5 -123t-65 -148t-20.5 -159.5t20.5 -159.5t65 -148
t108.5 -123.5t156.5 -84t202.5 -31q197 0 332 102zM651 834q149 0 234.5 -88.5t85.5 -219.5q0 -129 -86.5 -218t-233.5 -89t-227 87.5t-80 219.5q0 130 80.5 219t226.5 89z" />
    <glyph glyph-name="b" unicode="b" horiz-adv-x="1396" vert-adv-y="2437" 
d="M426 82q135 -102 332 -102q137 0 245.5 47t174 125.5t99.5 174t34 199.5q0 83 -20.5 160.5t-65 148t-108.5 122.5t-156.5 83t-202.5 31q-200 0 -334 -102v534q0 55 -53 74q-27 10 -86 10q-21 0 -40.5 -3.5t-39 -12t-31.5 -26t-12 -42.5v-1419q0 -57 55 -76q27 -10 88 -10
q92 0 113 53q4 9 8 31zM743 834q147 0 227.5 -88t80.5 -220t-80 -219.5t-228 -87.5q-145 0 -231 89t-86 218t85.5 218.5t231.5 89.5z" />
    <glyph glyph-name="c" unicode="c" horiz-adv-x="1222" vert-adv-y="2437" 
d="M657 1073q-137 0 -248 -46t-180.5 -123.5t-106 -174t-36.5 -203.5q0 -84 22 -163t68 -148.5t111.5 -121.5t159 -82.5t204.5 -30.5q153 0 276.5 59t198.5 168q15 23 15 41t-17 39q-12 15 -30 30q-28 28 -58 48q-24 18 -53 18q-27 0 -49 -14q-2 -1 -16 -15l-7 -8
q-89 -127 -260 -127q-147 0 -227 87.5t-80 219.5q0 130 80.5 217.5t226.5 87.5q169 0 260 -126l7 -9q3 -6 12 -12q25 -18 53 -18q13 0 25 6q3 1 6 2.5t7 4t7 3.5l41 29q48 38 59 55q13 20 13 37q0 19 -15 41q-69 106 -195.5 167.5t-273.5 61.5z" />
    <glyph glyph-name="d" unicode="d" horiz-adv-x="1396" vert-adv-y="2437" 
d="M973 80l4 -17q5 -27 27 -46t61 -19h47q35 0 51 4q72 14 72 80v1419q0 55 -53 74q-32 12 -86 12q-47 0 -84 -19.5t-37 -66.5v-532q-135 100 -332 100q-111 0 -203.5 -31t-156.5 -83t-109 -122.5t-65.5 -148t-20.5 -160.5t21 -161t65.5 -148.5t109 -123t157 -83.5
t202.5 -31q194 0 330 103zM653 831q148 0 234 -89t86 -218q0 -130 -86 -218.5t-234 -88.5q-147 0 -227 87.5t-80 219.5q0 130 80.5 218.5t226.5 88.5z" />
    <glyph glyph-name="e" unicode="e" vert-adv-y="2437" 
d="M651 1071q-138 0 -248 -46t-178 -123.5t-103.5 -173.5t-35.5 -202q0 -110 39 -207.5t111 -173.5t186 -120.5t254 -44.5q284 0 442 170q21 21 21 47q0 29 -59.5 84t-96.5 55q-19 0 -35 -8q-12 -5 -24 -17q-6 -4 -23.5 -17.5t-28.5 -21.5q-77 -53 -196 -53
q-116 0 -197 51.5t-114 141.5h774q37 0 59.5 23t22.5 50q0 90 -18.5 172t-61 158.5t-107 132.5t-163 89.5t-220.5 33.5zM942 639h-580q30 90 104.5 142.5t184.5 52.5q111 0 186 -52.5t105 -142.5z" />
    <glyph glyph-name="f" unicode="f" horiz-adv-x="774" vert-adv-y="2437" 
d="M283 0h98q37 0 59.5 22.5t22.5 51.5v751h188q38 0 60 22t22 50v80q0 29 -21.5 51.5t-60.5 22.5h-188v209q0 63 16 112q23 60 66 60q30 0 82 -23q24 -12 32 -18q5 -1 11 -3.5t8 -3.5q12 -4 22 -4q42 0 70 37l37 53q15 25 18 31q11 27 11 35q0 33 -35 57q-118 78 -260 78
q-77 0 -138 -26t-98.5 -66.5t-62 -94.5t-34 -105t-9.5 -103v-225h-105q-37 0 -59.5 -22.5t-22.5 -51.5q0 -66 2 -84q4 -40 33 -55q23 -15 72 -15q47 0 80 2l2 -751q0 -28 23 -51t59 -23z" />
    <glyph glyph-name="g" unicode="g" horiz-adv-x="1396" vert-adv-y="2437" 
d="M973 969q-134 102 -334 102q-110 0 -202.5 -31t-156.5 -83.5t-108.5 -123t-65 -148t-20.5 -159.5t20.5 -159.5t65 -148t108.5 -123.5t156.5 -84t202.5 -31q197 0 334 104v-55q0 -135 -82 -216t-238 -81q-147 0 -276 75q-26 14 -55 17h-9l-8 -4q-31 -13 -67.5 -70.5
t-36.5 -85.5q0 -38 37 -61q72 -50 193.5 -79.5t221.5 -29.5q141 0 253.5 45t183 121.5t108 174t37.5 206.5v926q0 53 -55 73q-35 13 -86 13q-89 0 -113 -52q-3 -8 -8 -32zM651 834q149 0 234.5 -88.5t85.5 -219.5q0 -129 -86.5 -218t-233.5 -89t-227 87.5t-80 219.5
q0 130 80.5 219t226.5 89z" />
    <glyph glyph-name="h" unicode="h" horiz-adv-x="1323" vert-adv-y="2437" 
d="M244 0h100q37 0 59.5 22.5t22.5 51.5v434q0 74 30.5 147t95 126t146.5 53q115 0 160 -62t45 -174v-526q0 -29 22.5 -50.5t59.5 -21.5h98q36 0 59 22t23 50v526q0 93 -22.5 172.5t-72 149.5t-140.5 110.5t-215 40.5q-176 0 -295 -96l-2 528q0 57 -56 74q-32 12 -86 12
q-47 0 -82.5 -20t-35.5 -66l4 -1431q0 -28 23.5 -50t58.5 -22z" />
    <glyph glyph-name="i" unicode="i" horiz-adv-x="602" vert-adv-y="2437" 
d="M322 1522q-81 0 -128 -46.5t-47 -111.5t46 -112.5t129 -47.5q82 0 124.5 48t42.5 112t-43 111t-124 47zM270 0h97q36 0 59 22t23 50v907q0 28 -23 50t-59 22h-99q-37 0 -59.5 -22.5t-22.5 -49.5v-907q0 -28 23.5 -50t60.5 -22z" />
    <glyph glyph-name="j" unicode="j" horiz-adv-x="647" vert-adv-y="2437" 
d="M342 1522q-80 0 -126 -47.5t-46 -112.5q0 -63 46 -110.5t126 -47.5q82 0 126 47t44 111q0 65 -44 112.5t-126 47.5zM-25 -219q-45 0 -89 -62.5t-44 -93.5t27 -51q6 -6 22 -14q15 -10 21 -13q111 -57 223 -57q76 0 137 26t98.5 66.5t62.5 94.5t34.5 105t9.5 103
q0 183 -1 546t-1 546q0 29 -22.5 51.5t-59.5 22.5h-96q-38 0 -61 -22t-23 -52v-1073q0 -64 -16 -113q-20 -59 -64 -59q-26 0 -80 20q-19 8 -37 19q-25 10 -41 10z" />
    <glyph glyph-name="k" unicode="k" horiz-adv-x="1120" vert-adv-y="2437" 
d="M244 0h100q35 0 58.5 22t23.5 50v327l385 -370q29 -29 74 -29h147q33 0 57.5 16t24.5 47q0 29 -27 52l-466 450l397 371q26 26 26 53q0 31 -24.5 46.5t-56.5 15.5h-150q-42 0 -72 -27l-315 -309l-2 862q0 28 -22.5 49t-57.5 21h-100q-35 0 -58.5 -21t-23.5 -49v-1505
q0 -28 23.5 -50t58.5 -22z" />
    <glyph glyph-name="l" unicode="l" horiz-adv-x="604" vert-adv-y="2437" 
d="M254 0h98q35 0 58.5 22t23.5 50v1444q0 28 -23.5 48.5t-58.5 20.5h-100q-35 0 -57.5 -20.5t-22.5 -48.5v-1444q0 -28 23 -50t59 -22z" />
    <glyph glyph-name="m" unicode="m" horiz-adv-x="1947" vert-adv-y="2437" 
d="M412 979q-4 19 -11 31q-22 41 -118 41q-47 0 -82 -19t-35 -65v-895q0 -27 20.5 -49.5t57.5 -22.5h94q37 0 59.5 22.5t22.5 51.5v434q0 71 26.5 143.5t85.5 127.5t136 55q72 0 113 -30t59 -93q12 -50 12 -68v-569q0 -27 22.5 -50.5t59.5 -23.5h94q37 0 57.5 22.5
t20.5 49.5v491q0 9 4 29q2 5 5 16.5t5 16.5q25 89 80.5 149t142.5 60q54 0 91 -19t55.5 -54t25.5 -73.5t7 -89.5v-524q0 -29 22.5 -51.5t59.5 -22.5h100q37 0 59.5 22.5t22.5 51.5q0 87 -1 262t-1 262q0 69 -11 131.5t-40 126.5t-75 110.5t-122 75.5t-174 29
q-207 0 -342 -149q-113 149 -338 149q-158 0 -270 -92z" />
    <glyph glyph-name="n" unicode="n" horiz-adv-x="1325" vert-adv-y="2437" 
d="M420 975q-4 25 -12 37q-25 41 -123 41q-49 0 -86 -19.5t-37 -66.5v-895q0 -28 23.5 -50t58.5 -22h100q37 0 59.5 22.5t22.5 51.5v434q0 74 30.5 147t95 126t146.5 53q115 0 160 -62t45 -174v-526q0 -29 22.5 -50.5t59.5 -21.5h98q37 0 60.5 22t23.5 50v526
q0 73 -13.5 138.5t-46.5 127.5t-83 107t-129.5 72.5t-179.5 27.5q-176 0 -295 -96z" />
    <glyph glyph-name="o" unicode="o" vert-adv-y="2437" 
d="M651 1071q-138 0 -248 -46t-178 -123.5t-103.5 -173.5t-35.5 -202q0 -84 22 -163t68 -148.5t111.5 -121.5t159 -82.5t204.5 -30.5t205 30.5t160.5 82.5t113 121.5t69 148.5t22.5 163q0 106 -36.5 202t-105 173.5t-179.5 123.5t-249 46zM651 834q147 0 227 -88t80 -220
t-79.5 -219.5t-227.5 -87.5q-147 0 -227 87.5t-80 219.5q0 130 80.5 219t226.5 89z" />
    <glyph glyph-name="p" unicode="p" horiz-adv-x="1396" vert-adv-y="2437" 
d="M428 971q0 22 -12 43q-29 41 -129 41q-46 0 -83.5 -20t-37.5 -66v-1420q0 -54 53 -73q29 -13 88 -13q48 0 83.5 20.5t35.5 65.5v535q134 -102 334 -102q110 0 202.5 30.5t156.5 83t108.5 122.5t65 147.5t20.5 160.5q0 103 -34 199t-99.5 174.5t-174 126t-245.5 47.5
q-201 0 -332 -102zM745 834q147 0 227.5 -88t80.5 -220t-80 -219.5t-228 -87.5t-231.5 88t-83.5 219q0 129 84.5 218.5t230.5 89.5z" />
    <glyph glyph-name="q" unicode="q" horiz-adv-x="1396" vert-adv-y="2437" 
d="M973 971q-135 102 -330 102q-110 0 -202.5 -31t-157 -83.5t-109 -123t-65.5 -148.5t-21 -161t21 -160.5t65.5 -147.5t109 -122.5t157 -83t202.5 -30.5q198 0 332 102v-535q0 -30 25 -57t67 -27h45q30 0 53 5q70 14 70 79v1420q0 55 -55 75q-30 11 -86 11q-91 0 -113 -54
q-8 -20 -8 -30zM653 834q148 0 234 -89.5t86 -218.5q0 -130 -86 -218.5t-234 -88.5q-147 0 -227 87.5t-80 219.5q0 130 80.5 219t226.5 89z" />
    <glyph glyph-name="r" unicode="r" horiz-adv-x="849" vert-adv-y="2437" 
d="M420 975q0 2 -1 6t-1 6q-17 64 -90 64h-72q-41 0 -67.5 -26.5t-26.5 -57.5v-895q0 -28 23.5 -50t58.5 -22h100q37 0 59.5 22.5t22.5 51.5v434q0 74 30.5 147t95 126t146.5 53h15q4 2 16 2q21 6 35 20q18 18 31.5 61.5t13.5 67.5q0 28 -27 57t-65 29q-178 0 -297 -96z" />
    <glyph glyph-name="s" unicode="s" horiz-adv-x="993" vert-adv-y="2437" 
d="M231 299q-12 6 -30 6q-46 0 -85.5 -60t-39.5 -91q0 -36 28 -60l25 -18q4 -2 12.5 -6.5t12.5 -6.5q148 -81 338 -81q117 0 212 36t154.5 110t59.5 175q0 73 -25.5 129.5t-72.5 93.5t-93 59t-109 42q-100 27 -104 28q-70 22 -86 29q-70 30 -70 76q0 36 40.5 55t101.5 19
q104 0 200 -58q14 -7 17 -8q20 -8 28 -8q44 0 70 39q28 44 33 55q18 40 18 66q0 31 -28 53q-59 49 -151 74.5t-183 25.5q-174 0 -292 -86.5t-118 -230.5q0 -59 18 -108t45.5 -81.5t69.5 -60t80 -43.5t88 -31l105 -31q60 -15 86 -28q71 -26 71 -74q0 -39 -47.5 -60.5
t-115.5 -21.5q-61 0 -128 20t-114 52l-8 4z" />
    <glyph glyph-name="t" unicode="t" horiz-adv-x="808" vert-adv-y="2437" 
d="M104 825h105v-446q0 -53 5.5 -100t25.5 -104.5t52 -98t91 -68.5t137 -28q128 0 238 88q30 23 30 53q0 17 -12 33q-4 10 -20 34q-15 22 -41 54q-27 30 -68 30q-23 0 -43 -12q-24 -14 -31 -20q-35 -21 -47 -21q-29 0 -45 57q-6 30 -6 60q-2 20 -2 49v440h191
q36 0 58.5 21.5t22.5 48.5v82q0 29 -21 51.5t-60 22.5h-191v280q0 28 -22.5 49t-57.5 21h-102q-38 0 -59 -23t-21 -51v-276h-107q-37 0 -59 -22.5t-22 -51.5v-82q0 -26 23 -48t58 -22z" />
    <glyph glyph-name="u" unicode="u" horiz-adv-x="1325" vert-adv-y="2437" 
d="M907 78q2 -4 2 -12q17 -66 90 -66q7 0 22 -1t23 -1q49 0 86 20t37 66v895q0 28 -23.5 50t-60.5 22h-98q-40 0 -61 -22.5t-21 -51.5v-436q0 -72 -31.5 -145t-96.5 -126t-146 -53q-113 0 -158 61.5t-45 172.5v528q0 29 -22.5 50.5t-59.5 21.5h-102q-36 0 -58 -22.5
t-22 -49.5v-524q0 -74 13 -139.5t46 -128t83 -107.5t129.5 -72.5t180.5 -27.5q177 0 293 98z" />
    <glyph glyph-name="v" unicode="v" horiz-adv-x="1110" vert-adv-y="2437" 
d="M502 0h106q57 0 84 51q16 29 42 91.5t30 72.5l139 315q26 52 101 230q90 205 90 223q0 28 -23 48t-59 20h-115q-31 0 -54.5 -16.5t-31.5 -39.5l-256 -628l-258 630q-8 23 -29.5 38.5t-52.5 15.5h-119q-35 0 -57.5 -20t-22.5 -48q0 -22 88 -223l101 -230l145 -331l47 -105
q4 -13 9 -20q3 -13 10 -23q29 -51 86 -51z" />
    <glyph glyph-name="w" unicode="w" horiz-adv-x="1507" vert-adv-y="2437" 
d="M213 1051h-121q-32 0 -54 -18t-22 -46q0 -6 2 -12q0 -2 1 -6t1 -6q1 -5 11 -35l16 -56q18 -56 53 -167t52 -168l98 -318q8 -25 24.5 -80.5t26.5 -83.5q20 -55 82 -55h119q29 0 54.5 17t33.5 40l166 564l166 -564q8 -25 30 -41t54 -16h118q30 0 53 16.5t29 38.5l279 910
q2 2 2 8q2 6 2 14q0 26 -20.5 45t-53.5 19h-121q-33 0 -55 -18t-29 -42l-151 -561l-170 561q-6 25 -28.5 42.5t-55.5 17.5h-105q-32 0 -55 -17.5t-29 -42.5l-170 -561l-151 561q-7 24 -28 42t-54 18z" />
    <glyph glyph-name="x" unicode="x" horiz-adv-x="1120" vert-adv-y="2437" 
d="M131 0h131q27 0 51.5 11.5t36.5 29.5l203 270l209 -270q30 -41 88 -41h133q33 0 56.5 16.5t23.5 44.5q0 22 -19 45l-327 420l346 418q16 16 16 43q0 29 -23.5 46.5t-56.5 17.5h-131q-56 0 -86 -41l-223 -283l-217 283q-29 41 -86 41h-133q-33 0 -57.5 -17.5t-24.5 -46.5
q0 -18 18 -45l334 -428q-21 -23 -174 -215q-57 -70 -113 -145q-28 -40 -36 -54l-11 -18q-6 -8 -6 -21q0 -28 23 -44.5t55 -16.5z" />
    <glyph glyph-name="y" unicode="y" horiz-adv-x="1122" vert-adv-y="2437" 
d="M227 -420q0 -29 23.5 -48t58.5 -19h103q57 0 84 51q7 14 307 706q297 701 297 711q0 30 -24 50t-60 20h-113q-31 0 -53.5 -15.5t-32.5 -38.5l-262 -620l-250 618q-9 24 -32 40t-54 16h-115q-36 0 -58.5 -19t-22.5 -49q0 -19 182 -442q37 -85 86.5 -195.5t83 -186
t45.5 -104.5q-7 -18 -23 -55t-41 -93.5t-41 -94.5q-88 -209 -88 -232z" />
    <glyph glyph-name="z" unicode="z" horiz-adv-x="1105" vert-adv-y="2437" 
d="M188 0h736q39 0 60.5 22.5t21.5 51.5v78q0 30 -21.5 51.5t-60.5 21.5h-424l481 711q16 24 16 45q0 31 -25.5 50.5t-62.5 19.5h-700q-39 0 -60.5 -22.5t-21.5 -51.5v-82q0 -28 22.5 -49t59.5 -21h391l-483 -714q-15 -23 -15 -43q0 -32 25.5 -50t60.5 -18z" />
    <glyph glyph-name="braceleft" unicode="{" horiz-adv-x="921" vert-adv-y="2437" 
d="M618 -348h95q37 0 59.5 22.5t22.5 51.5v88q0 33 -22 50.5t-54 20.5q-25 6 -53 2h-43l-2 2q-4 4 -11 21q-8 25 -8 82v340q0 175 -125 286q63 56 94 131.5t31 155.5v342q0 57 8 80q7 17 11 21l4 2q6 0 20 -1t21 -1q35 0 53 2q76 12 76 73v88q0 29 -22.5 51.5t-59.5 22.5
h-95q-68 0 -120 -23t-81.5 -57.5t-48 -82.5t-24.5 -89.5t-6 -85.5v-352q0 -50 -21 -93.5t-61 -62.5q-1 0 -4 -1t-6 -1q-8 -4 -17 -4q-57 -17 -57 -65v-93q0 -52 59 -69q107 -32 107 -164v-350q0 -44 6 -86t24.5 -90t48 -82.5t81.5 -58t120 -23.5z" />
    <glyph glyph-name="bar" unicode="|" horiz-adv-x="604" vert-adv-y="1894" 
d="M254 0h98q35 0 58.5 22t23.5 50v1444q0 28 -23.5 48.5t-58.5 20.5h-100q-35 0 -57.5 -20.5t-22.5 -48.5v-1444q0 -28 23 -50t59 -22z" />
    <glyph glyph-name="braceright" unicode="}" horiz-adv-x="921" vert-adv-y="2437" 
d="M211 -348h94q68 0 120 23.5t81.5 58t47.5 82.5t24 89.5t6 86.5v350q0 130 110 164q58 17 58 67v91q0 48 -56 67l-20 6q-4 0 -7 1l-3 1q-40 19 -61 62.5t-21 93.5v352q0 45 -6 86t-24 89t-47.5 82.5t-81.5 57.5t-120 23h-94q-39 0 -60.5 -22.5t-21.5 -51.5v-88
q0 -29 22.5 -51t59.5 -22h86l4 -4q9 -9 12 -29q6 -27 6 -70q0 -57 -1 -171t-1 -171q0 -174 127 -287q-127 -110 -127 -286q0 -13 2.5 -92.5t2.5 -130.5q0 -165 -11 -197q-7 -18 -10 -21l-2 -2h-88q-37 0 -59.5 -22.5t-22.5 -50.5v-90q0 -29 21.5 -51.5t60.5 -22.5z" />
    <glyph glyph-name="asciitilde" unicode="~" horiz-adv-x="1359" vert-adv-y="2437" 
d="M389 530q32 29 68 29q32 0 71 -29q16 -11 41 -32l45 -41q39 -34 72.5 -56.5t91.5 -42.5t123 -20q71 0 134 28t108 73.5t76 94t49 99.5q4 16 4 24q0 30 -23 56q-17 22 -51 51l-33 27q-27 16 -45 16q-39 0 -61 -29q-11 -16 -23 -43q-2 -5 -7.5 -18.5t-8.5 -20.5
q-28 -50 -49 -69q-28 -31 -66 -31q-33 0 -71 27q-8 6 -41 34q-14 12 -43 41q-61 53 -128 85t-163 32q-71 0 -133.5 -27.5t-106.5 -73.5t-73.5 -93.5t-49.5 -98.5q-6 -12 -6 -26q0 -17 12 -37l27 -33l51 -51q27 -27 62 -27t57 25q6 4 14 20q1 3 11 23q4 9 10 24.5t8 18.5
q28 50 47 71z" />
    <glyph glyph-name="exclamdown" unicode="&#xa1;" horiz-adv-x="684" vert-adv-y="2437" 
d="M342 1270q80 0 125 46t45 109t-44.5 111.5t-125.5 48.5t-125.5 -48.5t-44.5 -111.5q0 -64 44.5 -109.5t125.5 -45.5zM397 1159h-110q-38 0 -60 -20.5t-22 -48.5l-4 -1039q0 -29 22.5 -51.5t59.5 -22.5h118q39 0 60.5 22.5t21.5 51.5l-4 1039q0 28 -22.5 48.5t-59.5 20.5z
" />
    <glyph glyph-name="cent" unicode="&#xa2;" horiz-adv-x="1462" vert-adv-y="2437" 
d="M938 -147v131q98 13 187.5 51.5t150.5 99.5q24 27 24 58q0 26 -36 71q-9 9 -58 51q-31 23 -63 23q-35 0 -66 -23q-70 -51 -123 -71.5t-133 -20.5q-166 0 -262 97t-96 241q0 143 96.5 239.5t261.5 96.5q124 0 209 -59q3 -1 5.5 -3.5t6.5 -6t7 -5.5q2 -1 5 -4t5 -4
q2 -2 14 -10q30 -19 62 -19q36 0 63 23q34 26 57 51q37 42 37 72q0 31 -24 55q-57 59 -145.5 97.5t-184.5 52.5v129q0 30 -27 57t-67 27h-109q-42 0 -68 -26t-26 -58v-140q-149 -35 -259.5 -121.5t-166 -201t-55.5 -242.5q0 -129 55 -244t165.5 -201.5t260.5 -121.5v-141
q0 -30 27 -57t67 -27h109q40 0 67 27t27 57z" />
    <glyph glyph-name="sterling" unicode="&#xa3;" horiz-adv-x="1562" vert-adv-y="2437" 
d="M1339 260h-708v373h524q41 0 67.5 25.5t26.5 58.5v92q0 32 -26 58t-68 26h-524v123q0 120 82 197t221 77q117 0 196 -55q15 -10 17 -12q14 -14 20 -17q26 -22 64 -22q13 0 43 10q18 9 39 23q13 7 63 40q43 28 43 68q0 31 -24 55q-73 83 -202 128.5t-259 45.5
q-137 0 -253 -42.5t-194 -115.5t-121.5 -171.5t-43.5 -208.5v-123h-105q-41 0 -66.5 -26.5t-25.5 -57.5q0 -73 2 -96q4 -42 29 -62q20 -14 77 -18h89v-373h-105q-42 0 -67 -26.5t-25 -57.5v-92q0 -31 25 -57.5t67 -26.5h1122q43 0 69 26t26 58v92q0 31 -26 57.5t-69 26.5z
" />
    <glyph glyph-name="yen" unicode="&#xa5;" horiz-adv-x="1757" vert-adv-y="2437" 
d="M1405 893h-162l373 483q20 27 20 58q0 38 -30 64t-76 26h-131q-50 0 -76 -33l-444 -602l-445 602q-23 33 -74 33h-131q-48 0 -77 -27.5t-29 -64.5q0 -29 20 -56l371 -483h-158q-41 0 -66.5 -26.5t-25.5 -57.5q0 -5 -1 -17t-1 -20q0 -33 4 -49q14 -72 90 -72h342l29 -37
v-61h-371q-42 0 -67 -27t-25 -57q0 -23 -2 -37q0 -33 4 -49q13 -74 90 -74h371v-225q0 -32 25.5 -58t68.5 -26h121q42 0 67 27t25 57v225h371q43 0 67.5 26t24.5 60q0 3 1 16t1 21q0 33 -4 47q-13 74 -90 74h-371v61l27 37h344q41 0 66.5 24.5t25.5 57.5q0 5 1 17t1 20
q0 33 -4 49q-5 30 -27 52t-63 22z" />
    <glyph glyph-name="section" unicode="&#xa7;" horiz-adv-x="976" vert-adv-y="1894" 
d="M586 373q-41 15 -98 33t-93.5 29.5t-82 29t-74.5 34t-59 41.5t-47 54.5t-27.5 70.5t-10.5 91q0 138 109 223q-109 88 -109 233q0 144 118 231t292 87q91 0 183 -25.5t151 -74.5q28 -25 28 -56q0 -22 -18 -63q-8 -16 -33 -56q-25 -38 -70 -38q-8 0 -28 8q-3 1 -17 8
q-99 57 -200 57q-61 0 -101.5 -19t-40.5 -54q0 -46 70 -76q48 -19 86 -29q9 -3 45.5 -13.5t58.5 -17.5q112 -36 170 -75q33 -18 50 -33q20 -18 26 -37q54 -74 54 -178q0 -138 -109 -223q109 -88 109 -232q0 -101 -59.5 -175t-154.5 -110t-212 -36q-190 0 -338 81l-25 13
q-4 3 -12.5 9t-12.5 9q-28 24 -28 60q0 31 39.5 91t85.5 60q18 0 30 -6l13 -6l8 -4q47 -32 114 -52t128 -20q68 0 115.5 21.5t47.5 60.5q0 51 -71 74zM494 674q68 0 115.5 21.5t47.5 60.5q0 36 -41 59q-59 19 -116 19q-61 0 -101.5 -19t-40.5 -55q0 -46 70 -76l18 -6
q32 -4 48 -4z" />
    <glyph glyph-name="dieresis" unicode="&#xa8;" horiz-adv-x="815" vert-adv-y="1894" 
d="M250 2062q-65 0 -101 -38t-36 -93t36 -93t101 -38q63 0 99 38.5t36 92.5t-36 92.5t-99 38.5zM627 2062q-64 0 -101 -38t-37 -93t37 -93t101 -38t99.5 38t35.5 93t-35.5 93t-99.5 38z" />
    <glyph glyph-name="copyright" unicode="&#xa9;" horiz-adv-x="2199" vert-adv-y="2437" 
d="M1098 1550q-201 0 -370.5 -62t-284 -168.5t-178.5 -250t-64 -305.5t64 -305.5t178 -251t284 -170t371 -62.5t371 62.5t285 169.5t179 251t64 306t-64.5 306t-179.5 250t-284.5 168t-370.5 62zM1098 1325q143 0 262.5 -43.5t199.5 -119t124.5 -178t44.5 -220.5t-44 -221
t-124 -179t-200 -119.5t-263 -43.5q-144 0 -263.5 43.5t-199 119.5t-123 179t-43.5 221q0 117 44.5 219.5t124.5 178.5t199 119.5t261 43.5zM1108 1255q-123 0 -223.5 -41.5t-163.5 -110.5t-97 -156.5t-34 -182.5q0 -75 20 -146t61.5 -134t101 -110.5t143.5 -75.5t184 -28
q131 0 248 56t178 151q12 18 12 39q0 31 -53.5 78t-91.5 47q-30 0 -52 -16q-2 -1 -12 -11l-6 -8q-83 -108 -223 -108q-128 0 -197 75.5t-69 190.5t69 189.5t197 74.5q139 0 223 -110l6 -7q3 -6 12 -12q22 -16 52 -16q36 0 90.5 47.5t54.5 77.5q0 21 -12 39
q-58 94 -173.5 151t-244.5 57z" />
    <glyph glyph-name="ordfeminine" unicode="&#xaa;" horiz-adv-x="980" vert-adv-y="1894" 
d="M774 1548q-80 0 -86 -61q-98 76 -237 76q-94 0 -170.5 -33t-124 -88t-72.5 -124t-25 -144q0 -76 25 -145.5t72.5 -125t124 -88.5t170.5 -33q134 0 235 78q6 -63 92 -63q90 0 90 59v633q0 59 -94 59zM240 1174q0 93 57.5 159t161.5 66q107 0 168 -66t61 -159
q0 -92 -62.5 -158t-166.5 -66q-105 0 -162 65t-57 159z" />
    <glyph glyph-name="guillemotleft" unicode="&#xab;" horiz-adv-x="1703" vert-adv-y="1894" 
d="M975 559l8 -2v139q0 28 -33 43l-635 275l635 274q33 15 33 41v137l-8 -2q-5 -1 -19 -4t-22 -4q-31 -9 -43 -14l-752 -330q-30 -13 -30 -43v-113q0 -28 30 -43l752 -329q3 -1 19 -6.5t24 -6.5zM1559 559l8 -2v139q0 29 -31 43l-637 275l637 274q31 14 31 41v137l-6 -2
q-7 -1 -21.5 -4t-21.5 -4q-30 -9 -41 -14l-752 -330q-33 -13 -33 -43v-113q0 -28 33 -43l752 -329q37 -12 41 -13z" />
    <glyph glyph-name="registered" unicode="&#xae;" horiz-adv-x="2199" vert-adv-y="2437" 
d="M1098 1550q-201 0 -370.5 -62t-284 -168.5t-178.5 -250t-64 -305.5t64 -305.5t178 -251t284 -170t371 -62.5t371 62.5t285 169.5t179 251t64 306t-64.5 306t-179.5 250t-284.5 168t-370.5 62zM1098 1325q143 0 262.5 -43.5t199.5 -119t124.5 -178t44.5 -220.5t-44 -221
t-124 -179t-200 -119.5t-263 -43.5q-144 0 -263.5 43.5t-199 119.5t-123 179t-43.5 221q0 117 44.5 219.5t124.5 178.5t199 119.5t261 43.5zM856 279h64q37 0 59 23t22 50v299h19l205 -332q28 -40 75 -40h84q35 0 58.5 18.5t23.5 48.5q0 8 -4 16q0 2 -2.5 7.5t-3.5 7.5
t-8.5 16.5t-13.5 22.5l-68 108q-65 101 -102 152q100 35 149 110.5t49 171.5q0 137 -94.5 222.5t-259.5 85.5h-252q-36 0 -60 -23t-24 -51v-840q0 -29 23 -51t61 -22zM1110 854h-109v209h109q64 0 94.5 -25.5t30.5 -79.5q0 -55 -30 -79.5t-95 -24.5z" />
    <glyph glyph-name="degree" unicode="&#xb0;" horiz-adv-x="630" vert-adv-y="1894" 
d="M440 1331q0 65 -45 110.5t-121 45.5t-120.5 -45.5t-44.5 -110.5q0 -59 48.5 -106t116.5 -47q77 0 121.5 43.5t44.5 109.5zM236 1331q0 26 5.5 32.5t32.5 6.5q37 0 37 -39t-37 -39q-38 0 -38 39z" />
    <glyph glyph-name="uni00B2" unicode="&#xb2;" horiz-adv-x="794" vert-adv-y="1894" 
d="M96 893v-6q0 -40 6 -58q15 -30 54 -30h473q61 0 61 69q0 25 -15 44.5t-46 19.5h-271l195 176q60 55 91.5 108t31.5 119q0 115 -81.5 188.5t-217.5 73.5q-79 0 -157.5 -30t-117.5 -84q-12 -16 -12 -33q0 -23 30 -48.5t58 -25.5q18 0 37 15q6 4 19.5 14.5t19.5 15.5
q55 41 121 41q64 0 98.5 -34t34.5 -91q0 -61 -78 -131q-32 -29 -105 -92.5t-126 -112t-99 -96.5q0 -2 -2 -2v-2l-2 -4v-4z" />
    <glyph glyph-name="uni00B3" unicode="&#xb3;" horiz-adv-x="837" vert-adv-y="1894" 
d="M233 975q-44 22 -57 22q-29 0 -56.5 -25.5t-27.5 -49.5q0 -31 34.5 -56.5t84.5 -39t95.5 -20.5t76.5 -7q88 0 165 25t130 81t53 133q0 112 -113 176q42 30 66.5 73.5t24.5 88.5q0 75 -48.5 130t-122 80.5t-159.5 25.5q-72 0 -149.5 -22.5t-112.5 -65.5q-15 -19 -15 -37
q0 -22 25 -43q12 -8 20 -12l19 -15l2 -2l20 -2q20 0 58 25q14 6 28 16q14 8 25 12q34 11 80 11q68 0 115 -25t47 -78q0 -50 -45.5 -73t-110.5 -23q-10 0 -29.5 2t-29.5 2q-103 0 -103 -63q0 -76 64 -76h84q53 0 92 -8q100 -21 100 -95q0 -38 -29 -63t-68 -34t-85 -9
q-54 0 -88 10q-5 1 -14 5.5l-13 6.5q-25 15 -33 19z" />
    <glyph glyph-name="acute" unicode="&#xb4;" horiz-adv-x="702" vert-adv-y="1894" 
d="M115 1800h225l238 244h-211z" />
    <glyph glyph-name="periodcentered" unicode="&#xb7;" horiz-adv-x="643" vert-adv-y="1894" 
d="M322 870q-69 0 -109.5 -41.5t-40.5 -99.5t40.5 -99.5t109.5 -41.5t108 41t39 100t-39 100t-108 41z" />
    <glyph glyph-name="cedilla" unicode="&#xb8;" horiz-adv-x="653" vert-adv-y="1894" 
d="M371 16h-170v-39q0 -86 63 -161q6 -8 21.5 -26t21.5 -26q19 -22 19 -38q0 -11 -2 -17q-6 -6 -13 -6q-18 0 -55 33q-11 11 -27.5 30.5t-21.5 24.5l-6 6l-4 -8q-8 -14 -28 -45.5t-34 -55.5t-24 -48v-2l2 -3q82 -100 196 -100q93 0 148 56t55 135q0 33 -11.5 63.5
t-22.5 45.5t-34 42q-14 14 -26 29q-14 18 -23 31q-21 36 -24 73v6z" />
    <glyph glyph-name="uni00B9" unicode="&#xb9;" horiz-adv-x="514" vert-adv-y="1894" 
d="M379 846v686q0 11 -4 35q-6 30 -6 32l-2 7l-277 -105q-37 -13 -37 -57q0 -30 15.5 -52t50.5 -22q6 0 53 14l41 17v-549q0 -22 18 -37.5t43 -15.5h43q21 0 41.5 14.5t20.5 32.5z" />
    <glyph glyph-name="ordmasculine" unicode="&#xba;" horiz-adv-x="919" vert-adv-y="1894" 
d="M860 1186q0 77 -26 146.5t-75 124t-126.5 86.5t-173.5 32q-95 0 -172.5 -32t-126.5 -86.5t-75 -124t-26 -146.5t26 -146.5t75 -124t126.5 -86.5t172.5 -32q126 0 219 55.5t137.5 142.5t44.5 191zM240 1186q0 93 57.5 159t161.5 66q106 0 163.5 -66t57.5 -159
q0 -94 -57 -158.5t-164 -64.5q-105 0 -162 64.5t-57 158.5z" />
    <glyph glyph-name="guillemotright" unicode="&#xbb;" horiz-adv-x="1656" vert-adv-y="1894" 
d="M109 696v-139l8 2l41 12q4 1 41 13l753 329q31 15 31 43v113q0 29 -31 43l-753 330q-11 5 -41 14q-8 1 -22 4t-19 4l-8 2v-137q0 -28 30 -41l637 -274l-637 -275q-30 -13 -30 -43zM692 696v-139l8 2l41 12q9 1 25 6.5t18 6.5l752 329q31 15 31 43v113q0 29 -31 43
l-752 330q-12 5 -43 14q-5 1 -19 4t-22 4l-8 2v-137q0 -26 33 -41l635 -274l-635 -275q-33 -15 -33 -43z" />
    <glyph glyph-name="questiondown" unicode="&#xbf;" horiz-adv-x="1179" vert-adv-y="2437" 
d="M612 1290q80 0 125 46.5t45 109.5t-44.5 111.5t-125.5 48.5t-126.5 -48t-45.5 -112t45.5 -110t126.5 -46zM682 1190h-123q-36 0 -56 -20t-26 -44l-12 -57q-3 -23 -16 -49q-23 -49 -107 -133q-53 -52 -83.5 -84.5t-65 -78t-51.5 -85.5t-28.5 -93t-11.5 -114
q0 -89 30.5 -169t88 -144t150 -101.5t207.5 -37.5q137 0 254.5 54.5t195.5 149.5q16 22 16 45q0 31 -55 91.5t-96 60.5q-35 0 -62 -27q-38 -36 -59 -53.5t-53.5 -39t-67 -30t-76.5 -8.5q-95 0 -146.5 59.5t-51.5 149.5q0 85 38 146.5t113 132.5l66 61q5 6 28 29.5t33 38.5
q69 79 93 172q16 56 16 104q0 29 -22.5 51.5t-59.5 22.5z" />
    <glyph glyph-name="Agrave" unicode="&#xc0;" horiz-adv-x="1538" vert-adv-y="2437" 
d="M764 2040h-211l238 -244h225zM313 793q-297 -707 -297 -727q0 -28 22 -47t56 -19h113q27 0 49 13t31 34l178 430h606l180 -430q8 -18 30.5 -32.5t47.5 -14.5h115q34 0 56 19t22 47q0 14 -136 340q-145 344 -155 366l-211 504l-76 176q-18 49 -33 80q-24 53 -84 53h-114
q-60 0 -84 -53q-61 -138 -316 -739zM973 715h-406l205 487z" />
    <glyph glyph-name="Aacute" unicode="&#xc1;" horiz-adv-x="1538" vert-adv-y="2437" 
d="M647 1800h225l238 244h-211zM313 793q-297 -707 -297 -727q0 -28 22 -47t56 -19h113q27 0 49 13t31 34l178 430h606l180 -430q8 -18 30.5 -32.5t47.5 -14.5h115q34 0 56 19t22 47q0 14 -136 340q-145 344 -155 366l-211 504l-76 176q-18 49 -33 80q-24 53 -84 53h-114
q-60 0 -84 -53q-61 -138 -316 -739zM973 715h-406l205 487z" />
    <glyph glyph-name="Acircumflex" unicode="&#xc2;" horiz-adv-x="1538" vert-adv-y="2437" 
d="M770 1804h213l-192 244h-142l-192 -244h213l51 68zM313 793q-297 -707 -297 -727q0 -28 22 -47t56 -19h113q27 0 49 13t31 34l178 430h606l180 -430q8 -18 30.5 -32.5t47.5 -14.5h115q34 0 56 19t22 47q0 14 -136 340q-145 344 -155 366l-211 504l-76 176q-18 49 -33 80
q-24 53 -84 53h-114q-60 0 -84 -53q-61 -138 -316 -739zM973 715h-406l205 487z" />
    <glyph glyph-name="Atilde" unicode="&#xc3;" horiz-adv-x="1538" vert-adv-y="2437" 
d="M760 2001q-50 70 -121 70q-92 0 -156 -136q-2 0 -2 -2v-4q0 -3 25 -63q29 -60 33 -70l6 -12l6 12q2 4 8.5 18t14.5 31.5t16 32.5q20 34 32.5 42t20 2t28.5 -34q3 -3 4 -4.5l3 -4.5t4 -5q50 -70 119 -70q52 0 96.5 42.5t58.5 88.5q2 4 2 11q0 19 -24 59q-10 16 -39 57
l-4 11l-6 -11q-1 -2 -14.5 -28t-24.5 -43q-11 -20 -18.5 -30t-13 -15t-12 0t-10.5 9.5t-14 20t-18 25.5zM313 793q-297 -707 -297 -727q0 -28 22 -47t56 -19h113q27 0 49 13t31 34l178 430h606l180 -430q8 -18 30.5 -32.5t47.5 -14.5h115q34 0 56 19t22 47q0 14 -136 340
q-145 344 -155 366l-211 504l-76 176q-18 49 -33 80q-24 53 -84 53h-114q-60 0 -84 -53q-61 -138 -316 -739zM973 715h-406l205 487z" />
    <glyph glyph-name="Adieresis" unicode="&#xc4;" horiz-adv-x="1538" vert-adv-y="2437" 
d="M700 2062q-65 0 -101 -38t-36 -93t36 -93t101 -38q63 0 99.5 38.5t36.5 92.5t-36.5 92.5t-99.5 38.5zM1077 2062q-63 0 -100 -38t-37 -93t37 -93t100 -38q64 0 99.5 38t35.5 93t-35.5 93t-99.5 38zM313 793q-297 -707 -297 -727q0 -28 22 -47t56 -19h113q27 0 49 13
t31 34l178 430h606l180 -430q8 -18 30.5 -32.5t47.5 -14.5h115q34 0 56 19t22 47q0 14 -136 340q-145 344 -155 366l-211 504l-76 176q-18 49 -33 80q-24 53 -84 53h-114q-60 0 -84 -53q-61 -138 -316 -739zM973 715h-406l205 487z" />
    <glyph glyph-name="Aring" unicode="&#xc5;" horiz-adv-x="1538" vert-adv-y="2437" 
d="M938 1958q0 66 -44.5 111t-121.5 45t-121.5 -45t-44.5 -111q0 -59 49 -106.5t117 -47.5q75 0 120.5 45t45.5 109zM733 1958q0 15 9 27t30 12q37 0 37 -39t-37 -39q-19 0 -29 11.5t-10 27.5zM313 793q-297 -707 -297 -727q0 -28 22 -47t56 -19h113q27 0 49 13t31 34
l178 430h606l180 -430q8 -18 30.5 -32.5t47.5 -14.5h115q34 0 56 19t22 47q0 14 -136 340q-145 344 -155 366l-211 504l-76 176q-18 49 -33 80q-24 53 -84 53h-114q-60 0 -84 -53q-61 -138 -316 -739zM973 715h-406l205 487z" />
    <glyph glyph-name="AE" unicode="&#xc6;" horiz-adv-x="1808" vert-adv-y="2437" 
d="M713 1585l923 2q40 0 62 -22.5t22 -51.5v-92q0 -30 -22 -51.5t-62 -21.5h-600v-420h551q37 0 59.5 -22.5t22.5 -49.5v-96q0 -27 -22.5 -49.5t-59.5 -22.5h-551v-446h621q37 0 59.5 -22.5t22.5 -51.5v-96q0 -27 -22 -49.5t-58 -22.5h-815q-37 0 -59.5 22.5t-22.5 51.5v403
h-297l-178 -430q-9 -21 -31 -34t-49 -13h-113q-34 0 -56 19t-22 47q0 20 297 727q255 601 316 739q24 53 84 53zM567 715h195v467z" />
    <glyph glyph-name="Ccedilla" unicode="&#xc7;" horiz-adv-x="1628" vert-adv-y="2437" 
d="M809 -236q-6 8 -21.5 26t-21.5 26q-64 76 -64 161v27q-149 34 -266 113t-190 185.5t-110.5 231.5t-37.5 259q0 116 27.5 223.5t84 206t151 179.5t219.5 134q162 70 356 70q169 0 322.5 -56t265.5 -159q24 -21 24 -50t-60.5 -85t-96.5 -56q-33 0 -56 23q-91 70 -185 102.5
t-214 32.5q-111 0 -204.5 -30.5t-159 -83.5t-111 -125t-67 -155t-21.5 -173q0 -113 35 -212.5t102.5 -178.5t177.5 -125t248 -46q189 0 326 86q14 7 34 23q26 22 37 29q21 16 56 16q14 0 22 -2q31 -7 85 -57.5t54 -81.5q0 -26 -22 -52q-102 -101 -263.5 -155.5t-328.5 -54.5
h-59q11 -30 20 -43q3 -6 23 -31q12 -15 26 -29q23 -27 34 -42t22.5 -45.5t11.5 -63.5q0 -79 -55 -135t-148 -56q-115 0 -197 100l-2 3v2q10 24 24 48t34 55.5t28 45.5l4 8l7 -6q5 -5 21.5 -24.5t27.5 -30.5q37 -33 53 -33q8 0 14 6q2 6 2 17q0 17 -18 38z" />
    <glyph glyph-name="Egrave" unicode="&#xc8;" horiz-adv-x="1259" vert-adv-y="2437" 
d="M653 2044h-211l238 -244h225zM276 0h816q36 0 57.5 22.5t21.5 49.5v96q0 29 -22 51.5t-59 22.5h-621v446h551q37 0 59.5 22.5t22.5 49.5v96q0 27 -22.5 49.5t-59.5 22.5h-551v420h600q40 0 61 21.5t21 51.5v92q0 29 -21 51.5t-61 22.5h-793q-39 0 -60 -22.5t-21 -51.5
v-1439q0 -29 22 -51.5t59 -22.5z" />
    <glyph glyph-name="Eacute" unicode="&#xc9;" horiz-adv-x="1259" vert-adv-y="2437" 
d="M485 1800h226l237 244h-211zM276 0h816q36 0 57.5 22.5t21.5 49.5v96q0 29 -22 51.5t-59 22.5h-621v446h551q37 0 59.5 22.5t22.5 49.5v96q0 27 -22.5 49.5t-59.5 22.5h-551v420h600q40 0 61 21.5t21 51.5v92q0 29 -21 51.5t-61 22.5h-793q-39 0 -60 -22.5t-21 -51.5
v-1439q0 -29 22 -51.5t59 -22.5z" />
    <glyph glyph-name="Ecircumflex" unicode="&#xca;" horiz-adv-x="1259" vert-adv-y="2437" 
d="M696 1800h213l-192 244h-142l-192 -244h213l51 68zM276 0h816q36 0 57.5 22.5t21.5 49.5v96q0 29 -22 51.5t-59 22.5h-621v446h551q37 0 59.5 22.5t22.5 49.5v96q0 27 -22.5 49.5t-59.5 22.5h-551v420h600q40 0 61 21.5t21 51.5v92q0 29 -21 51.5t-61 22.5h-793
q-39 0 -60 -22.5t-21 -51.5v-1439q0 -29 22 -51.5t59 -22.5z" />
    <glyph glyph-name="Edieresis" unicode="&#xcb;" horiz-adv-x="1259" vert-adv-y="2437" 
d="M631 2062q-65 0 -101 -38t-36 -93t36 -93t101 -38q63 0 99 38.5t36 92.5t-36 92.5t-99 38.5zM1008 2062q-64 0 -101 -38t-37 -93t37 -93t101 -38t99.5 38t35.5 93t-35.5 93t-99.5 38zM276 0h816q36 0 57.5 22.5t21.5 49.5v96q0 29 -22 51.5t-59 22.5h-621v446h551
q37 0 59.5 22.5t22.5 49.5v96q0 27 -22.5 49.5t-59.5 22.5h-551v420h600q40 0 61 21.5t21 51.5v92q0 29 -21 51.5t-61 22.5h-793q-39 0 -60 -22.5t-21 -51.5v-1439q0 -29 22 -51.5t59 -22.5z" />
    <glyph glyph-name="Igrave" unicode="&#xcc;" horiz-adv-x="663" vert-adv-y="2437" 
d="M418 2040h-211l237 -244h226zM276 0h113q35 0 57.5 22.5t22.5 49.5v1441q0 29 -22.5 51.5t-59.5 22.5h-113q-38 0 -58.5 -23t-20.5 -51v-1441q0 -28 22.5 -50t58.5 -22z" />
    <glyph glyph-name="Iacute" unicode="&#xcd;" horiz-adv-x="663" vert-adv-y="2437" 
d="M150 1800h225l237 244h-211zM276 0h113q35 0 57.5 22.5t22.5 49.5v1441q0 29 -22.5 51.5t-59.5 22.5h-113q-38 0 -58.5 -23t-20.5 -51v-1441q0 -28 22.5 -50t58.5 -22z" />
    <glyph glyph-name="Icircumflex" unicode="&#xce;" horiz-adv-x="663" vert-adv-y="2437" 
d="M346 1804h213l-192 244h-142l-192 -244h213l51 68zM276 0h113q35 0 57.5 22.5t22.5 49.5v1441q0 29 -22.5 51.5t-59.5 22.5h-113q-38 0 -58.5 -23t-20.5 -51v-1441q0 -28 22.5 -50t58.5 -22z" />
    <glyph glyph-name="Idieresis" unicode="&#xcf;" horiz-adv-x="663" vert-adv-y="2437" 
d="M274 2062q-65 0 -101 -38t-36 -93t36 -93t101 -38q63 0 99.5 38.5t36.5 92.5t-36.5 92.5t-99.5 38.5zM651 2062q-63 0 -100 -38t-37 -93t37 -93t100 -38q64 0 99.5 38t35.5 93t-35.5 93t-99.5 38zM276 0h113q35 0 57.5 22.5t22.5 49.5v1441q0 29 -22.5 51.5t-59.5 22.5
h-113q-38 0 -58.5 -23t-20.5 -51v-1441q0 -28 22.5 -50t58.5 -22z" />
    <glyph glyph-name="Ntilde" unicode="&#xd1;" horiz-adv-x="1693" vert-adv-y="2437" 
d="M856 2003q-50 70 -121 70q-91 0 -155 -136q-2 0 -2 -2v-4q0 -5 24 -63q29 -60 33 -70l6 -12l6 12q2 4 8.5 18t14.5 31.5t16 32.5q20 34 32.5 42t20 2t28.5 -34q3 -3 4 -4.5l3 -4.5t4 -5q50 -70 119 -70q52 0 97 42.5t59 88.5q2 4 2 11q0 17 -25 59q-10 16 -39 57l-4 11
l-6 -11q-1 -2 -14.5 -28t-24.5 -43q-11 -20 -18.5 -30t-13 -15t-12 0t-10.5 9.5t-14 20t-18 25.5zM195 1513v-1439q0 -29 22 -51.5t59 -22.5h111q36 0 59 23t23 51v1042l733 -1079q9 -14 32.5 -25.5t43.5 -11.5h139q37 0 59.5 22.5t22.5 51.5v1439q0 27 -21 50.5t-59 23.5
h-110q-39 0 -60.5 -22.5t-21.5 -51.5v-1044l-733 1077q-27 41 -76 41h-142q-39 0 -60 -22.5t-21 -51.5z" />
    <glyph glyph-name="Ograve" unicode="&#xd2;" horiz-adv-x="1878" vert-adv-y="2437" 
d="M989 2044h-211l238 -244h225zM942 1606q-166 0 -305.5 -44.5t-238 -121t-167 -180t-101 -221.5t-32.5 -246t32.5 -246t101 -221t166.5 -179.5t237.5 -120.5t306.5 -44q165 0 304.5 44t237.5 121t166.5 180t101 221t32.5 245q0 128 -32.5 246t-101 221.5t-166.5 180
t-237.5 121t-304.5 44.5zM942 1358q138 0 248 -46t178 -125t103.5 -179.5t35.5 -214.5t-35.5 -214t-103.5 -179t-178 -125t-248 -46q-139 0 -249.5 45.5t-179 124.5t-104.5 179.5t-36 214.5t36 214.5t104.5 179.5t179 125t249.5 46z" />
    <glyph glyph-name="Oacute" unicode="&#xd3;" horiz-adv-x="1878" vert-adv-y="2437" 
d="M725 1800h225l238 244h-211zM942 1606q-166 0 -305.5 -44.5t-238 -121t-167 -180t-101 -221.5t-32.5 -246t32.5 -246t101 -221t166.5 -179.5t237.5 -120.5t306.5 -44q165 0 304.5 44t237.5 121t166.5 180t101 221t32.5 245q0 128 -32.5 246t-101 221.5t-166.5 180
t-237.5 121t-304.5 44.5zM942 1358q138 0 248 -46t178 -125t103.5 -179.5t35.5 -214.5t-35.5 -214t-103.5 -179t-178 -125t-248 -46q-139 0 -249.5 45.5t-179 124.5t-104.5 179.5t-36 214.5t36 214.5t104.5 179.5t179 125t249.5 46z" />
    <glyph glyph-name="Ocircumflex" unicode="&#xd4;" horiz-adv-x="1878" vert-adv-y="2437" 
d="M956 1784h213l-192 244h-141l-193 -244h213l51 67zM942 1606q-166 0 -305.5 -44.5t-238 -121t-167 -180t-101 -221.5t-32.5 -246t32.5 -246t101 -221t166.5 -179.5t237.5 -120.5t306.5 -44q165 0 304.5 44t237.5 121t166.5 180t101 221t32.5 245q0 128 -32.5 246
t-101 221.5t-166.5 180t-237.5 121t-304.5 44.5zM942 1358q138 0 248 -46t178 -125t103.5 -179.5t35.5 -214.5t-35.5 -214t-103.5 -179t-178 -125t-248 -46q-139 0 -249.5 45.5t-179 124.5t-104.5 179.5t-36 214.5t36 214.5t104.5 179.5t179 125t249.5 46z" />
    <glyph glyph-name="Otilde" unicode="&#xd5;" horiz-adv-x="1878" vert-adv-y="2437" 
d="M885 2001q-50 70 -121 70q-92 0 -156 -136q-2 0 -2 -2v-4q0 -3 25 -63q29 -60 33 -70l6 -12l6 12q2 4 8.5 18t14.5 31.5t16 32.5q20 34 32.5 42t20 2t28.5 -34q3 -3 4 -4.5l3 -4.5t4 -5q50 -70 119 -70q52 0 96.5 42.5t58.5 88.5q2 4 2 11q0 19 -24 59q-10 16 -39 57
l-4 11l-6 -11q-1 -2 -14.5 -28t-24.5 -43q-11 -20 -18.5 -30t-13 -15t-12 0t-10.5 9.5t-14 20t-18 25.5zM942 1606q-166 0 -305.5 -44.5t-238 -121t-167 -180t-101 -221.5t-32.5 -246t32.5 -246t101 -221t166.5 -179.5t237.5 -120.5t306.5 -44q165 0 304.5 44t237.5 121
t166.5 180t101 221t32.5 245q0 128 -32.5 246t-101 221.5t-166.5 180t-237.5 121t-304.5 44.5zM942 1358q138 0 248 -46t178 -125t103.5 -179.5t35.5 -214.5t-35.5 -214t-103.5 -179t-178 -125t-248 -46q-139 0 -249.5 45.5t-179 124.5t-104.5 179.5t-36 214.5t36 214.5
t104.5 179.5t179 125t249.5 46z" />
    <glyph glyph-name="Odieresis" unicode="&#xd6;" horiz-adv-x="1878" vert-adv-y="2437" 
d="M883 2060q-65 0 -101.5 -38t-36.5 -93t36.5 -93t101.5 -38q63 0 99 38.5t36 92.5t-36 92.5t-99 38.5zM1260 2060q-64 0 -101 -38t-37 -93t37 -93t101 -38t99.5 38t35.5 93t-35.5 93t-99.5 38zM942 1606q-166 0 -305.5 -44.5t-238 -121t-167 -180t-101 -221.5t-32.5 -246
t32.5 -246t101 -221t166.5 -179.5t237.5 -120.5t306.5 -44q165 0 304.5 44t237.5 121t166.5 180t101 221t32.5 245q0 128 -32.5 246t-101 221.5t-166.5 180t-237.5 121t-304.5 44.5zM942 1358q138 0 248 -46t178 -125t103.5 -179.5t35.5 -214.5t-35.5 -214t-103.5 -179
t-178 -125t-248 -46q-139 0 -249.5 45.5t-179 124.5t-104.5 179.5t-36 214.5t36 214.5t104.5 179.5t179 125t249.5 46z" />
    <glyph glyph-name="multiply" unicode="&#xd7;" horiz-adv-x="1146" vert-adv-y="2437" 
d="M152 905l233 -225l-238 -231q-20 -20 -20 -50q0 -31 23 -51l77 -76q28 -24 62 -24q33 0 61 24l230 222l221 -220q22 -22 61 -22q38 0 60 22l73 72q21 21 21 51q0 28 -21 49l-235 226l237 231q23 20 23 49t-23 49l-77 76q-25 25 -62 25q-36 0 -61 -25l-228 -221l-221 221
q-23 23 -61 23q-39 0 -62 -23l-73 -71q-21 -21 -21 -50q0 -30 21 -51z" />
    <glyph glyph-name="Oslash" unicode="&#xd8;" horiz-adv-x="1878" vert-adv-y="2437" 
d="M942 -18q-195 0 -344 55q-15 -25 -18 -29q-37 -53 -95 -53h-104q-33 0 -51 20.5t-15 47.5q4 18 70 133q-141 114 -214 281t-73 356q0 128 32.5 246t101 221.5t167 180t238 121t305.5 44.5q132 0 240 -27l12 20q17 34 27 48q35 49 92 49h102q32 0 51.5 -18.5t16.5 -47.5
q-3 -12 -74 -141q183 -107 279 -292.5t96 -403.5q0 -127 -32.5 -245t-101 -221t-166.5 -180t-237.5 -121t-304.5 -44zM942 1358q-139 0 -249.5 -46t-179 -125t-104.5 -179.5t-36 -214.5q0 -244 145 -398q0 2 2 4q39 70 96.5 172t90.5 160.5t41 73.5l305 545q-70 8 -111 8z
M1507 793q0 146 -57 269.5t-168 199.5q0 -2 -1 -5t-1 -4q-214 -377 -227 -403l-314 -557l-16 -29q96 -35 219 -35q138 0 248 46t178 125t103.5 179t35.5 214z" />
    <glyph glyph-name="Ugrave" unicode="&#xd9;" horiz-adv-x="1595" vert-adv-y="2437" 
d="M868 2044h-211l238 -244h225zM195 1513v-880q0 -98 18 -187t62.5 -175t111.5 -149t173.5 -101.5t240.5 -38.5q133 0 238 38.5t172 101t110.5 148.5t61.5 175t18 186v882q0 29 -21.5 51.5t-60.5 22.5h-113q-37 0 -59.5 -23.5t-22.5 -50.5v-882q0 -64 -8.5 -119t-31 -108.5
t-58 -91t-93 -60.5t-132.5 -23q-93 0 -160.5 34t-103.5 93.5t-52 127t-16 147.5v882q0 27 -22 49.5t-58 22.5h-117q-38 0 -57.5 -22.5t-19.5 -49.5z" />
    <glyph glyph-name="Uacute" unicode="&#xda;" horiz-adv-x="1595" vert-adv-y="2437" 
d="M610 1800h226l237 244h-211zM195 1513v-880q0 -98 18 -187t62.5 -175t111.5 -149t173.5 -101.5t240.5 -38.5q133 0 238 38.5t172 101t110.5 148.5t61.5 175t18 186v882q0 29 -21.5 51.5t-60.5 22.5h-113q-37 0 -59.5 -23.5t-22.5 -50.5v-882q0 -64 -8.5 -119t-31 -108.5
t-58 -91t-93 -60.5t-132.5 -23q-93 0 -160.5 34t-103.5 93.5t-52 127t-16 147.5v882q0 27 -22 49.5t-58 22.5h-117q-38 0 -57.5 -22.5t-19.5 -49.5z" />
    <glyph glyph-name="Ucircumflex" unicode="&#xdb;" horiz-adv-x="1595" vert-adv-y="2437" 
d="M811 1800h213l-193 244h-141l-192 -244h213l51 68zM195 1513v-880q0 -98 18 -187t62.5 -175t111.5 -149t173.5 -101.5t240.5 -38.5q133 0 238 38.5t172 101t110.5 148.5t61.5 175t18 186v882q0 29 -21.5 51.5t-60.5 22.5h-113q-37 0 -59.5 -23.5t-22.5 -50.5v-882
q0 -64 -8.5 -119t-31 -108.5t-58 -91t-93 -60.5t-132.5 -23q-93 0 -160.5 34t-103.5 93.5t-52 127t-16 147.5v882q0 27 -22 49.5t-58 22.5h-117q-38 0 -57.5 -22.5t-19.5 -49.5z" />
    <glyph glyph-name="Udieresis" unicode="&#xdc;" horiz-adv-x="1595" vert-adv-y="2437" 
d="M748 2062q-65 0 -101.5 -38t-36.5 -93t36.5 -93t101.5 -38q63 0 99 38.5t36 92.5t-36 92.5t-99 38.5zM1124 2062q-63 0 -100 -38t-37 -93t37 -93t100 -38q64 0 100 38.5t36 92.5t-36 92.5t-100 38.5zM195 1513v-880q0 -98 18 -187t62.5 -175t111.5 -149t173.5 -101.5
t240.5 -38.5q133 0 238 38.5t172 101t110.5 148.5t61.5 175t18 186v882q0 29 -21.5 51.5t-60.5 22.5h-113q-37 0 -59.5 -23.5t-22.5 -50.5v-882q0 -64 -8.5 -119t-31 -108.5t-58 -91t-93 -60.5t-132.5 -23q-93 0 -160.5 34t-103.5 93.5t-52 127t-16 147.5v882q0 27 -22 49.5
t-58 22.5h-117q-38 0 -57.5 -22.5t-19.5 -49.5z" />
    <glyph glyph-name="Yacute" unicode="&#xdd;" horiz-adv-x="1353" vert-adv-y="2437" 
d="M479 1796h226l237 244h-211zM221 1585h-129q-33 0 -57.5 -18t-24.5 -47q0 -20 10 -37l351 -576q5 -8 96 -141q63 -91 72 -135q2 -6 2 -33q-2 -14 -2 -39v-188q0 -49 1 -148.5t1 -148.5q0 -29 22.5 -51.5t59.5 -22.5h110q37 0 59.5 22.5t22.5 51.5v544q0 9 -2 13
q6 29 72 133q92 131 98 143l350 576q10 20 10 37q0 29 -22.5 47t-56.5 18h-129q-29 0 -52 -13t-34 -34l-371 -641l-373 641q-26 47 -84 47z" />
    <glyph glyph-name="germandbls" unicode="&#xdf;" horiz-adv-x="1634" vert-adv-y="1894" 
d="M750 -2l-2 221q106 0 191.5 22.5t144.5 78.5t59 139q0 77 -57.5 129.5t-141 74t-184.5 21.5h-43q-55 0 -80 41q-16 27 -16 63q0 42 12 70q23 47 84 47h35q97 0 172 20.5t124.5 70t49.5 124.5q0 77 -50.5 129.5t-128.5 75.5t-176 23q-158 0 -254 -56v-1542
q0 -27 -21.5 -49.5t-57.5 -22.5h-111q-37 0 -60.5 22t-23.5 50v1596q0 32 29 57q81 85 217.5 124.5t281.5 39.5q120 0 231 -28t201.5 -81t144.5 -139.5t54 -194.5q0 -99 -52.5 -183t-150.5 -138q117 -57 182.5 -146t65.5 -202q0 -91 -38.5 -167.5t-104 -129t-152 -89.5
t-181 -54t-193.5 -17z" />
    <glyph glyph-name="agrave" unicode="&#xe0;" horiz-adv-x="1396" vert-adv-y="2437" 
d="M715 1530h-211l237 -244h226zM971 82q0 -2 1 -7.5t1 -8.5q17 -66 90 -66q8 0 24.5 -1t24.5 -1q49 0 86 20t37 66v883q0 53 -55 73q-35 13 -86 13q-89 0 -113 -52q-5 -11 -8 -32q-134 102 -334 102q-110 0 -202.5 -31t-156.5 -83.5t-108.5 -123t-65 -148t-20.5 -159.5
t20.5 -159.5t65 -148t108.5 -123.5t156.5 -84t202.5 -31q197 0 332 102zM651 834q149 0 234.5 -88.5t85.5 -219.5q0 -129 -86.5 -218t-233.5 -89t-227 87.5t-80 219.5q0 130 80.5 219t226.5 89z" />
    <glyph glyph-name="aacute" unicode="&#xe1;" horiz-adv-x="1396" vert-adv-y="2437" 
d="M510 1286h225l238 244h-211zM971 82q0 -2 1 -7.5t1 -8.5q17 -66 90 -66q8 0 24.5 -1t24.5 -1q49 0 86 20t37 66v883q0 53 -55 73q-35 13 -86 13q-89 0 -113 -52q-5 -11 -8 -32q-134 102 -334 102q-110 0 -202.5 -31t-156.5 -83.5t-108.5 -123t-65 -148t-20.5 -159.5
t20.5 -159.5t65 -148t108.5 -123.5t156.5 -84t202.5 -31q197 0 332 102zM651 834q149 0 234.5 -88.5t85.5 -219.5q0 -129 -86.5 -218t-233.5 -89t-227 87.5t-80 219.5q0 130 80.5 219t226.5 89z" />
    <glyph glyph-name="acircumflex" unicode="&#xe2;" horiz-adv-x="1396" vert-adv-y="2437" 
d="M674 1286h213l-193 244h-141l-193 -244h213l52 68zM971 82q0 -2 1 -7.5t1 -8.5q17 -66 90 -66q8 0 24.5 -1t24.5 -1q49 0 86 20t37 66v883q0 53 -55 73q-35 13 -86 13q-89 0 -113 -52q-5 -11 -8 -32q-134 102 -334 102q-110 0 -202.5 -31t-156.5 -83.5t-108.5 -123
t-65 -148t-20.5 -159.5t20.5 -159.5t65 -148t108.5 -123.5t156.5 -84t202.5 -31q197 0 332 102zM651 834q149 0 234.5 -88.5t85.5 -219.5q0 -129 -86.5 -218t-233.5 -89t-227 87.5t-80 219.5q0 130 80.5 219t226.5 89z" />
    <glyph glyph-name="atilde" unicode="&#xe3;" horiz-adv-x="1396" vert-adv-y="2437" 
d="M702 1481q-49 69 -120 69q-92 0 -156 -135q-2 0 -2 -2v-4q0 -3 25 -63q23 -48 32 -70l6 -12l7 12l14 31q13 31 24 51q20 34 33 42t21 1.5t29 -34.5l3 -3t2 -3t2.5 -3.5t2.5 -3.5q50 -70 118 -70q52 0 97 42.5t59 88.5q2 4 2 10q0 20 -24 60q-10 16 -39 57l-4 10l-7 -10
q-1 -2 -14.5 -28.5t-24.5 -43.5q-11 -20 -18.5 -30t-13 -15t-12 0t-10.5 10t-14 20.5t-18 25.5zM971 82q0 -2 1 -7.5t1 -8.5q17 -66 90 -66q8 0 24.5 -1t24.5 -1q49 0 86 20t37 66v883q0 53 -55 73q-35 13 -86 13q-89 0 -113 -52q-5 -11 -8 -32q-134 102 -334 102
q-110 0 -202.5 -31t-156.5 -83.5t-108.5 -123t-65 -148t-20.5 -159.5t20.5 -159.5t65 -148t108.5 -123.5t156.5 -84t202.5 -31q197 0 332 102zM651 834q149 0 234.5 -88.5t85.5 -219.5q0 -129 -86.5 -218t-233.5 -89t-227 87.5t-80 219.5q0 130 80.5 219t226.5 89z" />
    <glyph glyph-name="adieresis" unicode="&#xe4;" horiz-adv-x="1396" vert-adv-y="2437" 
d="M608 1552q-65 0 -101 -38t-36 -93t36 -93t101 -38q63 0 99 38.5t36 92.5t-36 92.5t-99 38.5zM985 1552q-63 0 -100 -38t-37 -93t37 -93t100 -38q64 0 99.5 38t35.5 93t-35.5 93t-99.5 38zM971 82q0 -2 1 -7.5t1 -8.5q17 -66 90 -66q8 0 24.5 -1t24.5 -1q49 0 86 20t37 66
v883q0 53 -55 73q-35 13 -86 13q-89 0 -113 -52q-5 -11 -8 -32q-134 102 -334 102q-110 0 -202.5 -31t-156.5 -83.5t-108.5 -123t-65 -148t-20.5 -159.5t20.5 -159.5t65 -148t108.5 -123.5t156.5 -84t202.5 -31q197 0 332 102zM651 834q149 0 234.5 -88.5t85.5 -219.5
q0 -129 -86.5 -218t-233.5 -89t-227 87.5t-80 219.5q0 130 80.5 219t226.5 89z" />
    <glyph glyph-name="aring" unicode="&#xe5;" horiz-adv-x="1396" vert-adv-y="2437" 
d="M840 1444q0 66 -44.5 110.5t-121.5 44.5t-121.5 -44.5t-44.5 -110.5q0 -59 49 -106.5t117 -47.5q75 0 120.5 45t45.5 109zM635 1444q0 15 9 27t30 12q37 0 37 -39t-37 -39q-19 0 -29 11.5t-10 27.5zM971 82q0 -2 1 -7.5t1 -8.5q17 -66 90 -66q8 0 24.5 -1t24.5 -1
q49 0 86 20t37 66v883q0 53 -55 73q-35 13 -86 13q-89 0 -113 -52q-5 -11 -8 -32q-134 102 -334 102q-110 0 -202.5 -31t-156.5 -83.5t-108.5 -123t-65 -148t-20.5 -159.5t20.5 -159.5t65 -148t108.5 -123.5t156.5 -84t202.5 -31q197 0 332 102zM651 834q149 0 234.5 -88.5
t85.5 -219.5q0 -129 -86.5 -218t-233.5 -89t-227 87.5t-80 219.5q0 130 80.5 219t226.5 89z" />
    <glyph glyph-name="ae" unicode="&#xe6;" horiz-adv-x="2136" vert-adv-y="2437" 
d="M2105 485q0 -27 -22.5 -50t-61.5 -23h-772q33 -90 114.5 -141.5t197.5 -51.5q119 0 196 53q14 10 49 39q18 13 27 17q16 8 35 8q37 0 96 -55t59 -84q0 -27 -20 -47q-158 -170 -442 -170q-194 0 -330 79q-10 -32 -44 -46.5t-75 -14.5q-8 0 -24.5 1t-24.5 1q-73 0 -90 66
q0 3 -1 8.5t-1 7.5q-135 -102 -332 -102q-110 0 -202.5 31t-156.5 84t-108.5 123.5t-65 148t-20.5 159.5t20.5 159.5t65 148t108.5 123t156.5 83.5t202.5 31q200 0 334 -102q3 21 8 32q24 52 113 52q51 0 86 -13q36 -12 49 -43q129 74 307 74q122 0 220.5 -33.5t162.5 -89.5
t107 -132.5t61 -158.5t18 -172zM344 526q0 -132 80 -219.5t227 -87.5t233.5 89t86.5 218q0 131 -85.5 219.5t-234.5 88.5q-146 0 -226.5 -89t-80.5 -219zM1247 639h578q-29 90 -103.5 142.5t-185.5 52.5q-110 0 -184.5 -52.5t-104.5 -142.5z" />
    <glyph glyph-name="ccedilla" unicode="&#xe7;" horiz-adv-x="1222" vert-adv-y="2437" 
d="M625 -291q4 12 4 17q0 16 -19 38q-36 42 -43 52q-63 71 -63 161v17q-135 29 -232 112t-141.5 190.5t-44.5 229.5q0 107 36.5 203.5t106 174t180.5 123.5t248 46q147 0 273.5 -61.5t195.5 -167.5q15 -23 15 -41q0 -17 -13 -37q-11 -17 -59 -55l-41 -29q-3 -1 -7 -3.5
t-7 -4t-6 -2.5q-12 -6 -25 -6q-28 0 -53 18q-9 6 -12 12l-7 9q-91 126 -260 126q-146 0 -226.5 -87.5t-80.5 -217.5q0 -132 80 -219.5t227 -87.5q171 0 260 127l7 8q14 14 16 15q22 14 49 14q29 0 53 -18q30 -20 58 -48q18 -15 30 -30q17 -21 17 -39t-15 -41
q-72 -105 -188 -164t-260 -63q5 -21 20 -43q3 -6 23 -31l24 -29q22 -24 34 -41t23 -46.5t11 -63.5q0 -79 -54.5 -135t-146.5 -56q-112 0 -198 100l-2 3l2 2q8 19 19 40t20 35.5t23.5 38t21.5 35.5l6 8l4 -6q7 -7 25.5 -28t23.5 -27q37 -33 55 -33q10 0 13 6z" />
    <glyph glyph-name="egrave" unicode="&#xe8;" vert-adv-y="2437" 
d="M723 1542h-211l238 -244h225zM651 1071q-138 0 -248 -46t-178 -123.5t-103.5 -173.5t-35.5 -202q0 -110 39 -207.5t111 -173.5t186 -120.5t254 -44.5q284 0 442 170q21 21 21 47q0 29 -59.5 84t-96.5 55q-19 0 -35 -8q-12 -5 -24 -17q-6 -4 -23.5 -17.5t-28.5 -21.5
q-77 -53 -196 -53q-116 0 -197 51.5t-114 141.5h774q37 0 59.5 23t22.5 50q0 90 -18.5 172t-61 158.5t-107 132.5t-163 89.5t-220.5 33.5zM942 639h-580q30 90 104.5 142.5t184.5 52.5q111 0 186 -52.5t105 -142.5z" />
    <glyph glyph-name="eacute" unicode="&#xe9;" vert-adv-y="2437" 
d="M526 1298h226l237 244h-211zM651 1071q-138 0 -248 -46t-178 -123.5t-103.5 -173.5t-35.5 -202q0 -110 39 -207.5t111 -173.5t186 -120.5t254 -44.5q284 0 442 170q21 21 21 47q0 29 -59.5 84t-96.5 55q-19 0 -35 -8q-12 -5 -24 -17q-6 -4 -23.5 -17.5t-28.5 -21.5
q-77 -53 -196 -53q-116 0 -197 51.5t-114 141.5h774q37 0 59.5 23t22.5 50q0 90 -18.5 172t-61 158.5t-107 132.5t-163 89.5t-220.5 33.5zM942 639h-580q30 90 104.5 142.5t184.5 52.5q111 0 186 -52.5t105 -142.5z" />
    <glyph glyph-name="ecircumflex" unicode="&#xea;" vert-adv-y="2437" 
d="M666 1298h213l-193 244h-141l-193 -244h213l51 68zM651 1071q-138 0 -248 -46t-178 -123.5t-103.5 -173.5t-35.5 -202q0 -110 39 -207.5t111 -173.5t186 -120.5t254 -44.5q284 0 442 170q21 21 21 47q0 29 -59.5 84t-96.5 55q-19 0 -35 -8q-12 -5 -24 -17
q-6 -4 -23.5 -17.5t-28.5 -21.5q-77 -53 -196 -53q-116 0 -197 51.5t-114 141.5h774q37 0 59.5 23t22.5 50q0 90 -18.5 172t-61 158.5t-107 132.5t-163 89.5t-220.5 33.5zM942 639h-580q30 90 104.5 142.5t184.5 52.5q111 0 186 -52.5t105 -142.5z" />
    <glyph glyph-name="edieresis" unicode="&#xeb;" vert-adv-y="2437" 
d="M602 1561q-65 0 -101 -38t-36 -93q0 -56 36 -94t101 -38q63 0 99 39t36 93t-36 92.5t-99 38.5zM979 1561q-63 0 -100 -38t-37 -93t37 -93.5t100 -38.5q64 0 99.5 38.5t35.5 93.5t-35.5 93t-99.5 38zM651 1071q-138 0 -248 -46t-178 -123.5t-103.5 -173.5t-35.5 -202
q0 -110 39 -207.5t111 -173.5t186 -120.5t254 -44.5q284 0 442 170q21 21 21 47q0 29 -59.5 84t-96.5 55q-19 0 -35 -8q-12 -5 -24 -17q-6 -4 -23.5 -17.5t-28.5 -21.5q-77 -53 -196 -53q-116 0 -197 51.5t-114 141.5h774q37 0 59.5 23t22.5 50q0 90 -18.5 172t-61 158.5
t-107 132.5t-163 89.5t-220.5 33.5zM942 639h-580q30 90 104.5 142.5t184.5 52.5q111 0 186 -52.5t105 -142.5z" />
    <glyph glyph-name="igrave" unicode="&#xec;" horiz-adv-x="602" vert-adv-y="2437" 
d="M387 1542h-211l238 -244h225zM256 0h96q36 0 59 22t23 50v907q0 28 -23 50t-59 22h-98q-37 0 -59.5 -22.5t-22.5 -49.5v-907q0 -28 23.5 -50t60.5 -22z" />
    <glyph glyph-name="iacute" unicode="&#xed;" horiz-adv-x="602" vert-adv-y="2437" 
d="M119 1298h225l238 244h-211zM256 0h96q36 0 59 22t23 50v907q0 28 -23 50t-59 22h-98q-37 0 -59.5 -22.5t-22.5 -49.5v-907q0 -28 23.5 -50t60.5 -22z" />
    <glyph glyph-name="icircumflex" unicode="&#xee;" horiz-adv-x="602" vert-adv-y="2437" 
d="M315 1298h213l-192 244h-141l-193 -244h213l51 68zM256 0h96q36 0 59 22t23 50v907q0 28 -23 50t-59 22h-98q-37 0 -59.5 -22.5t-22.5 -49.5v-907q0 -28 23.5 -50t60.5 -22z" />
    <glyph glyph-name="idieresis" unicode="&#xef;" horiz-adv-x="602" vert-adv-y="2437" 
d="M246 1542q-65 0 -101 -38t-36 -93t36 -93t101 -38q63 0 99 38.5t36 92.5t-36 92.5t-99 38.5zM623 1542q-64 0 -101 -38t-37 -93t37 -93t101 -38t99.5 38t35.5 93t-35.5 93t-99.5 38zM256 0h96q36 0 59 22t23 50v907q0 28 -23 50t-59 22h-98q-37 0 -59.5 -22.5
t-22.5 -49.5v-907q0 -28 23.5 -50t60.5 -22z" />
    <glyph glyph-name="ntilde" unicode="&#xf1;" horiz-adv-x="1325" vert-adv-y="2437" 
d="M647 1497q-50 70 -121 70q-91 0 -155 -135q-2 0 -2 -2v-5q0 -5 24 -63q29 -60 33 -70l6 -12l6 12q2 4 8.5 18t14.5 31.5t16 32.5q20 34 32.5 42t20 2t28.5 -34q3 -3 4 -4.5l3 -4.5t4 -5q50 -70 119 -70q52 0 97 43t59 89q2 4 2 10q0 17 -25 59q-14 23 -39 58l-4 10
l-6 -10q-1 -2 -14.5 -28.5t-24.5 -43.5q-11 -20 -18.5 -30t-13 -15t-12 0t-10.5 9.5t-14 20t-18 25.5zM420 975q-4 25 -12 37q-25 41 -123 41q-49 0 -86 -19.5t-37 -66.5v-895q0 -28 23.5 -50t58.5 -22h100q37 0 59.5 22.5t22.5 51.5v434q0 74 30.5 147t95 126t146.5 53
q115 0 160 -62t45 -174v-526q0 -29 22.5 -50.5t59.5 -21.5h98q37 0 60.5 22t23.5 50v526q0 73 -13.5 138.5t-46.5 127.5t-83 107t-129.5 72.5t-179.5 27.5q-176 0 -295 -96z" />
    <glyph glyph-name="ograve" unicode="&#xf2;" vert-adv-y="2437" 
d="M743 1542h-211l238 -244h225zM651 1071q-138 0 -248 -46t-178 -123.5t-103.5 -173.5t-35.5 -202q0 -84 22 -163t68 -148.5t111.5 -121.5t159 -82.5t204.5 -30.5t205 30.5t160.5 82.5t113 121.5t69 148.5t22.5 163q0 106 -36.5 202t-105 173.5t-179.5 123.5t-249 46z
M651 834q147 0 227 -88t80 -220t-79.5 -219.5t-227.5 -87.5q-147 0 -227 87.5t-80 219.5q0 130 80.5 219t226.5 89z" />
    <glyph glyph-name="oacute" unicode="&#xf3;" vert-adv-y="2437" 
d="M412 1303h225l237 243h-210zM651 1071q-138 0 -248 -46t-178 -123.5t-103.5 -173.5t-35.5 -202q0 -84 22 -163t68 -148.5t111.5 -121.5t159 -82.5t204.5 -30.5t205 30.5t160.5 82.5t113 121.5t69 148.5t22.5 163q0 106 -36.5 202t-105 173.5t-179.5 123.5t-249 46z
M651 834q147 0 227 -88t80 -220t-79.5 -219.5t-227.5 -87.5q-147 0 -227 87.5t-80 219.5q0 130 80.5 219t226.5 89z" />
    <glyph glyph-name="ocircumflex" unicode="&#xf4;" vert-adv-y="2437" 
d="M666 1303h213l-193 243h-141l-193 -243h213l51 67zM651 1071q-138 0 -248 -46t-178 -123.5t-103.5 -173.5t-35.5 -202q0 -84 22 -163t68 -148.5t111.5 -121.5t159 -82.5t204.5 -30.5t205 30.5t160.5 82.5t113 121.5t69 148.5t22.5 163q0 106 -36.5 202t-105 173.5
t-179.5 123.5t-249 46zM651 834q147 0 227 -88t80 -220t-79.5 -219.5t-227.5 -87.5q-147 0 -227 87.5t-80 219.5q0 130 80.5 219t226.5 89z" />
    <glyph glyph-name="otilde" unicode="&#xf5;" vert-adv-y="2437" 
d="M635 1497q-50 70 -121 70q-92 0 -156 -135q-2 0 -2 -2v-5q0 -3 25 -63q29 -60 33 -70l6 -12l6 12q2 4 8.5 18t14.5 31.5t16 32.5q20 34 32.5 42t20 2t28.5 -34q3 -3 4 -4.5l3 -4.5t4 -5q50 -70 119 -70q52 0 96.5 43t58.5 89q3 6 3 10q0 17 -25 59q-14 23 -39 58l-4 10
l-6 -10q-1 -2 -14.5 -28.5t-24.5 -43.5q-11 -20 -18.5 -30t-13 -15t-12 0t-10.5 9.5t-14 20t-18 25.5zM651 1071q-138 0 -248 -46t-178 -123.5t-103.5 -173.5t-35.5 -202q0 -84 22 -163t68 -148.5t111.5 -121.5t159 -82.5t204.5 -30.5t205 30.5t160.5 82.5t113 121.5
t69 148.5t22.5 163q0 106 -36.5 202t-105 173.5t-179.5 123.5t-249 46zM651 834q147 0 227 -88t80 -220t-79.5 -219.5t-227.5 -87.5q-147 0 -227 87.5t-80 219.5q0 130 80.5 219t226.5 89z" />
    <glyph glyph-name="odieresis" unicode="&#xf6;" vert-adv-y="2437" 
d="M602 1569q-65 0 -101 -38t-36 -93t36 -93t101 -38q63 0 99 38.5t36 92.5t-36 92.5t-99 38.5zM979 1569q-63 0 -100 -38t-37 -93t37 -93t100 -38q64 0 99.5 38t35.5 93t-35.5 93t-99.5 38zM651 1071q-138 0 -248 -46t-178 -123.5t-103.5 -173.5t-35.5 -202q0 -84 22 -163
t68 -148.5t111.5 -121.5t159 -82.5t204.5 -30.5t205 30.5t160.5 82.5t113 121.5t69 148.5t22.5 163q0 106 -36.5 202t-105 173.5t-179.5 123.5t-249 46zM651 834q147 0 227 -88t80 -220t-79.5 -219.5t-227.5 -87.5q-147 0 -227 87.5t-80 219.5q0 130 80.5 219t226.5 89z" />
    <glyph glyph-name="divide" unicode="&#xf7;" horiz-adv-x="1333" vert-adv-y="2437" 
d="M737 553h389q37 0 59.5 23.5t22.5 50.5v98q0 29 -22.5 51.5t-59.5 22.5h-395q53 16 81 59t28 92q0 63 -43.5 110.5t-124.5 47.5q-82 0 -128 -46.5t-46 -111.5q0 -50 29.5 -92t82.5 -59h-401q-37 0 -59.5 -22.5t-22.5 -51.5v-98q0 -29 22.5 -51.5t59.5 -22.5h395
q-51 -17 -78.5 -57.5t-27.5 -89.5q0 -65 46 -111.5t128 -46.5q81 0 124.5 47.5t43.5 110.5q0 47 -26.5 88t-76.5 59z" />
    <glyph glyph-name="oslash" unicode="&#xf8;" vert-adv-y="2437" 
d="M651 -20q-110 0 -192 26l-15 -20q-35 -35 -88 -35h-104q-34 0 -54 13.5t-20 31.5q0 6 72 129q-81 76 -122.5 180.5t-41.5 220.5q0 106 35.5 202t103.5 173.5t178 123.5t248 46q91 0 168 -18q7 9 17 26q17 27 20 31q27 35 84 35h104q33 0 54.5 -12.5t21.5 -32.5
q0 -10 -88 -154q92 -77 140.5 -187t48.5 -233q0 -84 -22.5 -163t-69 -148.5t-113 -121.5t-160.5 -82.5t-205 -30.5zM651 834q-146 0 -226.5 -89t-80.5 -219q0 -100 45 -174q24 39 49.5 80t42 68t19.5 32l184 302h-33zM958 526q0 117 -61 199l-98 -162l-209 -338q30 -6 61 -6
q148 0 227.5 87.5t79.5 219.5z" />
    <glyph glyph-name="ugrave" unicode="&#xf9;" horiz-adv-x="1325" vert-adv-y="2437" 
d="M678 1530h-211l238 -244h225zM907 78q2 -4 2 -12q17 -66 90 -66q7 0 22 -1t23 -1q49 0 86 20t37 66v895q0 28 -23.5 50t-60.5 22h-98q-40 0 -61 -22.5t-21 -51.5v-436q0 -72 -31.5 -145t-96.5 -126t-146 -53q-113 0 -158 61.5t-45 172.5v528q0 29 -22.5 50.5t-59.5 21.5
h-102q-36 0 -58 -22.5t-22 -49.5v-524q0 -74 13 -139.5t46 -128t83 -107.5t129.5 -72.5t180.5 -27.5q177 0 293 98z" />
    <glyph glyph-name="uacute" unicode="&#xfa;" horiz-adv-x="1325" vert-adv-y="2437" 
d="M506 1286h225l238 244h-211zM907 78q2 -4 2 -12q17 -66 90 -66q7 0 22 -1t23 -1q49 0 86 20t37 66v895q0 28 -23.5 50t-60.5 22h-98q-40 0 -61 -22.5t-21 -51.5v-436q0 -72 -31.5 -145t-96.5 -126t-146 -53q-113 0 -158 61.5t-45 172.5v528q0 29 -22.5 50.5t-59.5 21.5
h-102q-36 0 -58 -22.5t-22 -49.5v-524q0 -74 13 -139.5t46 -128t83 -107.5t129.5 -72.5t180.5 -27.5q177 0 293 98z" />
    <glyph glyph-name="ucircumflex" unicode="&#xfb;" horiz-adv-x="1325" vert-adv-y="2437" 
d="M637 1286h213l-193 244h-141l-192 -244h213l51 68zM907 78q2 -4 2 -12q17 -66 90 -66q7 0 22 -1t23 -1q49 0 86 20t37 66v895q0 28 -23.5 50t-60.5 22h-98q-40 0 -61 -22.5t-21 -51.5v-436q0 -72 -31.5 -145t-96.5 -126t-146 -53q-113 0 -158 61.5t-45 172.5v528
q0 29 -22.5 50.5t-59.5 21.5h-102q-36 0 -58 -22.5t-22 -49.5v-524q0 -74 13 -139.5t46 -128t83 -107.5t129.5 -72.5t180.5 -27.5q177 0 293 98z" />
    <glyph glyph-name="udieresis" unicode="&#xfc;" horiz-adv-x="1325" vert-adv-y="2437" 
d="M612 1548q-65 0 -101 -38t-36 -93t36 -93t101 -38q63 0 99.5 38.5t36.5 92.5t-36.5 92.5t-99.5 38.5zM989 1548q-63 0 -100 -38t-37 -93t37 -93t100 -38q64 0 99.5 38t35.5 93t-35.5 93t-99.5 38zM907 78q2 -4 2 -12q17 -66 90 -66q7 0 22 -1t23 -1q49 0 86 20t37 66v895
q0 28 -23.5 50t-60.5 22h-98q-40 0 -61 -22.5t-21 -51.5v-436q0 -72 -31.5 -145t-96.5 -126t-146 -53q-113 0 -158 61.5t-45 172.5v528q0 29 -22.5 50.5t-59.5 21.5h-102q-36 0 -58 -22.5t-22 -49.5v-524q0 -74 13 -139.5t46 -128t83 -107.5t129.5 -72.5t180.5 -27.5
q177 0 293 98z" />
    <glyph glyph-name="yacute" unicode="&#xfd;" horiz-adv-x="1122" vert-adv-y="2437" 
d="M403 1286h226l237 244h-211zM227 -420q0 -29 23.5 -48t58.5 -19h103q57 0 84 51q7 14 307 706q297 701 297 711q0 30 -24 50t-60 20h-113q-31 0 -53.5 -15.5t-32.5 -38.5l-262 -620l-250 618q-9 24 -32 40t-54 16h-115q-36 0 -58.5 -19t-22.5 -49q0 -19 182 -442
q37 -85 86.5 -195.5t83 -186t45.5 -104.5q-7 -18 -23 -55t-41 -93.5t-41 -94.5q-88 -209 -88 -232z" />
    <glyph glyph-name="ydieresis" unicode="&#xff;" horiz-adv-x="1122" vert-adv-y="2437" 
d="M459 1548q-65 0 -101 -38t-36 -93t36 -93t101 -38q63 0 99 38.5t36 92.5t-36 92.5t-99 38.5zM836 1548q-64 0 -101 -38t-37 -93t37 -93t101 -38t99.5 38t35.5 93t-35.5 93t-99.5 38zM227 -420q0 -29 23.5 -48t58.5 -19h103q57 0 84 51q7 14 307 706q297 701 297 711
q0 30 -24 50t-60 20h-113q-31 0 -53.5 -15.5t-32.5 -38.5l-262 -620l-250 618q-9 24 -32 40t-54 16h-115q-36 0 -58.5 -19t-22.5 -49q0 -19 182 -442q37 -85 86.5 -195.5t83 -186t45.5 -104.5q-7 -18 -23 -55t-41 -93.5t-41 -94.5q-88 -209 -88 -232z" />
    <glyph glyph-name="Cacute" unicode="&#x106;" horiz-adv-x="1626" vert-adv-y="2437" 
d="M696 1827h226l237 244h-211zM580 1536q-125 -53 -219.5 -134t-151 -179.5t-84 -206t-27.5 -223.5q0 -126 32.5 -243.5t100.5 -221.5t165.5 -181t236 -122t303.5 -45q167 0 328.5 54.5t263.5 155.5q22 26 22 52q0 31 -54 81.5t-85 57.5q-8 2 -22 2q-35 0 -56 -16
q-11 -7 -37 -29q-20 -16 -34 -23q-137 -86 -326 -86q-138 0 -248 46t-177.5 125t-102.5 178.5t-35 212.5q0 90 21.5 173t67 155t111 125t159 83.5t204.5 30.5q120 0 214 -32.5t185 -102.5q23 -23 56 -23q36 0 96.5 56t60.5 85t-24 50q-112 103 -265.5 159t-322.5 56
q-194 0 -356 -70z" />
    <glyph glyph-name="cacute" unicode="&#x107;" horiz-adv-x="1220" vert-adv-y="2437" 
d="M461 1214h225l238 244h-211zM657 1073q-137 0 -248 -46t-180.5 -123.5t-106 -174t-36.5 -203.5q0 -84 22 -163t68 -148.5t111.5 -121.5t159 -82.5t204.5 -30.5q153 0 276.5 59t198.5 168q15 23 15 41t-17 39q-12 15 -30 30q-28 28 -58 48q-24 18 -53 18q-27 0 -49 -14
q-2 -1 -16 -15l-7 -8q-89 -127 -260 -127q-147 0 -227 87.5t-80 219.5q0 130 80.5 217.5t226.5 87.5q169 0 260 -126l7 -9q3 -6 12 -12q25 -18 53 -18q13 0 25 6q3 1 6 2.5t7 4t7 3.5l41 29q48 38 59 55q13 20 13 37q0 19 -15 41q-69 106 -195.5 167.5t-273.5 61.5z" />
    <glyph glyph-name="Ccircumflex" unicode="&#x108;" horiz-adv-x="1626" vert-adv-y="2437" 
d="M840 1796h213l-193 244h-141l-193 -244h213l52 68zM580 1536q-125 -53 -219.5 -134t-151 -179.5t-84 -206t-27.5 -223.5q0 -126 32.5 -243.5t100.5 -221.5t165.5 -181t236 -122t303.5 -45q167 0 328.5 54.5t263.5 155.5q22 26 22 52q0 31 -54 81.5t-85 57.5q-8 2 -22 2
q-35 0 -56 -16q-11 -7 -37 -29q-20 -16 -34 -23q-137 -86 -326 -86q-138 0 -248 46t-177.5 125t-102.5 178.5t-35 212.5q0 90 21.5 173t67 155t111 125t159 83.5t204.5 30.5q120 0 214 -32.5t185 -102.5q23 -23 56 -23q36 0 96.5 56t60.5 85t-24 50q-112 103 -265.5 159
t-322.5 56q-194 0 -356 -70z" />
    <glyph glyph-name="ccircumflex" unicode="&#x109;" horiz-adv-x="1220" vert-adv-y="2437" 
d="M649 1239h213l-192 244h-142l-192 -244h213l51 68zM657 1073q-137 0 -248 -46t-180.5 -123.5t-106 -174t-36.5 -203.5q0 -84 22 -163t68 -148.5t111.5 -121.5t159 -82.5t204.5 -30.5q153 0 276.5 59t198.5 168q15 23 15 41t-17 39q-12 15 -30 30q-28 28 -58 48
q-24 18 -53 18q-27 0 -49 -14q-2 -1 -16 -15l-7 -8q-89 -127 -260 -127q-147 0 -227 87.5t-80 219.5q0 130 80.5 217.5t226.5 87.5q169 0 260 -126l7 -9q3 -6 12 -12q25 -18 53 -18q13 0 25 6q3 1 6 2.5t7 4t7 3.5l41 29q48 38 59 55q13 20 13 37q0 19 -15 41
q-69 106 -195.5 167.5t-273.5 61.5z" />
    <glyph glyph-name="Ccaron" unicode="&#x10c;" horiz-adv-x="1626" vert-adv-y="2437" 
d="M829 1804h142l192 244h-213l-51 -70l-49 70h-213zM580 1536q-125 -53 -219.5 -134t-151 -179.5t-84 -206t-27.5 -223.5q0 -126 32.5 -243.5t100.5 -221.5t165.5 -181t236 -122t303.5 -45q167 0 328.5 54.5t263.5 155.5q22 26 22 52q0 31 -54 81.5t-85 57.5q-8 2 -22 2
q-35 0 -56 -16q-11 -7 -37 -29q-20 -16 -34 -23q-137 -86 -326 -86q-138 0 -248 46t-177.5 125t-102.5 178.5t-35 212.5q0 90 21.5 173t67 155t111 125t159 83.5t204.5 30.5q120 0 214 -32.5t185 -102.5q23 -23 56 -23q36 0 96.5 56t60.5 85t-24 50q-112 103 -265.5 159
t-322.5 56q-194 0 -356 -70z" />
    <glyph glyph-name="ccaron" unicode="&#x10d;" horiz-adv-x="1220" vert-adv-y="2437" 
d="M545 1235h141l193 244h-213l-52 -70l-49 70h-213zM657 1073q-137 0 -248 -46t-180.5 -123.5t-106 -174t-36.5 -203.5q0 -84 22 -163t68 -148.5t111.5 -121.5t159 -82.5t204.5 -30.5q153 0 276.5 59t198.5 168q15 23 15 41t-17 39q-12 15 -30 30q-28 28 -58 48
q-24 18 -53 18q-27 0 -49 -14q-2 -1 -16 -15l-7 -8q-89 -127 -260 -127q-147 0 -227 87.5t-80 219.5q0 130 80.5 217.5t226.5 87.5q169 0 260 -126l7 -9q3 -6 12 -12q25 -18 53 -18q13 0 25 6q3 1 6 2.5t7 4t7 3.5l41 29q48 38 59 55q13 20 13 37q0 19 -15 41
q-69 106 -195.5 167.5t-273.5 61.5z" />
    <glyph glyph-name="Itilde" unicode="&#x128;" horiz-adv-x="663" vert-adv-y="2437" 
d="M279 2001q-50 70 -121 70q-92 0 -156 -136q-2 0 -2 -2v-4q0 -3 25 -63q23 -48 32 -70l6 -12l7 12q2 4 8.5 18t14.5 31.5t16 32.5q20 34 32.5 42t20 2t28.5 -34q7 -9 11 -14q50 -70 118 -70q52 0 97 42.5t59 88.5q2 4 2 11q0 19 -24 59q-10 16 -39 57l-4 11l-7 -11
l-14 -28t-24 -43q-11 -20 -18.5 -30t-13 -15t-12 0t-10.5 9.5t-14 20t-18 25.5zM276 0h113q35 0 57.5 22.5t22.5 49.5v1441q0 29 -22.5 51.5t-59.5 22.5h-113q-38 0 -58.5 -23t-20.5 -51v-1441q0 -28 22.5 -50t58.5 -22z" />
    <glyph glyph-name="itilde" unicode="&#x129;" horiz-adv-x="602" vert-adv-y="2437" 
d="M250 1444q-49 69 -121 69q-92 0 -156 -135q-2 0 -2 -2v-4q0 -3 25 -63q29 -60 33 -70l6 -12l6 12q2 4 8.5 18t14.5 31.5t16 32.5q20 34 32.5 42t20 2t28.5 -34q7 -9 11 -14q50 -70 119 -70q52 0 96.5 42.5t58.5 88.5q3 6 3 11q0 17 -25 59q-10 16 -39 57l-4 11l-6 -11
q-1 -2 -14.5 -28t-24.5 -43q-11 -20 -18.5 -30t-13 -15t-12 0t-10.5 9.5t-14 20t-18 25.5zM256 0h96q36 0 59 22t23 50v907q0 28 -23 50t-59 22h-98q-37 0 -59.5 -22.5t-22.5 -49.5v-907q0 -28 23.5 -50t60.5 -22z" />
    <glyph glyph-name="dotlessi" unicode="&#x131;" horiz-adv-x="604" vert-adv-y="2437" 
d="M256 0h96q36 0 59 22t23 50v907q0 28 -23 50t-59 22h-98q-37 0 -59.5 -22.5t-22.5 -49.5v-907q0 -28 23.5 -50t60.5 -22z" />
    <glyph glyph-name="Nacute" unicode="&#x143;" horiz-adv-x="1693" vert-adv-y="2437" 
d="M692 1800h226l237 244h-211zM195 1513v-1439q0 -29 22 -51.5t59 -22.5h111q36 0 59 23t23 51v1042l733 -1079q9 -14 32.5 -25.5t43.5 -11.5h139q37 0 59.5 22.5t22.5 51.5v1439q0 27 -21 50.5t-59 23.5h-110q-39 0 -60.5 -22.5t-21.5 -51.5v-1044l-733 1077
q-27 41 -76 41h-142q-39 0 -60 -22.5t-21 -51.5z" />
    <glyph glyph-name="nacute" unicode="&#x144;" horiz-adv-x="1325" vert-adv-y="2437" 
d="M524 1290h226l237 244h-211zM420 975q-4 25 -12 37q-25 41 -123 41q-49 0 -86 -19.5t-37 -66.5v-895q0 -28 23.5 -50t58.5 -22h100q37 0 59.5 22.5t22.5 51.5v434q0 74 30.5 147t95 126t146.5 53q115 0 160 -62t45 -174v-526q0 -29 22.5 -50.5t59.5 -21.5h98
q37 0 60.5 22t23.5 50v526q0 73 -13.5 138.5t-46.5 127.5t-83 107t-129.5 72.5t-179.5 27.5q-176 0 -295 -96z" />
    <glyph glyph-name="Ncaron" unicode="&#x147;" horiz-adv-x="1693" vert-adv-y="2437" 
d="M780 1804h142l192 244h-213l-51 -70l-49 70h-213zM195 1513v-1439q0 -29 22 -51.5t59 -22.5h111q36 0 59 23t23 51v1042l733 -1079q9 -14 32.5 -25.5t43.5 -11.5h139q37 0 59.5 22.5t22.5 51.5v1439q0 27 -21 50.5t-59 23.5h-110q-39 0 -60.5 -22.5t-21.5 -51.5v-1044
l-733 1077q-27 41 -76 41h-142q-39 0 -60 -22.5t-21 -51.5z" />
    <glyph glyph-name="ncaron" unicode="&#x148;" horiz-adv-x="1325" vert-adv-y="2437" 
d="M596 1290h141l193 244h-213l-51 -70l-50 70h-213zM420 975q-4 25 -12 37q-25 41 -123 41q-49 0 -86 -19.5t-37 -66.5v-895q0 -28 23.5 -50t58.5 -22h100q37 0 59.5 22.5t22.5 51.5v434q0 74 30.5 147t95 126t146.5 53q115 0 160 -62t45 -174v-526q0 -29 22.5 -50.5
t59.5 -21.5h98q37 0 60.5 22t23.5 50v526q0 73 -13.5 138.5t-46.5 127.5t-83 107t-129.5 72.5t-179.5 27.5q-176 0 -295 -96z" />
    <glyph glyph-name="OE" unicode="&#x152;" horiz-adv-x="2521" vert-adv-y="2437" 
d="M2335 688h-551v-446h620q37 0 59.5 -22.5t22.5 -51.5v-96q0 -27 -22 -49.5t-58 -22.5h-813q-39 0 -61.5 22.5t-22.5 51.5v94q-218 -186 -567 -186q-167 0 -306.5 44t-237.5 120.5t-166.5 179.5t-101 221t-32.5 246t32.5 246t101 221.5t167 180t238 121t305.5 44.5
q344 0 567 -187v94q0 29 22.5 51.5t61.5 22.5h793q39 0 60.5 -22.5t21.5 -51.5v-92q0 -30 -21.5 -51.5t-60.5 -21.5h-602v-420h551q37 0 59.5 -22.5t22.5 -49.5v-96q0 -27 -22.5 -49.5t-59.5 -22.5zM373 793q0 -114 36 -214.5t104.5 -179.5t179 -124.5t249.5 -45.5
q138 0 248 46t178 125t103.5 179t35.5 214t-35.5 214.5t-103.5 179.5t-178 125t-248 46q-139 0 -249.5 -46t-179 -125t-104.5 -179.5t-36 -214.5z" />
    <glyph glyph-name="oe" unicode="&#x153;" horiz-adv-x="2138" vert-adv-y="2437" 
d="M1991 150q-158 -170 -443 -170q-295 0 -456 182q-157 -182 -441 -182q-111 0 -204.5 30.5t-159 82.5t-111.5 121.5t-68 148.5t-22 163q0 106 35.5 202t103.5 173.5t178 123.5t248 46q281 0 439 -178q154 178 434 178q122 0 220.5 -33.5t162.5 -89.5t107 -132.5t61 -158.5
t18 -172q0 -27 -22.5 -50t-59.5 -23h-774q33 -90 114 -141.5t197 -51.5q120 0 197 53q14 10 49 39q18 13 27 17q16 8 34 8q37 0 96.5 -55t59.5 -84q0 -27 -20 -47zM651 834q-146 0 -226.5 -89t-80.5 -219q0 -132 80 -219.5t227 -87.5q148 0 227.5 87.5t79.5 219.5t-80 220
t-227 88zM1524 834q-110 0 -184.5 -52.5t-104.5 -142.5h580q-30 90 -105 142.5t-186 52.5z" />
    <glyph glyph-name="Racute" unicode="&#x154;" horiz-adv-x="1345" vert-adv-y="2437" 
d="M532 1800h226l237 244h-211zM276 0h113q37 0 59.5 22.5t22.5 51.5v565h123l375 -600q24 -39 73 -39h146q32 0 56 17.5t24 45.5q0 21 -187 302q-109 167 -194 292q186 43 279.5 165t93.5 290q0 217 -144 346t-405 129h-435q-39 0 -60 -22.5t-21 -51.5v-1439
q0 -29 22 -51.5t59 -22.5zM715 881h-244v467h244q135 0 202.5 -61t67.5 -177q0 -229 -270 -229z" />
    <glyph glyph-name="racute" unicode="&#x155;" horiz-adv-x="849" vert-adv-y="2437" 
d="M293 1294h225l238 244h-211zM420 975q0 2 -1 6t-1 6q-17 64 -90 64h-72q-41 0 -67.5 -26.5t-26.5 -57.5v-895q0 -28 23.5 -50t58.5 -22h100q37 0 59.5 22.5t22.5 51.5v434q0 74 30.5 147t95 126t146.5 53h15q4 2 16 2q21 6 35 20q18 18 31.5 61.5t13.5 67.5q0 28 -27 57
t-65 29q-178 0 -297 -96z" />
    <glyph glyph-name="Rcaron" unicode="&#x158;" horiz-adv-x="1345" vert-adv-y="2437" 
d="M610 1804h142l192 244h-213l-51 -70l-49 70h-213zM276 0h113q37 0 59.5 22.5t22.5 51.5v565h123l375 -600q24 -39 73 -39h146q32 0 56 17.5t24 45.5q0 21 -187 302q-109 167 -194 292q186 43 279.5 165t93.5 290q0 217 -144 346t-405 129h-435q-39 0 -60 -22.5t-21 -51.5
v-1439q0 -29 22 -51.5t59 -22.5zM715 881h-244v467h244q135 0 202.5 -61t67.5 -177q0 -229 -270 -229z" />
    <glyph glyph-name="rcaron" unicode="&#x159;" horiz-adv-x="849" vert-adv-y="2437" 
d="M377 1251h141l193 244h-213l-52 -70l-49 70h-213zM420 975q0 2 -1 6t-1 6q-17 64 -90 64h-72q-41 0 -67.5 -26.5t-26.5 -57.5v-895q0 -28 23.5 -50t58.5 -22h100q37 0 59.5 22.5t22.5 51.5v434q0 74 30.5 147t95 126t146.5 53h15q4 2 16 2q21 6 35 20q18 18 31.5 61.5
t13.5 67.5q0 28 -27 57t-65 29q-178 0 -297 -96z" />
    <glyph glyph-name="Sacute" unicode="&#x15a;" horiz-adv-x="1355" vert-adv-y="2437" 
d="M481 1800h226l237 244h-211zM293 381l-8 8h-13q-24 4 -34 4q-42 0 -89 -69t-47 -97q0 -25 21 -49q87 -95 247.5 -146.5t315.5 -51.5q269 0 419 123.5t150 345.5q0 74 -22 136t-57 104.5t-88.5 78.5t-105 58.5t-116.5 43.5q-46 15 -142 41t-140 41q-133 46 -172 109
q-23 39 -23 92q0 91 85 147t202 56q166 0 307 -101l6 -6l8 -8q21 -16 37 -18l10 -4h17q47 0 72 41q17 21 32 59q25 48 25 72q0 30 -25 55q-83 79 -213 119.5t-264 40.5q-157 0 -287.5 -56.5t-208 -161t-77.5 -237.5q0 -105 38 -188t110 -141.5t162 -99t208 -69.5
q97 -22 117 -28q52 -13 114 -41q115 -54 115 -142q0 -102 -77 -157.5t-206 -55.5q-114 0 -220 40.5t-183 111.5z" />
    <glyph glyph-name="sacute" unicode="&#x15b;" horiz-adv-x="993" vert-adv-y="2437" 
d="M322 1251h225l237 244h-211zM231 299q-12 6 -30 6q-46 0 -85.5 -60t-39.5 -91q0 -36 28 -60l25 -18q4 -2 12.5 -6.5t12.5 -6.5q148 -81 338 -81q117 0 212 36t154.5 110t59.5 175q0 73 -25.5 129.5t-72.5 93.5t-93 59t-109 42q-100 27 -104 28q-70 22 -86 29
q-70 30 -70 76q0 36 40.5 55t101.5 19q104 0 200 -58q14 -7 17 -8q20 -8 28 -8q44 0 70 39q28 44 33 55q18 40 18 66q0 31 -28 53q-59 49 -151 74.5t-183 25.5q-174 0 -292 -86.5t-118 -230.5q0 -59 18 -108t45.5 -81.5t69.5 -60t80 -43.5t88 -31l105 -31q60 -15 86 -28
q71 -26 71 -74q0 -39 -47.5 -60.5t-115.5 -21.5q-61 0 -128 20t-114 52l-8 4z" />
    <glyph glyph-name="Scircumflex" unicode="&#x15c;" horiz-adv-x="1355" vert-adv-y="2437" 
d="M692 1778h213l-192 243h-142l-192 -243h213l51 67zM293 381l-8 8h-13q-24 4 -34 4q-42 0 -89 -69t-47 -97q0 -25 21 -49q87 -95 247.5 -146.5t315.5 -51.5q269 0 419 123.5t150 345.5q0 74 -22 136t-57 104.5t-88.5 78.5t-105 58.5t-116.5 43.5q-46 15 -142 41t-140 41
q-133 46 -172 109q-23 39 -23 92q0 91 85 147t202 56q166 0 307 -101l6 -6l8 -8q21 -16 37 -18l10 -4h17q47 0 72 41q17 21 32 59q25 48 25 72q0 30 -25 55q-83 79 -213 119.5t-264 40.5q-157 0 -287.5 -56.5t-208 -161t-77.5 -237.5q0 -105 38 -188t110 -141.5t162 -99
t208 -69.5q97 -22 117 -28q52 -13 114 -41q115 -54 115 -142q0 -102 -77 -157.5t-206 -55.5q-114 0 -220 40.5t-183 111.5z" />
    <glyph glyph-name="scircumflex" unicode="&#x15d;" horiz-adv-x="993" vert-adv-y="2437" 
d="M508 1243h213l-193 244h-141l-192 -244h213l51 68zM231 299q-12 6 -30 6q-46 0 -85.5 -60t-39.5 -91q0 -36 28 -60l25 -18q4 -2 12.5 -6.5t12.5 -6.5q148 -81 338 -81q117 0 212 36t154.5 110t59.5 175q0 73 -25.5 129.5t-72.5 93.5t-93 59t-109 42q-100 27 -104 28
q-70 22 -86 29q-70 30 -70 76q0 36 40.5 55t101.5 19q104 0 200 -58q14 -7 17 -8q20 -8 28 -8q44 0 70 39q28 44 33 55q18 40 18 66q0 31 -28 53q-59 49 -151 74.5t-183 25.5q-174 0 -292 -86.5t-118 -230.5q0 -59 18 -108t45.5 -81.5t69.5 -60t80 -43.5t88 -31l105 -31
q60 -15 86 -28q71 -26 71 -74q0 -39 -47.5 -60.5t-115.5 -21.5q-61 0 -128 20t-114 52l-8 4z" />
    <glyph glyph-name="Scedilla" unicode="&#x15e;" horiz-adv-x="1355" vert-adv-y="2437" 
d="M569 -23v9q-134 16 -255 65.5t-191 126.5q-21 24 -21 49q0 28 47 97t89 69q10 0 34 -4h13l8 -8q77 -71 183 -111.5t220 -40.5q129 0 206 55.5t77 157.5q0 88 -115 142q-62 28 -114 41q-20 6 -117 28q-118 29 -208 69.5t-162 99t-110 141.5t-38 188q0 133 77.5 237.5
t208 161t287.5 56.5q134 0 264 -40.5t213 -119.5q25 -25 25 -55q0 -24 -25 -72q-15 -38 -32 -59q-25 -41 -72 -41h-17q-2 1 -5 2t-5 2q-16 2 -37 18l-8 8l-6 6q-141 101 -307 101q-117 0 -202 -56t-85 -147q0 -53 23 -92q39 -63 172 -109q44 -15 140 -41t142 -41
q65 -21 116.5 -43.5t105 -58.5t88.5 -78.5t57 -104.5t22 -136q0 -210 -134.5 -332.5t-377.5 -136.5q5 -18 21 -43q5 -9 22 -31l25 -29q23 -26 35 -42t23.5 -45.5t11.5 -63.5q0 -79 -55.5 -135t-147.5 -56q-113 0 -199 100l-2 3l2 2q18 42 86 149l4 8l6 -6q25 -30 50 -55
q33 -33 53 -33q9 0 12 6q4 12 4 17q0 17 -18 38q-21 25 -43 52q-64 76 -64 161z" />
    <glyph glyph-name="scedilla" unicode="&#x15f;" horiz-adv-x="993" vert-adv-y="2437" 
d="M387 -203l4 -6q7 -7 25.5 -28t23.5 -27q37 -33 56 -33q9 0 12 6q4 12 4 17q0 17 -18 38q-21 25 -43 52q-64 72 -64 161v11q-125 15 -233 75l-25 13q-4 3 -12.5 9t-12.5 9q-28 24 -28 60q0 31 39.5 91t85.5 60q18 0 30 -6l13 -6l8 -4q47 -32 114 -52t128 -20
q68 0 115.5 21.5t47.5 60.5q0 48 -71 74q-26 13 -86 28l-105 31q-50 15 -88 31t-80 43.5t-69.5 60t-45.5 81.5t-18 108q0 144 118 230.5t292 86.5q91 0 183 -25.5t151 -74.5q28 -22 28 -53q0 -26 -18 -66q-5 -11 -33 -55q-26 -39 -70 -39q-8 0 -28 8q-3 1 -17 8
q-96 58 -200 58q-61 0 -101.5 -19t-40.5 -55q0 -46 70 -76q16 -7 86 -29q4 -1 104 -28q63 -20 109 -42t93 -59t72.5 -93.5t25.5 -129.5q0 -134 -101.5 -218.5t-257.5 -100.5q5 -21 23 -47q5 -9 22 -31l25 -29q22 -25 34.5 -41.5t23.5 -46t11 -63.5q0 -79 -55 -135t-147 -56
q-113 0 -199 100l-2 3l2 2q18 42 86 149z" />
    <glyph glyph-name="Scaron" unicode="&#x160;" horiz-adv-x="1355" vert-adv-y="2437" 
d="M645 1804h141l193 244h-213l-51 -70l-49 70h-213zM293 381l-8 8h-13q-24 4 -34 4q-42 0 -89 -69t-47 -97q0 -25 21 -49q87 -95 247.5 -146.5t315.5 -51.5q269 0 419 123.5t150 345.5q0 74 -22 136t-57 104.5t-88.5 78.5t-105 58.5t-116.5 43.5q-46 15 -142 41t-140 41
q-133 46 -172 109q-23 39 -23 92q0 91 85 147t202 56q166 0 307 -101l6 -6l8 -8q21 -16 37 -18l10 -4h17q47 0 72 41q17 21 32 59q25 48 25 72q0 30 -25 55q-83 79 -213 119.5t-264 40.5q-157 0 -287.5 -56.5t-208 -161t-77.5 -237.5q0 -105 38 -188t110 -141.5t162 -99
t208 -69.5q97 -22 117 -28q52 -13 114 -41q115 -54 115 -142q0 -102 -77 -157.5t-206 -55.5q-114 0 -220 40.5t-183 111.5z" />
    <glyph glyph-name="scaron" unicode="&#x161;" horiz-adv-x="993" vert-adv-y="2437" 
d="M446 1251h142l192 244h-213l-51 -70l-49 70h-213zM231 299q-12 6 -30 6q-46 0 -85.5 -60t-39.5 -91q0 -36 28 -60l25 -18q4 -2 12.5 -6.5t12.5 -6.5q148 -81 338 -81q117 0 212 36t154.5 110t59.5 175q0 73 -25.5 129.5t-72.5 93.5t-93 59t-109 42q-100 27 -104 28
q-70 22 -86 29q-70 30 -70 76q0 36 40.5 55t101.5 19q104 0 200 -58q14 -7 17 -8q20 -8 28 -8q44 0 70 39q28 44 33 55q18 40 18 66q0 31 -28 53q-59 49 -151 74.5t-183 25.5q-174 0 -292 -86.5t-118 -230.5q0 -59 18 -108t45.5 -81.5t69.5 -60t80 -43.5t88 -31l105 -31
q60 -15 86 -28q71 -26 71 -74q0 -39 -47.5 -60.5t-115.5 -21.5q-61 0 -128 20t-114 52l-8 4z" />
    <glyph glyph-name="Utilde" unicode="&#x168;" horiz-adv-x="1595" vert-adv-y="2437" 
d="M743 1962q-50 70 -120 70q-92 0 -156 -136q-2 0 -2 -2v-4q0 -5 24 -63q29 -60 33 -70l6 -12l7 12l13 31q14 31 25 51q20 34 33 42t21 1.5t29 -34.5l3 -3t2 -3t2.5 -3.5t2.5 -3.5q50 -70 118 -70q52 0 97 42.5t59 88.5q2 4 2 11q0 19 -24 59q-10 16 -39 57l-5 11l-6 -11
q-1 -2 -14.5 -28t-24.5 -43q-11 -20 -18.5 -30t-13 -15t-12 0t-10.5 9.5t-14 20t-18 25.5zM195 1513v-880q0 -98 18 -187t62.5 -175t111.5 -149t173.5 -101.5t240.5 -38.5q133 0 238 38.5t172 101t110.5 148.5t61.5 175t18 186v882q0 29 -21.5 51.5t-60.5 22.5h-113
q-37 0 -59.5 -23.5t-22.5 -50.5v-882q0 -64 -8.5 -119t-31 -108.5t-58 -91t-93 -60.5t-132.5 -23q-93 0 -160.5 34t-103.5 93.5t-52 127t-16 147.5v882q0 27 -22 49.5t-58 22.5h-117q-38 0 -57.5 -22.5t-19.5 -49.5z" />
    <glyph glyph-name="utilde" unicode="&#x169;" horiz-adv-x="1325" vert-adv-y="2437" 
d="M647 1456q-50 70 -121 70q-91 0 -155 -135q-2 0 -2 -2v-5q0 -5 24 -63q29 -60 33 -70l6 -12l6 12q2 4 8.5 18t14.5 31.5t16 32.5q20 34 32.5 42t20 2t28.5 -34q3 -3 4 -4.5l3 -4.5t4 -5q49 -69 119 -69q52 0 97 42.5t59 88.5q2 4 2 10q0 17 -25 59q-14 23 -39 58l-4 10
l-6 -10q-1 -2 -14.5 -28.5t-24.5 -43.5q-11 -20 -18.5 -30t-13 -15t-12 0t-10.5 9.5t-14 20t-18 25.5zM907 78q2 -4 2 -12q17 -66 90 -66q7 0 22 -1t23 -1q49 0 86 20t37 66v895q0 28 -23.5 50t-60.5 22h-98q-40 0 -61 -22.5t-21 -51.5v-436q0 -72 -31.5 -145t-96.5 -126
t-146 -53q-113 0 -158 61.5t-45 172.5v528q0 29 -22.5 50.5t-59.5 21.5h-102q-36 0 -58 -22.5t-22 -49.5v-524q0 -74 13 -139.5t46 -128t83 -107.5t129.5 -72.5t180.5 -27.5q177 0 293 98z" />
    <glyph glyph-name="Uring" unicode="&#x16e;" horiz-adv-x="1595" vert-adv-y="2437" 
d="M979 1958q0 66 -44.5 111t-121.5 45t-121.5 -45t-44.5 -111q0 -59 49 -106.5t117 -47.5q75 0 120.5 45t45.5 109zM774 1958q0 15 9 27t30 12q37 0 37 -39t-37 -39q-19 0 -29 11.5t-10 27.5zM195 1513v-880q0 -98 18 -187t62.5 -175t111.5 -149t173.5 -101.5t240.5 -38.5
q133 0 238 38.5t172 101t110.5 148.5t61.5 175t18 186v882q0 29 -21.5 51.5t-60.5 22.5h-113q-37 0 -59.5 -23.5t-22.5 -50.5v-882q0 -64 -8.5 -119t-31 -108.5t-58 -91t-93 -60.5t-132.5 -23q-93 0 -160.5 34t-103.5 93.5t-52 127t-16 147.5v882q0 27 -22 49.5t-58 22.5
h-117q-38 0 -57.5 -22.5t-19.5 -49.5z" />
    <glyph glyph-name="uring" unicode="&#x16f;" horiz-adv-x="1325" vert-adv-y="2437" 
d="M844 1423q0 66 -44.5 111t-121.5 45t-121.5 -45t-44.5 -111q0 -59 48.5 -106t117.5 -47q75 0 120.5 44.5t45.5 108.5zM639 1423q0 15 9 27t30 12q37 0 37 -39t-37 -39q-19 0 -29 11.5t-10 27.5zM907 78q2 -4 2 -12q17 -66 90 -66q7 0 22 -1t23 -1q49 0 86 20t37 66v895
q0 28 -23.5 50t-60.5 22h-98q-40 0 -61 -22.5t-21 -51.5v-436q0 -72 -31.5 -145t-96.5 -126t-146 -53q-113 0 -158 61.5t-45 172.5v528q0 29 -22.5 50.5t-59.5 21.5h-102q-36 0 -58 -22.5t-22 -49.5v-524q0 -74 13 -139.5t46 -128t83 -107.5t129.5 -72.5t180.5 -27.5
q177 0 293 98z" />
    <glyph glyph-name="Wcircumflex" unicode="&#x174;" horiz-adv-x="2011" vert-adv-y="2437" 
d="M1022 1839h213l-193 244h-141l-192 -244h213l51 68zM205 1587h-119q-33 0 -54.5 -19t-21.5 -46q0 -7 4 -23l447 -1444q6 -23 29.5 -39t54.5 -16h92q30 0 54 16.5t30 40.5l283 1055l280 -1055q6 -23 28.5 -40t53.5 -17h100q31 0 52 16t30 37q4 9 25 82l213 680
q138 445 164 533q15 44 26 86l17 51q4 16 4 20q4 16 4 17q0 27 -22 46t-56 19h-123q-58 0 -76 -55l-301 -1022l-274 1018q-6 24 -30.5 41.5t-55.5 17.5h-123q-33 0 -54 -17.5t-28 -41.5l-272 -1010l-297 1010q-8 25 -30 42t-54 17z" />
    <glyph glyph-name="wcircumflex" unicode="&#x175;" horiz-adv-x="1507" vert-adv-y="2437" 
d="M766 1288h213l-193 244h-141l-192 -244h213l51 68zM213 1051h-121q-32 0 -54 -18t-22 -46q0 -6 2 -12q0 -2 1 -6t1 -6q1 -5 11 -35l16 -56q18 -56 53 -167t52 -168l98 -318q8 -25 24.5 -80.5t26.5 -83.5q20 -55 82 -55h119q29 0 54.5 17t33.5 40l166 564l166 -564
q8 -25 30 -41t54 -16h118q30 0 53 16.5t29 38.5l279 910q2 2 2 8q2 6 2 14q0 26 -20.5 45t-53.5 19h-121q-33 0 -55 -18t-29 -42l-151 -561l-170 561q-6 25 -28.5 42.5t-55.5 17.5h-105q-32 0 -55 -17.5t-29 -42.5l-170 -561l-151 561q-7 24 -28 42t-54 18z" />
    <glyph glyph-name="Ycircumflex" unicode="&#x176;" horiz-adv-x="1353" vert-adv-y="2437" 
d="M690 1804h213l-192 244h-142l-192 -244h213l51 68zM221 1585h-129q-33 0 -57.5 -18t-24.5 -47q0 -20 10 -37l351 -576q5 -8 96 -141q63 -91 72 -135q2 -6 2 -33q-2 -14 -2 -39v-188q0 -49 1 -148.5t1 -148.5q0 -29 22.5 -51.5t59.5 -22.5h110q37 0 59.5 22.5t22.5 51.5
v544q0 9 -2 13q6 29 72 133q92 131 98 143l350 576q10 20 10 37q0 29 -22.5 47t-56.5 18h-129q-29 0 -52 -13t-34 -34l-371 -641l-373 641q-26 47 -84 47z" />
    <glyph glyph-name="ycircumflex" unicode="&#x177;" horiz-adv-x="1122" vert-adv-y="2437" 
d="M545 1294h213l-193 244h-141l-193 -244h213l52 68zM227 -420q0 -29 23.5 -48t58.5 -19h103q57 0 84 51q7 14 307 706q297 701 297 711q0 30 -24 50t-60 20h-113q-31 0 -53.5 -15.5t-32.5 -38.5l-262 -620l-250 618q-9 24 -32 40t-54 16h-115q-36 0 -58.5 -19t-22.5 -49
q0 -19 182 -442q37 -85 86.5 -195.5t83 -186t45.5 -104.5q-7 -18 -23 -55t-41 -93.5t-41 -94.5q-88 -209 -88 -232z" />
    <glyph glyph-name="Ydieresis" unicode="&#x178;" horiz-adv-x="1353" vert-adv-y="2437" 
d="M578 2042q-65 0 -101.5 -38t-36.5 -93t36.5 -93t101.5 -38q63 0 99 38.5t36 92.5t-36 92.5t-99 38.5zM954 2042q-63 0 -100 -38t-37 -93t37 -93t100 -38q64 0 100 38.5t36 92.5t-36 92.5t-100 38.5zM221 1585h-129q-33 0 -57.5 -18t-24.5 -47q0 -20 10 -37l351 -576
q5 -8 96 -141q63 -91 72 -135q2 -6 2 -33q-2 -14 -2 -39v-188q0 -49 1 -148.5t1 -148.5q0 -29 22.5 -51.5t59.5 -22.5h110q37 0 59.5 22.5t22.5 51.5v544q0 9 -2 13q6 29 72 133q92 131 98 143l350 576q10 20 10 37q0 29 -22.5 47t-56.5 18h-129q-29 0 -52 -13t-34 -34
l-371 -641l-373 641q-26 47 -84 47z" />
    <glyph glyph-name="Zacute" unicode="&#x179;" horiz-adv-x="1345" vert-adv-y="2437" 
d="M471 1800h225l238 244h-211zM141 0h1061q37 0 59.5 22.5t22.5 51.5v94q0 29 -22.5 51.5t-59.5 22.5h-733l776 1231q15 26 15 43q0 31 -24.5 51t-61.5 20h-1012q-39 0 -60.5 -22.5t-21.5 -51.5v-94q0 -29 22.5 -50t59.5 -21h682l-778 -1239q-13 -26 -13 -41
q0 -32 26.5 -50t61.5 -18z" />
    <glyph glyph-name="zacute" unicode="&#x17a;" horiz-adv-x="1105" vert-adv-y="2437" 
d="M381 1264h225l238 243h-211zM188 0h736q39 0 60.5 22.5t21.5 51.5v78q0 30 -21.5 51.5t-60.5 21.5h-424l481 711q16 24 16 45q0 31 -25.5 50.5t-62.5 19.5h-700q-39 0 -60.5 -22.5t-21.5 -51.5v-82q0 -28 22.5 -49t59.5 -21h391l-483 -714q-15 -23 -15 -43
q0 -32 25.5 -50t60.5 -18z" />
    <glyph glyph-name="Zcaron" unicode="&#x17d;" horiz-adv-x="1345" vert-adv-y="2437" 
d="M602 1804h141l193 244h-213l-51 -70l-49 70h-213zM141 0h1061q37 0 59.5 22.5t22.5 51.5v94q0 29 -22.5 51.5t-59.5 22.5h-733l776 1231q15 26 15 43q0 31 -24.5 51t-61.5 20h-1012q-39 0 -60.5 -22.5t-21.5 -51.5v-94q0 -29 22.5 -50t59.5 -21h682l-778 -1239
q-13 -26 -13 -41q0 -32 26.5 -50t61.5 -18z" />
    <glyph glyph-name="zcaron" unicode="&#x17e;" horiz-adv-x="1105" vert-adv-y="2437" 
d="M444 1290h142l192 244h-213l-51 -70l-49 70h-213zM188 0h736q39 0 60.5 22.5t21.5 51.5v78q0 30 -21.5 51.5t-60.5 21.5h-424l481 711q16 24 16 45q0 31 -25.5 50.5t-62.5 19.5h-700q-39 0 -60.5 -22.5t-21.5 -51.5v-82q0 -28 22.5 -49t59.5 -21h391l-483 -714
q-15 -23 -15 -43q0 -32 25.5 -50t60.5 -18z" />
    <glyph glyph-name="circumflex" unicode="&#x2c6;" horiz-adv-x="616" vert-adv-y="1894" 
d="M348 1804h213l-192 244h-142l-192 -244h213l51 68z" />
    <glyph glyph-name="caron" unicode="&#x2c7;" horiz-adv-x="673" vert-adv-y="1894" 
d="M227 1804h142l192 244h-213l-51 -70l-49 70h-213z" />
    <glyph glyph-name="ring" unicode="&#x2da;" horiz-adv-x="630" vert-adv-y="1894" 
d="M440 1958q0 66 -44.5 111t-121.5 45t-121 -45t-44 -111q0 -59 48.5 -106.5t116.5 -47.5q75 0 120.5 45t45.5 109zM236 1958q0 39 38 39q37 0 37 -39t-37 -39q-19 0 -28.5 11.5t-9.5 27.5z" />
    <glyph glyph-name="tilde" unicode="&#x2dc;" horiz-adv-x="600" vert-adv-y="1894" 
d="M338 2001q-50 70 -121 70q-92 0 -156 -136q-2 0 -2 -2v-4q0 -3 25 -63q29 -60 33 -70l6 -12l6 12q2 4 8.5 18t14.5 31.5t16 32.5q20 34 32.5 42t20 2t28.5 -34q7 -9 11 -14q50 -70 119 -70q52 0 97 42.5t59 88.5q2 4 2 11q0 17 -25 59q-10 16 -39 57l-4 11l-6 -11
q-1 -2 -14.5 -28t-24.5 -43q-11 -20 -18.5 -30t-13 -15t-12 0t-10.5 9.5t-14 20t-18 25.5z" />
    <glyph glyph-name="Wgrave" unicode="&#x1e80;" horiz-adv-x="2011" vert-adv-y="2437" 
d="M1079 2040h-211l238 -244h225zM205 1587h-119q-33 0 -54.5 -19t-21.5 -46q0 -7 4 -23l447 -1444q6 -23 29.5 -39t54.5 -16h92q30 0 54 16.5t30 40.5l283 1055l280 -1055q6 -23 28.5 -40t53.5 -17h100q31 0 52 16t30 37q4 9 25 82l213 680q138 445 164 533q15 44 26 86
l17 51q4 16 4 20q4 16 4 17q0 27 -22 46t-56 19h-123q-58 0 -76 -55l-301 -1022l-274 1018q-6 24 -30.5 41.5t-55.5 17.5h-123q-33 0 -54 -17.5t-28 -41.5l-272 -1010l-297 1010q-8 25 -30 42t-54 17z" />
    <glyph glyph-name="wgrave" unicode="&#x1e81;" horiz-adv-x="1507" vert-adv-y="2437" 
d="M846 1542h-211l237 -244h226zM213 1051h-121q-32 0 -54 -18t-22 -46q0 -6 2 -12q0 -2 1 -6t1 -6q1 -5 11 -35l16 -56q18 -56 53 -167t52 -168l98 -318q8 -25 24.5 -80.5t26.5 -83.5q20 -55 82 -55h119q29 0 54.5 17t33.5 40l166 564l166 -564q8 -25 30 -41t54 -16h118
q30 0 53 16.5t29 38.5l279 910q2 2 2 8q2 6 2 14q0 26 -20.5 45t-53.5 19h-121q-33 0 -55 -18t-29 -42l-151 -561l-170 561q-6 25 -28.5 42.5t-55.5 17.5h-105q-32 0 -55 -17.5t-29 -42.5l-170 -561l-151 561q-7 24 -28 42t-54 18z" />
    <glyph glyph-name="Wacute" unicode="&#x1e82;" horiz-adv-x="2011" vert-adv-y="2437" 
d="M809 1800h225l238 244h-211zM205 1587h-119q-33 0 -54.5 -19t-21.5 -46q0 -7 4 -23l447 -1444q6 -23 29.5 -39t54.5 -16h92q30 0 54 16.5t30 40.5l283 1055l280 -1055q6 -23 28.5 -40t53.5 -17h100q31 0 52 16t30 37q4 9 25 82l213 680q138 445 164 533q15 44 26 86
l17 51q4 16 4 20q4 16 4 17q0 27 -22 46t-56 19h-123q-58 0 -76 -55l-301 -1022l-274 1018q-6 24 -30.5 41.5t-55.5 17.5h-123q-33 0 -54 -17.5t-28 -41.5l-272 -1010l-297 1010q-8 25 -30 42t-54 17z" />
    <glyph glyph-name="wacute" unicode="&#x1e83;" horiz-adv-x="1507" vert-adv-y="2437" 
d="M621 1337h225l237 244h-211zM213 1051h-121q-32 0 -54 -18t-22 -46q0 -6 2 -12q0 -2 1 -6t1 -6q1 -5 11 -35l16 -56q18 -56 53 -167t52 -168l98 -318q8 -25 24.5 -80.5t26.5 -83.5q20 -55 82 -55h119q29 0 54.5 17t33.5 40l166 564l166 -564q8 -25 30 -41t54 -16h118
q30 0 53 16.5t29 38.5l279 910q2 2 2 8q2 6 2 14q0 26 -20.5 45t-53.5 19h-121q-33 0 -55 -18t-29 -42l-151 -561l-170 561q-6 25 -28.5 42.5t-55.5 17.5h-105q-32 0 -55 -17.5t-29 -42.5l-170 -561l-151 561q-7 24 -28 42t-54 18z" />
    <glyph glyph-name="Wdieresis" unicode="&#x1e84;" horiz-adv-x="2011" vert-adv-y="2437" 
d="M944 2062q-65 0 -101 -38t-36 -93t36 -93t101 -38q63 0 99 38.5t36 92.5t-36 92.5t-99 38.5zM1321 2062q-63 0 -100 -38t-37 -93t37 -93t100 -38q64 0 99.5 38t35.5 93t-35.5 93t-99.5 38zM205 1587h-119q-33 0 -54.5 -19t-21.5 -46q0 -7 4 -23l447 -1444q6 -23 29.5 -39
t54.5 -16h92q30 0 54 16.5t30 40.5l283 1055l280 -1055q6 -23 28.5 -40t53.5 -17h100q31 0 52 16t30 37q4 9 25 82l213 680q138 445 164 533q15 44 26 86l17 51q4 16 4 20q4 16 4 17q0 27 -22 46t-56 19h-123q-58 0 -76 -55l-301 -1022l-274 1018q-6 24 -30.5 41.5
t-55.5 17.5h-123q-33 0 -54 -17.5t-28 -41.5l-272 -1010l-297 1010q-8 25 -30 42t-54 17z" />
    <glyph glyph-name="wdieresis" unicode="&#x1e85;" horiz-adv-x="1507" vert-adv-y="2437" 
d="M702 1559q-65 0 -101 -38t-36 -94q0 -55 36 -93t101 -38q63 0 99.5 38.5t36.5 92.5t-36.5 93t-99.5 39zM1079 1559q-63 0 -100 -38.5t-37 -93.5t37 -93t100 -38q64 0 99.5 38t35.5 93t-35.5 93.5t-99.5 38.5zM213 1051h-121q-32 0 -54 -18t-22 -46q0 -6 2 -12q0 -2 1 -6
t1 -6q1 -5 11 -35l16 -56q18 -56 53 -167t52 -168l98 -318q8 -25 24.5 -80.5t26.5 -83.5q20 -55 82 -55h119q29 0 54.5 17t33.5 40l166 564l166 -564q8 -25 30 -41t54 -16h118q30 0 53 16.5t29 38.5l279 910q2 2 2 8q2 6 2 14q0 26 -20.5 45t-53.5 19h-121q-33 0 -55 -18
t-29 -42l-151 -561l-170 561q-6 25 -28.5 42.5t-55.5 17.5h-105q-32 0 -55 -17.5t-29 -42.5l-170 -561l-151 561q-7 24 -28 42t-54 18z" />
    <glyph glyph-name="endash" unicode="&#x2013;" horiz-adv-x="1402" vert-adv-y="2437" 
d="M254 553h897q36 0 59 23.5t23 50.5v98q0 28 -23 51t-59 23h-897q-37 0 -59.5 -22.5t-22.5 -51.5v-98q0 -29 22.5 -51.5t59.5 -22.5z" />
    <glyph glyph-name="emdash" unicode="&#x2014;" horiz-adv-x="1988" vert-adv-y="2437" 
d="M254 551h1481q37 0 59.5 22.5t22.5 51.5v98q0 29 -22.5 51.5t-59.5 22.5h-1481q-37 0 -59.5 -22.5t-22.5 -51.5v-98q0 -29 21.5 -51.5t60.5 -22.5z" />
    <glyph glyph-name="quoteleft" unicode="&#x2018;" horiz-adv-x="583" vert-adv-y="2437" 
d="M274 1628q-47 0 -83 -16t-56 -39.5t-32.5 -55.5t-16.5 -59.5t-4 -56.5q0 -78 28.5 -162.5t88 -163t137.5 -121.5q24 -12 45 -12q42 0 81.5 44.5t39.5 74.5q0 26 -25 51l-49 41q-65 65 -86 141q56 19 84.5 63.5t28.5 96.5q0 69 -47 121.5t-134 52.5z" />
    <glyph glyph-name="quoteright" unicode="&#x2019;" horiz-adv-x="583" vert-adv-y="2437" 
d="M109 1112q-25 -25 -25 -51q0 -30 39.5 -74.5t81.5 -44.5q23 0 43 12q78 41 137.5 121.5t88 166t28.5 161.5q0 28 -4 55t-16.5 59t-33 55.5t-56 39.5t-81.5 16q-89 0 -135.5 -52.5t-46.5 -121.5q0 -51 29 -96t86 -64q-21 -77 -88 -141q-7 -7 -23.5 -20.5t-23.5 -20.5z" />
    <glyph glyph-name="quotesinglbase" unicode="&#x201a;" horiz-adv-x="583" vert-adv-y="1894" 
d="M109 -193q-25 -21 -25 -51q0 -29 39.5 -72.5t81.5 -43.5q23 0 43 12q115 59 184.5 193t69.5 255q0 36 -7.5 70.5t-26.5 72t-59.5 60.5t-97.5 23q-89 0 -135.5 -53t-46.5 -123q0 -50 29.5 -95t85.5 -63q-21 -78 -88 -142q-5 -5 -22 -19.5t-25 -23.5z" />
    <glyph glyph-name="quotedblleft" unicode="&#x201c;" horiz-adv-x="999" vert-adv-y="2437" 
d="M477 1118q25 -25 25 -51q0 -30 -39 -74.5t-80 -44.5q-23 0 -45 13q-115 59 -184.5 193t-69.5 255q0 28 4 55t16.5 59t32.5 55.5t55.5 39.5t81.5 16q89 0 136 -52.5t47 -121.5q0 -51 -29 -96t-86 -64q21 -77 88 -141q7 -7 23.5 -20.5t23.5 -20.5zM895 1118q25 -25 25 -51
q0 -30 -39 -74.5t-80 -44.5q-23 0 -45 13q-115 59 -184.5 193t-69.5 255q0 28 4 55t16.5 59t32.5 55.5t55.5 39.5t81.5 16q89 0 135.5 -52.5t46.5 -121.5q0 -52 -29 -96.5t-85 -63.5q21 -77 88 -141q7 -7 23.5 -20.5t23.5 -20.5z" />
    <glyph glyph-name="quotedblright" unicode="&#x201d;" horiz-adv-x="999" vert-adv-y="2437" 
d="M109 1120q-25 -21 -25 -51q0 -29 39.5 -73t81.5 -44q21 0 43 13q115 59 184.5 192.5t69.5 253.5q0 29 -4 56.5t-16.5 59.5t-33 55.5t-56 39.5t-81.5 16q-88 0 -135 -53.5t-47 -122.5q0 -51 29 -95t86 -62q-21 -78 -88 -142q-8 -9 -25 -23.5t-22 -19.5zM526 1120
q-24 -21 -24 -51q0 -29 39.5 -73t81.5 -44q21 0 43 13q115 59 184.5 192.5t69.5 253.5q0 29 -4 56.5t-16.5 59.5t-33 55.5t-56 39.5t-81.5 16q-88 0 -135 -53.5t-47 -122.5q0 -51 29 -95t86 -62q-20 -76 -89 -142q-8 -9 -25 -23.5t-22 -19.5z" />
    <glyph glyph-name="quotedblbase" unicode="&#x201e;" horiz-adv-x="999" vert-adv-y="1894" 
d="M109 -178q-25 -21 -25 -51q0 -29 39.5 -73t81.5 -44q23 0 43 12q115 59 184.5 193t69.5 254q0 29 -4 56.5t-16.5 59.5t-33 55.5t-56 39.5t-81.5 16q-89 0 -135.5 -53t-46.5 -123q0 -50 29.5 -95t85.5 -63q-20 -76 -88 -141q-8 -9 -25 -23.5t-22 -19.5zM526 -178
q-24 -21 -24 -51q0 -29 39.5 -73t81.5 -44q23 0 43 12q115 59 184.5 193t69.5 254q0 29 -4 56.5t-16.5 59.5t-33 55.5t-56 39.5t-81.5 16q-89 0 -135.5 -53t-46.5 -123q0 -50 29.5 -95t85.5 -63q-20 -75 -89 -141q-8 -9 -25 -23.5t-22 -19.5z" />
    <glyph glyph-name="dagger" unicode="&#x2020;" horiz-adv-x="905" vert-adv-y="2437" 
d="M813 659v-98q0 -29 -22.5 -51.5t-59.5 -22.5h-160v-415q0 -28 -23.5 -50t-58.5 -22h-98q-35 0 -58.5 22t-23.5 50v415h-159q-37 0 -59.5 22.5t-22.5 51.5v98q0 29 22.5 51.5t59.5 22.5h159v783q0 28 22.5 48.5t57.5 20.5h100q36 0 59 -20t23 -49v-783h160
q37 0 59.5 -22.5t22.5 -51.5z" />
    <glyph glyph-name="bullet" unicode="&#x2022;" horiz-adv-x="595" vert-adv-y="1894" 
d="M258 870q-69 0 -109 -41t-40 -100t40 -100t109 -41t108.5 41t39.5 100t-39.5 100t-108.5 41z" />
    <glyph glyph-name="perthousand" unicode="&#x2030;" horiz-adv-x="1906" vert-adv-y="2437" 
d="M952 1567q150 0 276 -47.5t211 -125.5t144 -181t86 -211.5t27 -219.5t-27 -219.5t-86 -211t-144 -180.5t-211 -125.5t-276 -47.5t-275.5 47.5t-209 125.5t-142 181t-84.5 211.5t-26 218.5t26 218.5t84 211.5t141.5 181.5t209 126t276.5 47.5zM952 219q95 0 174 35
t131.5 92t89 131.5t52.5 151.5t16 153q0 77 -16 154t-52 152t-88 132.5t-131.5 92.5t-175.5 35t-175 -35.5t-131 -93t-87.5 -132.5t-51 -151.5t-15.5 -153.5t15.5 -153.5t51.5 -151t88 -131.5t131 -92t174 -35z" />
    <glyph glyph-name="guilsinglleft" unicode="&#x2039;" horiz-adv-x="1165" vert-adv-y="1894" 
d="M1044 559l9 -2v139q0 28 -33 43l-635 275l635 274q33 15 33 41v137l-9 -2q-5 -1 -18.5 -4t-21.5 -4q-31 -9 -43 -14l-752 -330q-31 -14 -31 -43v-113q0 -28 31 -43l752 -329q3 -1 19 -6.5t24 -6.5z" />
    <glyph glyph-name="guilsinglright" unicode="&#x203a;" horiz-adv-x="1085" vert-adv-y="1894" 
d="M178 688v-139l8 2q6 2 20.5 5t20.5 5q30 9 41 14l754 330q12 5 21.5 17t9.5 24v115q0 29 -31 43l-754 330q-17 9 -41 12q-6 2 -20.5 5t-20.5 5l-8 2v-137q0 -13 8.5 -24.5t22.5 -16.5l637 -276l-637 -275q-31 -14 -31 -41z" />
    <glyph glyph-name="Euro" unicode="&#x20ac;" horiz-adv-x="1855" vert-adv-y="2437" 
d="M195 473h135q83 -222 284 -360t478 -138q166 0 320 58t251 164q23 26 23 53q0 35 -31 63q-26 26 -58 49q-24 20 -38 27q-21 14 -48 14q-39 0 -69 -26q-83 -73 -160.5 -105t-189.5 -32q-144 0 -252.5 61.5t-171.5 171.5h575q69 0 88 55q8 19 8 41v35q0 41 -14 68
q-22 43 -82 43h-647v49v49h647q42 0 68 25t26 57q0 4 1 17.5t1 21.5q0 33 -2 49q-17 72 -94 72h-573q62 109 171 172t251 63q161 0 280 -96l12 -12q9 -6 15 -15q3 -3 9.5 -9t13 -10.5t12.5 -8.5q31 -23 65 -23q37 0 66 25q24 18 30 24q25 20 35 33q45 45 45 80q0 33 -41 74
q-12 12 -32 28q-3 3 -9.5 7.5t-11 8t-8.5 7.5q-203 147 -479 147t-479 -137t-285 -358h-135q-42 0 -67.5 -26t-25.5 -58v-76q0 -31 26 -56.5t67 -25.5h86v-49v-49q-23 2 -58 2q-44 0 -69 -10q-33 -11 -43 -45q-11 -28 -11 -78q0 -41 15 -66q22 -45 80 -45z" />
    <glyph glyph-name="trademark" unicode="&#x2122;" horiz-adv-x="1261" vert-adv-y="2437" 
d="M438 1421v-383q0 -40 30.5 -56.5t72.5 -16.5q37 0 62.5 18.5t25.5 52.5v66l2 -2l12 -25l-12 8l41 -82q19 -36 84 -36q16 0 24 2q19 0 27 4q36 11 47 39l39 88v-62q0 -71 102 -71q38 0 63 19t25 52v490q0 69 -104 69q-74 0 -94 -45l-125 -286l-125 288q-9 25 -51 39
q-18 4 -54 4q-28 0 -49 -8q-16 4 -26 4h-369q-52 0 -70 -37q-10 -18 -10 -53q0 -28 19 -53t61 -25h86v-391q0 -71 104 -71q37 0 64 18.5t27 52.5v389h36h35z" />
    <glyph glyph-name="minus" unicode="&#x2212;" horiz-adv-x="1333" vert-adv-y="2437" 
d="M1126 799h-917q-37 0 -59.5 -22.5t-22.5 -51.5v-98q0 -29 22.5 -51.5t59.5 -22.5h917q37 0 59.5 23.5t22.5 50.5v98q0 29 -22.5 51.5t-59.5 22.5z" />
    <glyph glyph-name="guillemotleft.1" horiz-adv-x="1165" vert-adv-y="1894" 
d="M1044 559l9 -2v139q0 28 -33 43l-635 275l635 274q33 15 33 41v137l-9 -2q-5 -1 -18.5 -4t-21.5 -4q-31 -9 -43 -14l-752 -330q-31 -14 -31 -43v-113q0 -28 31 -43l752 -329q3 -1 19 -6.5t24 -6.5z" />
    <glyph glyph-name="guillemotright.1" horiz-adv-x="1165" vert-adv-y="1894" 
d="M178 688v-139l8 2q6 2 20.5 5t20.5 5q30 9 41 14l754 330q12 5 21.5 17t9.5 24v115q0 29 -31 43l-754 330q-17 9 -41 12q-6 2 -20.5 5t-20.5 5l-8 2v-137q0 -13 8.5 -24.5t22.5 -16.5l637 -276l-637 -275q-31 -14 -31 -41z" />
    <glyph glyph-name="_FSHallmark" horiz-adv-x="2007" vert-adv-y="2437" 
d="M1866 1606v-197h-1678v197h1678zM1851 1034h-202q0 19 -15 45q-18 21 -37 35q-35 18 -47 21q-5 1 -23 3.5t-26 2.5q-48 0 -96 -25q-41 -25 -41 -59q0 -61 37 -82q57 -28 90 -35l133 -31q33 -11 59 -14q13 -1 50 -12q5 -3 20.5 -11t22.5 -12q42 -25 63 -55q22 -40 25 -88
q3 -52 -21 -101q-51 -83 -147 -118q-102 -31 -191 -31q-79 0 -137 18q-53 14 -117 56q-51 36 -86 96q-30 56 -30 131l194 -4q0 -10 8 -29q3 -30 29 -53q22 -22 51 -35q35 -18 94 -18q67 0 107 24q41 18 41 52q0 59 -160 94q-154 39 -246 88q-100 53 -100 168q0 97 66 151
q66 53 147 80q73 17 139 17q101 0 191 -37q89 -38 133 -133q22 -55 22 -99zM813 924v-187h-403v-270h-222v833h707v-190h-485v-186h403zM877 567q0 44 28 72q27 27 72 27q40 0 80 -29q33 -26 33 -70q0 -40 -33 -69q-37 -27 -80 -27q-39 0 -70 31q-30 27 -30 65zM1864 362
v-198h-1680v198h1680z" />
    <glyph glyph-name="_Fontastica" horiz-adv-x="2007" vert-adv-y="2437" 
d="M1366 903v-211h-786v-391h-232q-2 4 -2 10v1360h1018v-209h-784v-559h786zM1516 512v559h-789v211h789v389h231v-1366h-1020v207h789zM1516 168q-15 -8 -15 -21q0 -18 10 -28q10 -13 25 -13q17 0 37 13l12 -13q-19 -22 -49 -22q-22 0 -43 12q-12 15 -18 43q-3 26 16 45
q21 21 45 21q28 0 49 -21l-12 -16q-1 2 -5.5 5t-6.5 5q-2 4 -19 4h-6q-18 -7 -20 -14zM379 131v-45h-31v117h86v-21h-55v-32h53v-19h-53zM541 203q37 0 59 -31q16 -23 4 -53q-13 -32 -51 -35l-14 -6q-17 0 -25 8q-37 15 -37 51q0 31 19 47q14 19 45 19zM743 123v80h23v-117
h-6q-4 -2 -8 -2q-10 0 -19 12l-12 17q-1 3 -5 8t-5 8l-25 29v-72h-27v117h23q8 -2 12 -17q23 -23 27 -28q3 -4 10 -16.5t12 -18.5zM854 86v96h-37v21h98v-21h-36v-96h-25zM1182 147q24 -3 24 -26q3 -25 -20 -35q-4 -2 -23 -2q-40 0 -55 18q2 2 2 4l2 5q0 4 4 8l37 -13h16
q7 9 9 7q0 18 -27 24q-4 0 -6 2t-10 2q-19 5 -19 27q-5 18 17 31q12 4 26 4q29 0 47 -10l-10 -21q-4 2 -8 2q-2 0 -6 2q-2 2 -8 2q-3 0 -5 4h-16q-8 0 -8 -8q-4 -4 8 -16q11 -2 29 -11zM1284 86v96h-39v21h103v-21h-37v-96h-27zM1425 203v-117h-30v117h30zM1671 203h33
l25 -56q1 -4 12 -32q9 -22 14 -29h-26l-11 25h-57l-10 -25h-27q33 64 47 117zM967 86h-25l49 113h27q4 -14 12 -27q3 -4 7.5 -14.5t6.5 -12.5q1 -3 5.5 -14t5.5 -16t5 -15.5t5 -13.5h-27q-2 2 -2 10q0 1 -1 3t-2.5 5.5t-2.5 6.5h-53q-2 -4 -2 -15q-2 -2 -2 -4zM575 141v4
q0 16 -8 27q-13 10 -28 10q-4 -4 -9 -4q-12 -3 -22 -18q-12 -15 -2 -29q9 -27 35 -27q8 0 10 2q24 6 24 35zM1004 174l-21 -43h39q-1 1 -2 5t-2 5q-2 2 -3.5 6t-2.5 5q-2 4 -2 12q-2 1 -3.5 5t-2.5 5zM1688 174l-19 -43h37q-2 2 -2 10q-5 11 -6 11q-1 2 -2 6t-2 6
q-1 1 -2.5 5t-3.5 5z" />
    </font>
</defs>
</svg>
