<svg xmlns="http://www.w3.org/2000/svg" xmlns:xlink="http://www.w3.org/1999/xlink" width="40" height="40" fill="none" xmlns:v="https://vecta.io/nano"><circle cx="20" cy="20" r="20" fill="#d4ebff"/><g fill="#1f4c73"><use xlink:href="#B"/><path d="M19.75 30.667a1.02 1.02 0 0 1-1.083-1.083v-9.75a1.02 1.02 0 0 1 1.083-1.083 1.02 1.02 0 0 1 1.083 1.083v9.75a1.02 1.02 0 0 1-1.083 1.083zm6.5-9.75a1.02 1.02 0 0 1-1.083-1.083v-9.75A1.02 1.02 0 0 1 26.25 9a1.02 1.02 0 0 1 1.083 1.083v9.75a1.02 1.02 0 0 1-1.083 1.083zm-13 0a1.02 1.02 0 0 1-1.083-1.083v-9.75A1.02 1.02 0 0 1 13.25 9a1.02 1.02 0 0 1 1.083 1.083v9.75a1.02 1.02 0 0 1-1.083 1.083z"/><use xlink:href="#B" x="13"/><path d="M19.75 15.5a1.02 1.02 0 0 1-1.083-1.083v-4.333A1.02 1.02 0 0 1 19.75 9a1.02 1.02 0 0 1 1.083 1.083v4.333A1.02 1.02 0 0 1 19.75 15.5z"/></g><path d="M13.25 26.333a3.19 3.19 0 0 1-3.25-3.25 3.19 3.19 0 0 1 3.25-3.25 3.19 3.19 0 0 1 3.25 3.25 3.19 3.19 0 0 1-3.25 3.25zm0-4.333a1.02 1.02 0 0 0-1.083 1.083 1.02 1.02 0 0 0 1.083 1.083 1.02 1.02 0 0 0 1.083-1.083A1.02 1.02 0 0 0 13.25 22zm6.5-2.167a3.19 3.19 0 0 1-3.25-3.25 3.19 3.19 0 0 1 3.25-3.25 3.19 3.19 0 0 1 3.25 3.25 3.19 3.19 0 0 1-3.25 3.25zm0-4.333a1.02 1.02 0 0 0-1.083 1.083 1.02 1.02 0 0 0 1.083 1.083 1.02 1.02 0 0 0 1.083-1.083A1.02 1.02 0 0 0 19.75 15.5zm6.5 10.833a3.19 3.19 0 0 1-3.25-3.25 3.19 3.19 0 0 1 3.25-3.25 3.19 3.19 0 0 1 3.25 3.25 3.19 3.19 0 0 1-3.25 3.25zm0-4.333a1.02 1.02 0 0 0-1.083 1.083 1.02 1.02 0 0 0 1.083 1.083 1.02 1.02 0 0 0 1.083-1.083A1.02 1.02 0 0 0 26.25 22z" fill="#23c88c"/><defs ><path id="B" d="M13.25 30.667a1.02 1.02 0 0 1-1.083-1.083V25.25a1.02 1.02 0 0 1 1.083-1.083 1.02 1.02 0 0 1 1.083 1.083v4.333a1.02 1.02 0 0 1-1.083 1.083z"/></defs></svg>