<svg width="40" height="40" viewBox="0 0 40 40" fill="none" xmlns="http://www.w3.org/2000/svg">
<g clip-path="url(#clip0_78_15)">
<circle cx="20" cy="20" r="20" fill="#33CCFF"/>
<path fill-rule="evenodd" clip-rule="evenodd" d="M21.1869 28.4131L18.7461 28.4115C18.612 27.7346 18.2475 27.125 17.7145 26.6866C17.1816 26.2482 16.5132 26.008 15.8231 26.0069C15.3221 26.0035 14.8286 26.1273 14.3886 26.3668C13.9486 26.6063 13.5767 26.9536 13.3077 27.3762L13.3069 27.3954C12.4118 26.9328 11.5971 26.3292 10.8938 25.6077C10.0531 24.7546 9.59613 23.9746 9.3869 23.4815C9.9344 23.3477 10.4314 23.0581 10.8177 22.6477C11.333 22.0904 11.6178 21.3583 11.6146 20.5992V18.8169C11.6146 16.6939 12.3192 14.62 13.62 12.9462C15.4792 10.5539 18.2307 9.21539 21.1869 9.21539C23.7315 9.21539 26.1292 10.2139 27.9361 12.0285C28.8271 12.9172 29.5334 13.9733 30.0145 15.1362C30.4956 16.299 30.7419 17.5455 30.7392 18.8039C30.7392 21.3654 29.7461 23.7731 27.9415 25.5846C26.1792 27.3539 23.7607 28.4131 21.1877 28.4131" fill="white"/>
<mask id="mask0_78_15" style="mask-type:alpha" maskUnits="userSpaceOnUse" x="8" y="8" width="24" height="24">
<path d="M8.03381 8.02307H31.9292V32H8.03381V8.02307Z" fill="white"/>
</mask>
<g mask="url(#mask0_78_15)">
<path fill-rule="evenodd" clip-rule="evenodd" d="M21.187 28.4131L18.7463 28.4115C18.6122 27.7346 18.2476 27.125 17.7147 26.6866C17.1817 26.2482 16.5133 26.008 15.8232 26.0069C15.3223 26.0035 14.8287 26.1273 14.3887 26.3668C13.9488 26.6063 13.5768 26.9536 13.3078 27.3761L13.307 27.3954C12.412 26.9328 11.5972 26.3292 10.894 25.6077C10.0532 24.7546 9.59627 23.9746 9.38704 23.4815C9.93454 23.3477 10.4315 23.0581 10.8178 22.6477C11.3332 22.0904 11.618 21.3583 11.6147 20.5992V18.8169C11.6147 16.6938 12.3194 14.62 13.6201 12.9461C15.4794 10.5538 18.2309 9.21538 21.187 9.21538C23.7317 9.21538 26.1294 10.2138 27.9363 12.0285C28.8272 12.9172 29.5335 13.9733 30.0146 15.1361C30.4957 16.299 30.742 17.5454 30.7394 18.8038C30.7394 21.3654 29.7463 23.7731 27.9417 25.5846C26.1794 27.3538 23.7609 28.4131 21.1878 28.4131M31.9294 18.8038C31.9324 17.389 31.6555 15.9874 31.1148 14.68C30.5741 13.3725 29.7801 12.1848 28.7786 11.1854C26.747 9.14615 24.0517 8.02307 21.1894 8.02307C17.9078 8.02307 14.8494 9.49076 12.7617 12.1177C11.2513 14.0231 10.4299 16.3833 10.4309 18.8146V20.6031C10.4309 21.5138 9.7155 22.4108 8.50704 22.4123C8.4086 22.4127 8.31287 22.4447 8.23395 22.5035C8.15502 22.5624 8.09706 22.645 8.06858 22.7392C7.84397 23.4869 8.75474 25.1361 10.0455 26.4461C10.8665 27.2811 11.8215 27.9727 12.8709 28.4923C12.7958 28.922 12.8155 29.3629 12.9287 29.7842C13.0419 30.2054 13.2458 30.5969 13.5262 30.931C13.8065 31.2652 14.1566 31.534 14.5518 31.7187C14.947 31.9033 15.3778 31.9993 15.814 32C16.5049 32.0033 17.1754 31.7658 17.7102 31.3284C18.2451 30.8909 18.6108 30.2809 18.7447 29.6031L21.2509 29.6046C21.5847 31.2985 23.3394 32.4592 25.2163 31.8231C25.6206 31.6847 25.9885 31.4571 26.2928 31.1571C26.5971 30.857 26.8299 30.4923 26.974 30.09C27.254 29.3085 27.2147 28.55 26.9601 27.9008C27.6199 27.4769 28.2316 26.9828 28.7847 26.4269C29.7858 25.4265 30.5791 24.2379 31.1189 22.9296C31.6588 21.6213 31.9344 20.2191 31.9301 18.8038" fill="black"/>
</g>
<path fill-rule="evenodd" clip-rule="evenodd" d="M27.1538 16.4123C27.1538 15.7508 26.6192 15.2138 25.96 15.2138C25.3007 15.2138 24.7653 15.75 24.7653 16.4123C24.7653 17.0746 25.3007 17.6115 25.96 17.6115C26.6192 17.6115 27.1546 17.0746 27.1546 16.4123M19.983 16.4123C19.983 15.7508 19.4484 15.2138 18.7884 15.2138C18.1284 15.2138 17.5938 15.75 17.5938 16.4123C17.5938 17.0746 18.1292 17.6115 18.7884 17.6115C19.4477 17.6115 19.983 17.0746 19.983 16.4123ZM19.1538 20.3385C19.1045 20.2361 19.0271 20.1498 18.9307 20.0896C18.8343 20.0294 18.7228 19.9978 18.6092 19.9985C18.5091 19.9983 18.4106 20.0234 18.3228 20.0715C18.2349 20.1195 18.1606 20.1889 18.1067 20.2732C18.0528 20.3576 18.0211 20.4541 18.0144 20.554C18.0077 20.6539 18.0263 20.7538 18.0684 20.8446C18.4542 21.6652 19.0656 22.3591 19.8311 22.8452C20.5967 23.3312 21.4847 23.5893 22.3915 23.5893C23.2983 23.5893 24.1864 23.3312 24.9519 22.8452C25.7174 22.3591 26.3288 21.6652 26.7146 20.8446C26.7568 20.7538 26.7754 20.6537 26.7686 20.5538C26.7619 20.4539 26.73 20.3573 26.6761 20.2729C26.6221 20.1885 26.5477 20.1191 26.4597 20.0712C26.3718 20.0232 26.2732 19.9982 26.173 19.9985H26.1577C26.0463 19.9993 25.9375 20.0318 25.8439 20.0921C25.7504 20.1524 25.6759 20.2381 25.6292 20.3392C25.3375 20.9508 24.8786 21.4672 24.3055 21.8287C23.7325 22.1902 23.0688 22.382 22.3913 22.3819C21.7137 22.3819 21.0501 22.1899 20.4771 21.8282C19.9042 21.4666 19.4454 20.9501 19.1538 20.3385" fill="black"/>
</g>
<defs>
<clipPath id="clip0_78_15">
<rect width="40" height="40" fill="white"/>
</clipPath>
</defs>
</svg>
