<svg width="654" height="656" viewBox="0 0 654 656" fill="none" xmlns="http://www.w3.org/2000/svg">
<g clip-path="url(#clip0_1726_4)">
<path d="M616.81 201.216C598.527 114.898 547.427 59.4317 460.672 39.5922C376.713 20.3892 292.098 21.0682 207.716 36.1972C167.04 43.4752 129.202 58.7527 98.0169 87.3132C61.2176 121.072 43.6971 164.804 34.8839 212.568C22.2361 281.189 22.6386 350.171 30.9433 419.26C32.2357 427.62 33.3373 436.001 34.8627 444.298C51.79 536.493 103.207 596.882 196.339 617.231C279.705 635.458 363.663 634.927 447.367 619.544C488.107 612.053 525.945 596.776 556.833 567.833C599.692 527.688 615.581 475.32 623.038 419.26C631.597 346.288 632.106 273.465 616.81 201.216Z" fill="#00FFA3" stroke="#141844" stroke-width="50"/>
<path d="M265 327.5C265 312.864 253.136 301 238.5 301C223.864 301 212 312.864 212 327.5C212 342.136 223.864 354 238.5 354C253.136 354 265 342.136 265 327.5Z" fill="#141844"/>
<path d="M441 327.5C441 312.864 429.136 301 414.5 301C399.864 301 388 312.864 388 327.5C388 342.136 399.864 354 414.5 354C429.136 354 441 342.136 441 327.5Z" fill="#141844"/>
<path d="M354 327.5C354 330.98 353.315 334.426 351.983 337.641C350.651 340.856 348.699 343.778 346.238 346.238C343.778 348.699 340.856 350.651 337.641 351.983C334.426 353.315 330.98 354 327.5 354C324.02 354 320.574 353.315 317.359 351.983C314.144 350.651 311.222 348.699 308.762 346.238C306.301 343.778 304.349 340.856 303.017 337.641C301.685 334.426 301 330.98 301 327.5H327.5H354Z" fill="#141844"/>
</g>
<defs>
<clipPath id="clip0_1726_4">
<rect width="654" height="656" fill="white"/>
</clipPath>
</defs>
</svg>
