<svg version="1.2" xmlns="http://www.w3.org/2000/svg" viewBox="0 0 50 50" width="50" height="50">
	<title>bit-assist-svg</title>
	<defs>
		<clipPath clipPathUnits="userSpaceOnUse" id="cp1">
			<path d="m0 0h50v50h-50z"/>
		</clipPath>
	</defs>
	<style>
		.s0 { fill: #00ffa3;stroke: #141844;stroke-width: 3.8 } 
		.s1 { fill: #141844 } 
	</style>
	<g id="Clip-Path" clip-path="url(#cp1)">
		<g id="Layer">
			<path id="Layer" class="s0" d="m47.6 32c-0.5 4.2-1.8 8.2-5 11.3-2.4 2.2-5.3 3.4-8.4 3.9-6.4 1.2-12.8 1.2-19.2-0.2-7.1-1.5-11-6.1-12.3-13.1q-0.2-1-0.3-1.9c-0.7-5.3-0.7-10.6 0.3-15.8 0.6-3.6 2-7 4.8-9.5 2.4-2.2 5.3-3.4 8.4-3.9 6.4-1.2 12.9-1.2 19.3 0.2 6.7 1.5 10.6 5.8 12 12.3 1.1 5.5 1.1 11.1 0.4 16.7z"/>
			<path id="Layer" class="s1" d="m18.2 27c-1.1 0-2-0.9-2-2 0-1.2 0.9-2.1 2-2.1 1.2 0 2.1 0.9 2.1 2.1 0 1.1-0.9 2-2.1 2z"/>
			<path id="Layer" class="s1" d="m31.7 27c-1.1 0-2-0.9-2-2 0-1.2 0.9-2.1 2-2.1 1.1 0 2 0.9 2 2.1 0 1.1-0.9 2-2 2z"/>
			<path id="Layer" class="s1" d="m27.1 25q0 0.4-0.2 0.7-0.1 0.4-0.4 0.7-0.3 0.3-0.7 0.4-0.4 0.2-0.8 0.2-0.4 0-0.7-0.2-0.4-0.1-0.7-0.4-0.3-0.3-0.4-0.7-0.2-0.3-0.2-0.7h2z"/>
		</g>
	</g>
</svg>